SplineFontDB: 3.2
FontName: Reijima-Medium
FullName: Reijima Medium
FamilyName: Reijima Medium
Weight: Medium
Copyright: Copyright (c) 2019 by Coji Morishita. All rights reserved.
Version: 1.000
ItalicAngle: 0
UnderlinePosition: -100
UnderlineWidth: 50
Ascent: 860
Descent: 140
InvalidEm: 0
LayerCount: 2
Layer: 0 0 "Back" 1
Layer: 1 0 "Fore" 0
FSType: 8
OS2Version: 0
OS2_WeightWidthSlopeOnly: 0
OS2_UseTypoMetrics: 0
CreationTime: 1707357833
ModificationTime: 1707357833
OS2TypoAscent: 0
OS2TypoAOffset: 1
OS2TypoDescent: 0
OS2TypoDOffset: 1
OS2TypoLinegap: 0
OS2WinAscent: 0
OS2WinAOffset: 1
OS2WinDescent: 0
OS2WinDOffset: 1
HheadAscent: 0
HheadAOffset: 1
HheadDescent: 0
HheadDOffset: 1
OS2Vendor: 'PfEd'
DEI: 91125
Encoding: UnicodeFull
Compacted: 1
UnicodeInterp: none
NameList: AGL For New Fonts
DisplaySize: -48
AntiAlias: 1
FitToEm: 0
WinInfo: 0 27 9
BeginPrivate: 2
BlueValues 24 [-10 0 520 530 730 750 ]
OtherBlues 12 [-220 -220 ]
EndPrivate
BeginChars: 1114125 956

StartChar: .notdef
Encoding: 1114112 -1 0
Width: 500
LayerCount: 2
Fore
SplineSet
410 -140 m 1
 93 -140 l 1
 93 860 l 1
 410 860 l 1
 410 -140 l 1
168 793 m 1
 168 760 l 1
 233 760 l 1
 233 723 l 1
 167 723 l 1
 167 690 l 1
 333 690 l 1
 333 723 l 1
 267 723 l 1
 267 760 l 1
 333 760 l 1
 333 793 l 1
 168 793 l 1
167 664 m 1
 167 560 l 1
 333 560 l 1
 333 594 l 1
 267 594 l 1
 267 664 l 1
 167 664 l 1
233 594 m 1
 200 594 l 1
 200 630 l 1
 233 630 l 1
 233 594 l 1
167 533 m 1
 167 500 l 1
 233 500 l 1
 233 463 l 1
 167 463 l 1
 167 430 l 1
 267 430 l 1
 267 500 l 1
 333 500 l 1
 333 533 l 1
 167 533 l 1
300 473 m 1
 300 407 l 1
 167 407 l 1
 167 373 l 1
 333 373 l 1
 333 473 l 1
 300 473 l 1
233 351 m 1
 233 295 l 1
 267 295 l 1
 267 318 l 1
 300 318 l 1
 300 271 l 1
 200 271 l 1
 200 351 l 1
 167 351 l 1
 167 238 l 1
 333 238 l 1
 333 351 l 1
 233 351 l 1
167 178 m 1
 167 65 l 1
 333 65 l 1
 333 178 l 1
 167 178 l 1
300 98 m 1
 200 98 l 1
 200 145 l 1
 300 145 l 1
 300 98 l 1
167 42 m 1
 167 9 l 1
 237 9 l 1
 167 -38 l 1
 167 -71 l 1
 333 -71 l 1
 333 -38 l 1
 231 -38 l 1
 301 9 l 1
 333 9 l 1
 333 42 l 1
 167 42 l 1
EndSplineSet
EndChar

StartChar: A
Encoding: 65 65 2
Width: 674
Flags: W
LayerCount: 2
Fore
SplineSet
541 0 m 1
 483 183 l 1
 191 183 l 1
 133 0 l 1
 12 0 l 1
 262 730 l 1
 412 730 l 1
 662 0 l 1
 541 0 l 1
223 283 m 1
 451 283 l 1
 338 636 l 1
 336 636 l 1
 223 283 l 1
EndSplineSet
EndChar

StartChar: Aacute
Encoding: 193 193 3
Width: 674
Flags: W
LayerCount: 2
Fore
SplineSet
541 0 m 1
 483 183 l 1
 191 183 l 1
 133 0 l 1
 12 0 l 1
 262 730 l 1
 412 730 l 1
 662 0 l 1
 541 0 l 1
223 283 m 1
 451 283 l 1
 338 636 l 1
 336 636 l 1
 223 283 l 1
347 770 m 1
 237 770 l 1
 332 980 l 1
 472 980 l 1
 347 770 l 1
EndSplineSet
EndChar

StartChar: Abreve
Encoding: 258 258 4
Width: 674
Flags: W
LayerCount: 2
Fore
SplineSet
541 0 m 1
 483 183 l 1
 191 183 l 1
 133 0 l 1
 12 0 l 1
 262 730 l 1
 412 730 l 1
 662 0 l 1
 541 0 l 1
223 283 m 1
 451 283 l 1
 338 636 l 1
 336 636 l 1
 223 283 l 1
234 804 m 0
 204 819 180 839 162 865 c 0
 144 891 134 920 132 953 c 1
 249 953 l 1
 252 926 262 905 276 890 c 0
 292 876 312 869 337 869 c 0
 362 869 382 876 398 890 c 0
 412 905 422 926 425 953 c 1
 542 953 l 1
 540 920 530 891 512 865 c 0
 494 839 470 819 440 804 c 0
 409 790 375 783 337 783 c 0
 299 783 265 790 234 804 c 0
EndSplineSet
EndChar

StartChar: uni1EAE
Encoding: 7854 7854 5
Width: 674
Flags: W
LayerCount: 2
Fore
SplineSet
234 804 m 0
 204 819 180 839 162 865 c 0
 144 891 134 920 132 953 c 1
 243 953 l 1
 332 1150 l 1
 472 1150 l 1
 347 940 l 1
 251 940 l 1
 261 893 290 869 337 869 c 0
 362 869 382 876 398 890 c 0
 412 905 422 926 425 953 c 1
 542 953 l 1
 540 920 530 891 512 865 c 0
 494 839 470 819 440 804 c 0
 409 790 375 783 337 783 c 0
 299 783 265 790 234 804 c 0
541 0 m 1
 483 183 l 1
 191 183 l 1
 133 0 l 1
 12 0 l 1
 262 730 l 1
 412 730 l 1
 662 0 l 1
 541 0 l 1
223 283 m 1
 451 283 l 1
 338 636 l 1
 336 636 l 1
 223 283 l 1
EndSplineSet
EndChar

StartChar: uni1EB6
Encoding: 7862 7862 6
Width: 674
Flags: W
LayerCount: 2
Fore
SplineSet
541 0 m 1
 483 183 l 1
 191 183 l 1
 133 0 l 1
 12 0 l 1
 262 730 l 1
 412 730 l 1
 662 0 l 1
 541 0 l 1
223 283 m 1
 451 283 l 1
 338 636 l 1
 336 636 l 1
 223 283 l 1
274 -82 m 1
 400 -82 l 1
 400 -208 l 1
 274 -208 l 1
 274 -82 l 1
234 804 m 0
 204 819 180 839 162 865 c 0
 144 891 134 920 132 953 c 1
 249 953 l 1
 252 926 262 905 276 890 c 0
 292 876 312 869 337 869 c 0
 362 869 382 876 398 890 c 0
 412 905 422 926 425 953 c 1
 542 953 l 1
 540 920 530 891 512 865 c 0
 494 839 470 819 440 804 c 0
 409 790 375 783 337 783 c 0
 299 783 265 790 234 804 c 0
EndSplineSet
EndChar

StartChar: uni1EB0
Encoding: 7856 7856 7
Width: 674
Flags: W
LayerCount: 2
Fore
SplineSet
423 940 m 1
 327 940 l 1
 202 1150 l 1
 342 1150 l 1
 431 953 l 1
 542 953 l 1
 540 920 530 891 512 865 c 0
 494 839 470 819 440 804 c 0
 409 790 375 783 337 783 c 0
 299 783 265 790 234 804 c 0
 204 819 180 839 162 865 c 0
 144 891 134 920 132 953 c 1
 249 953 l 1
 252 926 262 905 276 890 c 0
 292 876 312 869 337 869 c 0
 384 869 413 893 423 940 c 1
541 0 m 1
 483 183 l 1
 191 183 l 1
 133 0 l 1
 12 0 l 1
 262 730 l 1
 412 730 l 1
 662 0 l 1
 541 0 l 1
223 283 m 1
 451 283 l 1
 338 636 l 1
 336 636 l 1
 223 283 l 1
EndSplineSet
EndChar

StartChar: uni1EB2
Encoding: 7858 7858 8
Width: 674
Flags: W
LayerCount: 2
Fore
SplineSet
423 943 m 1
 367 943 l 1
 370 952 373 964 376 976 c 0
 379 990 380 1000 380 1009 c 0
 380 1024 375 1034 366 1038 c 0
 356 1044 338 1046 312 1046 c 0
 269 1046 228 1040 188 1028 c 1
 178 1115 l 1
 228 1127 281 1133 338 1133 c 0
 379 1133 411 1130 434 1126 c 0
 457 1120 473 1112 482 1100 c 0
 492 1089 497 1072 497 1050 c 0
 497 1036 496 1020 492 1002 c 0
 490 984 486 968 481 953 c 1
 542 953 l 1
 540 920 530 891 512 865 c 0
 494 839 470 819 440 804 c 0
 409 790 375 783 337 783 c 0
 299 783 265 790 234 804 c 0
 204 819 180 839 162 865 c 0
 144 891 134 920 132 953 c 1
 249 953 l 1
 252 926 262 905 276 890 c 0
 292 876 312 869 337 869 c 0
 385 869 414 894 423 943 c 1
541 0 m 1
 483 183 l 1
 191 183 l 1
 133 0 l 1
 12 0 l 1
 262 730 l 1
 412 730 l 1
 662 0 l 1
 541 0 l 1
223 283 m 1
 451 283 l 1
 338 636 l 1
 336 636 l 1
 223 283 l 1
EndSplineSet
EndChar

StartChar: uni1EB4
Encoding: 7860 7860 9
Width: 674
Flags: W
LayerCount: 2
Fore
SplineSet
541 0 m 1
 483 183 l 1
 191 183 l 1
 133 0 l 1
 12 0 l 1
 262 730 l 1
 412 730 l 1
 662 0 l 1
 541 0 l 1
223 283 m 1
 451 283 l 1
 338 636 l 1
 336 636 l 1
 223 283 l 1
234 804 m 0
 204 819 180 839 162 865 c 0
 144 891 134 920 132 953 c 1
 249 953 l 1
 252 926 262 905 276 890 c 0
 292 876 312 869 337 869 c 0
 362 869 382 876 398 890 c 0
 412 905 422 926 425 953 c 1
 542 953 l 1
 540 920 530 891 512 865 c 0
 494 839 470 819 440 804 c 0
 409 790 375 783 337 783 c 0
 299 783 265 790 234 804 c 0
396 1006 m 0
 379 1013 356 1024 329 1039 c 0
 298 1058 275 1067 261 1067 c 0
 251 1067 244 1062 239 1054 c 0
 234 1044 232 1029 232 1007 c 1
 132 1007 l 1
 132 1064 140 1106 156 1133 c 0
 171 1160 195 1173 228 1173 c 0
 244 1173 261 1170 279 1164 c 0
 297 1157 319 1146 345 1131 c 0
 376 1112 399 1103 413 1103 c 0
 423 1103 430 1108 435 1117 c 0
 440 1126 442 1142 442 1163 c 1
 542 1163 l 1
 542 1106 534 1064 518 1037 c 0
 503 1010 479 997 446 997 c 0
 431 997 414 1000 396 1006 c 0
EndSplineSet
EndChar

StartChar: Acircumflex
Encoding: 194 194 10
Width: 674
Flags: W
LayerCount: 2
Fore
SplineSet
541 0 m 1
 483 183 l 1
 191 183 l 1
 133 0 l 1
 12 0 l 1
 262 730 l 1
 412 730 l 1
 662 0 l 1
 541 0 l 1
223 283 m 1
 451 283 l 1
 338 636 l 1
 336 636 l 1
 223 283 l 1
240 980 m 1
 433 980 l 1
 558 770 l 1
 428 770 l 1
 338 930 l 1
 336 930 l 1
 246 770 l 1
 116 770 l 1
 240 980 l 1
EndSplineSet
EndChar

StartChar: uni1EA4
Encoding: 7844 7844 11
Width: 674
Flags: W
LayerCount: 2
Fore
SplineSet
336 930 m 1
 246 770 l 1
 116 770 l 1
 240 980 l 1
 430 980 l 1
 511 1160 l 1
 651 1160 l 1
 526 950 l 1
 451 950 l 1
 558 770 l 1
 428 770 l 1
 338 930 l 1
 336 930 l 1
541 0 m 1
 483 183 l 1
 191 183 l 1
 133 0 l 1
 12 0 l 1
 262 730 l 1
 412 730 l 1
 662 0 l 1
 541 0 l 1
223 283 m 1
 451 283 l 1
 338 636 l 1
 336 636 l 1
 223 283 l 1
EndSplineSet
EndChar

StartChar: uni1EAC
Encoding: 7852 7852 12
Width: 674
Flags: W
LayerCount: 2
Fore
SplineSet
541 0 m 1
 483 183 l 1
 191 183 l 1
 133 0 l 1
 12 0 l 1
 262 730 l 1
 412 730 l 1
 662 0 l 1
 541 0 l 1
223 283 m 1
 451 283 l 1
 338 636 l 1
 336 636 l 1
 223 283 l 1
274 -82 m 1
 400 -82 l 1
 400 -208 l 1
 274 -208 l 1
 274 -82 l 1
240 980 m 1
 433 980 l 1
 558 770 l 1
 428 770 l 1
 338 930 l 1
 336 930 l 1
 246 770 l 1
 116 770 l 1
 240 980 l 1
EndSplineSet
EndChar

StartChar: uni1EA6
Encoding: 7846 7846 13
Width: 674
Flags: W
LayerCount: 2
Fore
SplineSet
222 950 m 1
 148 950 l 1
 23 1160 l 1
 163 1160 l 1
 244 980 l 1
 433 980 l 1
 558 770 l 1
 428 770 l 1
 338 930 l 1
 336 930 l 1
 246 770 l 1
 116 770 l 1
 222 950 l 1
541 0 m 1
 483 183 l 1
 191 183 l 1
 133 0 l 1
 12 0 l 1
 262 730 l 1
 412 730 l 1
 662 0 l 1
 541 0 l 1
223 283 m 1
 451 283 l 1
 338 636 l 1
 336 636 l 1
 223 283 l 1
EndSplineSet
EndChar

StartChar: uni1EA8
Encoding: 7848 7848 14
Width: 674
Flags: W
LayerCount: 2
Fore
SplineSet
425 980 m 1
 428 997 429 1009 429 1014 c 0
 429 1029 424 1038 414 1044 c 0
 405 1048 387 1051 361 1051 c 0
 318 1051 277 1045 237 1033 c 1
 227 1120 l 1
 277 1132 330 1138 387 1138 c 0
 428 1138 460 1136 483 1130 c 0
 506 1126 522 1117 532 1106 c 0
 541 1094 546 1077 546 1055 c 0
 546 1039 544 1021 540 1001 c 0
 537 981 532 963 526 948 c 1
 452 948 l 1
 558 770 l 1
 428 770 l 1
 338 930 l 1
 336 930 l 1
 246 770 l 1
 116 770 l 1
 240 980 l 1
 425 980 l 1
541 0 m 1
 483 183 l 1
 191 183 l 1
 133 0 l 1
 12 0 l 1
 262 730 l 1
 412 730 l 1
 662 0 l 1
 541 0 l 1
223 283 m 1
 451 283 l 1
 338 636 l 1
 336 636 l 1
 223 283 l 1
EndSplineSet
EndChar

StartChar: uni1EAA
Encoding: 7850 7850 15
Width: 674
Flags: W
LayerCount: 2
Fore
SplineSet
541 0 m 1
 483 183 l 1
 191 183 l 1
 133 0 l 1
 12 0 l 1
 262 730 l 1
 412 730 l 1
 662 0 l 1
 541 0 l 1
223 283 m 1
 451 283 l 1
 338 636 l 1
 336 636 l 1
 223 283 l 1
240 980 m 1
 433 980 l 1
 558 770 l 1
 428 770 l 1
 338 930 l 1
 336 930 l 1
 246 770 l 1
 116 770 l 1
 240 980 l 1
396 1006 m 0
 379 1013 356 1024 329 1039 c 0
 298 1058 275 1067 261 1067 c 0
 251 1067 244 1062 239 1054 c 0
 234 1044 232 1029 232 1007 c 1
 132 1007 l 1
 132 1064 140 1106 156 1133 c 0
 171 1160 195 1173 228 1173 c 0
 244 1173 261 1170 279 1164 c 0
 297 1157 319 1146 345 1131 c 0
 376 1112 399 1103 413 1103 c 0
 423 1103 430 1108 435 1117 c 0
 440 1126 442 1142 442 1163 c 1
 542 1163 l 1
 542 1106 534 1064 518 1037 c 0
 503 1010 479 997 446 997 c 0
 431 997 414 1000 396 1006 c 0
EndSplineSet
EndChar

StartChar: uni0200
Encoding: 512 512 16
Width: 674
Flags: W
LayerCount: 2
Fore
SplineSet
541 0 m 1
 483 183 l 1
 191 183 l 1
 133 0 l 1
 12 0 l 1
 262 730 l 1
 412 730 l 1
 662 0 l 1
 541 0 l 1
223 283 m 1
 451 283 l 1
 338 636 l 1
 336 636 l 1
 223 283 l 1
91 980 m 1
 231 980 l 1
 326 770 l 1
 216 770 l 1
 91 980 l 1
316 980 m 1
 456 980 l 1
 551 770 l 1
 441 770 l 1
 316 980 l 1
EndSplineSet
EndChar

StartChar: Adieresis
Encoding: 196 196 17
Width: 674
Flags: W
LayerCount: 2
Fore
SplineSet
541 0 m 1
 483 183 l 1
 191 183 l 1
 133 0 l 1
 12 0 l 1
 262 730 l 1
 412 730 l 1
 662 0 l 1
 541 0 l 1
223 283 m 1
 451 283 l 1
 338 636 l 1
 336 636 l 1
 223 283 l 1
147 938 m 1
 273 938 l 1
 273 812 l 1
 147 812 l 1
 147 938 l 1
401 938 m 1
 527 938 l 1
 527 812 l 1
 401 812 l 1
 401 938 l 1
EndSplineSet
EndChar

StartChar: uni1EA0
Encoding: 7840 7840 18
Width: 674
Flags: W
LayerCount: 2
Fore
SplineSet
541 0 m 1
 483 183 l 1
 191 183 l 1
 133 0 l 1
 12 0 l 1
 262 730 l 1
 412 730 l 1
 662 0 l 1
 541 0 l 1
223 283 m 1
 451 283 l 1
 338 636 l 1
 336 636 l 1
 223 283 l 1
274 -82 m 1
 400 -82 l 1
 400 -208 l 1
 274 -208 l 1
 274 -82 l 1
EndSplineSet
EndChar

StartChar: Agrave
Encoding: 192 192 19
Width: 674
Flags: W
LayerCount: 2
Fore
SplineSet
541 0 m 1
 483 183 l 1
 191 183 l 1
 133 0 l 1
 12 0 l 1
 262 730 l 1
 412 730 l 1
 662 0 l 1
 541 0 l 1
223 283 m 1
 451 283 l 1
 338 636 l 1
 336 636 l 1
 223 283 l 1
202 980 m 1
 342 980 l 1
 437 770 l 1
 327 770 l 1
 202 980 l 1
EndSplineSet
EndChar

StartChar: uni1EA2
Encoding: 7842 7842 20
Width: 674
Flags: W
LayerCount: 2
Fore
SplineSet
541 0 m 1
 483 183 l 1
 191 183 l 1
 133 0 l 1
 12 0 l 1
 262 730 l 1
 412 730 l 1
 662 0 l 1
 541 0 l 1
223 283 m 1
 451 283 l 1
 338 636 l 1
 336 636 l 1
 223 283 l 1
376 826 m 0
 379 840 380 850 380 859 c 0
 380 874 375 884 366 888 c 0
 356 894 338 896 312 896 c 0
 269 896 228 890 188 878 c 1
 178 965 l 1
 228 977 281 983 338 983 c 0
 379 983 411 980 434 976 c 0
 457 970 473 962 482 950 c 0
 492 939 497 922 497 900 c 0
 497 884 495 866 492 846 c 0
 488 826 483 808 477 793 c 1
 367 793 l 1
 370 802 373 814 376 826 c 0
EndSplineSet
EndChar

StartChar: uni0202
Encoding: 514 514 21
Width: 674
Flags: W
LayerCount: 2
Fore
SplineSet
541 0 m 1
 483 183 l 1
 191 183 l 1
 133 0 l 1
 12 0 l 1
 262 730 l 1
 412 730 l 1
 662 0 l 1
 541 0 l 1
223 283 m 1
 451 283 l 1
 338 636 l 1
 336 636 l 1
 223 283 l 1
440 946 m 0
 470 931 494 911 512 885 c 0
 530 859 540 830 542 797 c 1
 425 797 l 1
 422 824 412 845 398 860 c 0
 382 874 362 881 337 881 c 0
 312 881 292 874 276 860 c 0
 262 845 252 824 249 797 c 1
 132 797 l 1
 134 830 144 859 162 885 c 0
 180 911 204 931 234 946 c 0
 265 960 299 967 337 967 c 0
 375 967 409 960 440 946 c 0
EndSplineSet
EndChar

StartChar: Amacron
Encoding: 256 256 22
Width: 674
Flags: W
LayerCount: 2
Fore
SplineSet
541 0 m 1
 483 183 l 1
 191 183 l 1
 133 0 l 1
 12 0 l 1
 262 730 l 1
 412 730 l 1
 662 0 l 1
 541 0 l 1
223 283 m 1
 451 283 l 1
 338 636 l 1
 336 636 l 1
 223 283 l 1
148 918 m 1
 526 918 l 1
 526 832 l 1
 148 832 l 1
 148 918 l 1
EndSplineSet
EndChar

StartChar: Aogonek
Encoding: 260 260 23
Width: 674
Flags: W
LayerCount: 2
Fore
SplineSet
751 -196 m 1
 717 -210 679 -217 636 -217 c 0
 585 -217 545 -208 517 -190 c 0
 489 -171 475 -145 475 -112 c 0
 475 -71 496 -32 539 5 c 1
 483 183 l 1
 191 183 l 1
 133 0 l 1
 12 0 l 1
 262 730 l 1
 412 730 l 1
 662 0 l 1
 635 -16 614 -32 600 -48 c 0
 584 -65 577 -80 577 -93 c 0
 577 -105 583 -114 594 -120 c 0
 606 -127 623 -130 645 -130 c 0
 677 -130 707 -124 734 -111 c 1
 751 -196 l 1
223 283 m 1
 451 283 l 1
 338 636 l 1
 336 636 l 1
 223 283 l 1
EndSplineSet
EndChar

StartChar: Aring
Encoding: 197 197 24
Width: 674
Flags: W
LayerCount: 2
Fore
SplineSet
483 183 m 1
 191 183 l 1
 133 0 l 1
 12 0 l 1
 258 718 l 1
 237 732 220 750 207 772 c 0
 194 794 188 818 188 845 c 0
 188 872 195 898 208 920 c 0
 221 944 240 962 262 975 c 0
 286 988 311 995 338 995 c 0
 365 995 390 988 414 975 c 0
 436 962 455 944 468 920 c 0
 481 898 488 872 488 845 c 0
 488 818 482 794 468 771 c 0
 456 748 438 730 416 717 c 1
 662 0 l 1
 541 0 l 1
 483 183 l 1
288 894 m 0
 275 881 268 864 268 845 c 0
 268 826 275 809 288 796 c 0
 302 782 319 775 338 775 c 0
 357 775 374 782 388 796 c 0
 401 809 408 826 408 845 c 0
 408 864 401 881 388 894 c 0
 374 908 357 915 338 915 c 0
 319 915 302 908 288 894 c 0
223 283 m 1
 451 283 l 1
 338 636 l 1
 336 636 l 1
 223 283 l 1
EndSplineSet
EndChar

StartChar: Aringacute
Encoding: 506 506 25
Width: 674
Flags: W
LayerCount: 2
Fore
SplineSet
483 183 m 1
 191 183 l 1
 133 0 l 1
 12 0 l 1
 258 718 l 1
 237 732 220 750 207 772 c 0
 194 794 188 818 188 845 c 0
 188 868 193 889 202 909 c 0
 212 929 225 946 242 960 c 1
 332 1160 l 1
 472 1160 l 1
 372 991 l 1
 405 984 433 966 455 939 c 0
 477 912 488 880 488 845 c 0
 488 818 482 794 468 771 c 0
 456 748 438 730 416 717 c 1
 662 0 l 1
 541 0 l 1
 483 183 l 1
388 894 m 0
 374 908 357 915 338 915 c 0
 319 915 302 908 288 894 c 0
 275 881 268 864 268 845 c 0
 268 826 275 809 288 796 c 0
 302 782 319 775 338 775 c 0
 357 775 374 782 388 796 c 0
 401 809 408 826 408 845 c 0
 408 864 401 881 388 894 c 0
223 283 m 1
 451 283 l 1
 338 636 l 1
 336 636 l 1
 223 283 l 1
EndSplineSet
EndChar

StartChar: Atilde
Encoding: 195 195 26
Width: 674
Flags: W
LayerCount: 2
Fore
SplineSet
541 0 m 1
 483 183 l 1
 191 183 l 1
 133 0 l 1
 12 0 l 1
 262 730 l 1
 412 730 l 1
 662 0 l 1
 541 0 l 1
223 283 m 1
 451 283 l 1
 338 636 l 1
 336 636 l 1
 223 283 l 1
396 796 m 0
 379 803 356 814 329 829 c 0
 298 848 275 857 261 857 c 0
 251 857 244 852 239 844 c 0
 234 834 232 819 232 797 c 1
 132 797 l 1
 132 854 140 896 156 923 c 0
 171 950 195 963 228 963 c 0
 244 963 261 960 279 954 c 0
 297 947 319 936 345 921 c 0
 376 902 399 893 413 893 c 0
 423 893 430 898 435 907 c 0
 440 916 442 932 442 953 c 1
 542 953 l 1
 542 896 534 854 518 827 c 0
 503 800 479 787 446 787 c 0
 431 787 414 790 396 796 c 0
EndSplineSet
EndChar

StartChar: AE
Encoding: 198 198 27
Width: 858
Flags: W
LayerCount: 2
Fore
SplineSet
794 632 m 1
 519 632 l 1
 519 430 l 1
 774 430 l 1
 774 335 l 1
 519 335 l 1
 519 98 l 1
 794 98 l 1
 794 0 l 1
 409 0 l 1
 409 183 l 1
 205 183 l 1
 133 0 l 1
 12 0 l 1
 313 730 l 1
 794 730 l 1
 794 632 l 1
244 283 m 1
 409 283 l 1
 409 640 l 1
 384 640 l 1
 244 283 l 1
EndSplineSet
EndChar

StartChar: AEacute
Encoding: 508 508 28
Width: 858
Flags: W
LayerCount: 2
Fore
SplineSet
794 632 m 1
 519 632 l 1
 519 430 l 1
 774 430 l 1
 774 335 l 1
 519 335 l 1
 519 98 l 1
 794 98 l 1
 794 0 l 1
 409 0 l 1
 409 183 l 1
 205 183 l 1
 133 0 l 1
 12 0 l 1
 313 730 l 1
 794 730 l 1
 794 632 l 1
244 283 m 1
 409 283 l 1
 409 640 l 1
 384 640 l 1
 244 283 l 1
470 770 m 1
 360 770 l 1
 455 980 l 1
 595 980 l 1
 470 770 l 1
EndSplineSet
EndChar

StartChar: B
Encoding: 66 66 29
Width: 646
Flags: W
LayerCount: 2
Fore
SplineSet
568 328 m 0
 596 297 610 256 610 205 c 0
 610 136 584 85 533 51 c 0
 482 17 404 0 300 0 c 2
 80 0 l 1
 80 730 l 1
 295 730 l 2
 391 730 462 715 510 686 c 0
 556 657 580 612 580 553 c 0
 580 510 568 474 544 446 c 0
 520 417 486 398 443 389 c 1
 443 387 l 1
 498 378 540 359 568 328 c 0
190 632 m 1
 190 430 l 1
 300 430 l 2
 359 430 402 438 429 456 c 0
 456 472 470 499 470 534 c 0
 470 569 457 594 430 609 c 0
 403 624 360 632 300 632 c 2
 190 632 l 1
450 126 m 0
 482 146 498 175 498 216 c 0
 498 257 482 287 450 306 c 0
 418 325 368 335 300 335 c 2
 190 335 l 1
 190 98 l 1
 300 98 l 2
 369 98 419 108 450 126 c 0
EndSplineSet
EndChar

StartChar: C
Encoding: 67 67 30
Width: 691
Flags: W
LayerCount: 2
Fore
SplineSet
208 35 m 0
 154 65 112 108 84 164 c 0
 54 221 40 288 40 365 c 0
 40 442 54 509 84 566 c 0
 112 622 154 665 208 695 c 0
 263 725 328 740 403 740 c 0
 495 740 575 718 643 674 c 1
 597 585 l 1
 538 622 475 640 408 640 c 0
 329 640 266 616 221 566 c 0
 176 518 153 450 153 365 c 0
 153 280 176 212 221 164 c 0
 266 114 329 90 408 90 c 0
 475 90 538 108 597 145 c 1
 643 56 l 1
 575 12 495 -10 403 -10 c 0
 328 -10 263 5 208 35 c 0
EndSplineSet
EndChar

StartChar: Cacute
Encoding: 262 262 31
Width: 691
Flags: W
LayerCount: 2
Fore
SplineSet
208 35 m 0
 154 65 112 108 84 164 c 0
 54 221 40 288 40 365 c 0
 40 442 54 509 84 566 c 0
 112 622 154 665 208 695 c 0
 263 725 328 740 403 740 c 0
 495 740 575 718 643 674 c 1
 597 585 l 1
 538 622 475 640 408 640 c 0
 329 640 266 616 221 566 c 0
 176 518 153 450 153 365 c 0
 153 280 176 212 221 164 c 0
 266 114 329 90 408 90 c 0
 475 90 538 108 597 145 c 1
 643 56 l 1
 575 12 495 -10 403 -10 c 0
 328 -10 263 5 208 35 c 0
390 770 m 1
 280 770 l 1
 375 980 l 1
 515 980 l 1
 390 770 l 1
EndSplineSet
EndChar

StartChar: Ccaron
Encoding: 268 268 32
Width: 691
Flags: W
LayerCount: 2
Fore
SplineSet
208 35 m 0
 154 65 112 108 84 164 c 0
 54 221 40 288 40 365 c 0
 40 442 54 509 84 566 c 0
 112 622 154 665 208 695 c 0
 263 725 328 740 403 740 c 0
 495 740 575 718 643 674 c 1
 597 585 l 1
 538 622 475 640 408 640 c 0
 329 640 266 616 221 566 c 0
 176 518 153 450 153 365 c 0
 153 280 176 212 221 164 c 0
 266 114 329 90 408 90 c 0
 475 90 538 108 597 145 c 1
 643 56 l 1
 575 12 495 -10 403 -10 c 0
 328 -10 263 5 208 35 c 0
159 980 m 1
 289 980 l 1
 379 820 l 1
 381 820 l 1
 471 980 l 1
 601 980 l 1
 476 770 l 1
 283 770 l 1
 159 980 l 1
EndSplineSet
EndChar

StartChar: Ccedilla
Encoding: 199 199 33
Width: 691
Flags: W
LayerCount: 2
Fore
SplineSet
643 56 m 1
 592 23 533 2 466 -6 c 1
 501 -41 518 -76 518 -112 c 0
 518 -145 504 -171 476 -190 c 0
 448 -208 408 -217 357 -217 c 0
 314 -217 276 -210 242 -196 c 1
 259 -111 l 1
 286 -124 316 -130 348 -130 c 0
 370 -130 387 -127 398 -120 c 0
 410 -114 416 -105 416 -93 c 0
 416 -80 410 -66 396 -51 c 0
 384 -36 365 -21 341 -6 c 1
 246 5 172 44 120 108 c 0
 66 174 40 259 40 365 c 0
 40 442 54 509 84 566 c 0
 112 622 154 665 208 695 c 0
 263 725 328 740 403 740 c 0
 495 740 575 718 643 674 c 1
 597 585 l 1
 538 622 475 640 408 640 c 0
 329 640 266 616 221 566 c 0
 176 518 153 450 153 365 c 0
 153 280 176 212 221 164 c 0
 266 114 329 90 408 90 c 0
 475 90 538 108 597 145 c 1
 643 56 l 1
EndSplineSet
EndChar

StartChar: Ccircumflex
Encoding: 264 264 34
Width: 691
Flags: W
LayerCount: 2
Fore
SplineSet
208 35 m 0
 154 65 112 108 84 164 c 0
 54 221 40 288 40 365 c 0
 40 442 54 509 84 566 c 0
 112 622 154 665 208 695 c 0
 263 725 328 740 403 740 c 0
 495 740 575 718 643 674 c 1
 597 585 l 1
 538 622 475 640 408 640 c 0
 329 640 266 616 221 566 c 0
 176 518 153 450 153 365 c 0
 153 280 176 212 221 164 c 0
 266 114 329 90 408 90 c 0
 475 90 538 108 597 145 c 1
 643 56 l 1
 575 12 495 -10 403 -10 c 0
 328 -10 263 5 208 35 c 0
283 980 m 1
 476 980 l 1
 601 770 l 1
 471 770 l 1
 381 930 l 1
 379 930 l 1
 289 770 l 1
 159 770 l 1
 283 980 l 1
EndSplineSet
EndChar

StartChar: Cdotaccent
Encoding: 266 266 35
Width: 691
Flags: W
LayerCount: 2
Fore
SplineSet
208 35 m 0
 154 65 112 108 84 164 c 0
 54 221 40 288 40 365 c 0
 40 442 54 509 84 566 c 0
 112 622 154 665 208 695 c 0
 263 725 328 740 403 740 c 0
 495 740 575 718 643 674 c 1
 597 585 l 1
 538 622 475 640 408 640 c 0
 329 640 266 616 221 566 c 0
 176 518 153 450 153 365 c 0
 153 280 176 212 221 164 c 0
 266 114 329 90 408 90 c 0
 475 90 538 108 597 145 c 1
 643 56 l 1
 575 12 495 -10 403 -10 c 0
 328 -10 263 5 208 35 c 0
317 938 m 1
 443 938 l 1
 443 812 l 1
 317 812 l 1
 317 938 l 1
EndSplineSet
EndChar

StartChar: D
Encoding: 68 68 36
Width: 685
Flags: W
LayerCount: 2
Fore
SplineSet
275 730 m 2
 400 730 493 700 554 640 c 0
 615 581 645 489 645 365 c 0
 645 241 615 149 554 90 c 0
 493 30 400 0 275 0 c 2
 80 0 l 1
 80 730 l 1
 275 730 l 2
474 162 m 0
 513 204 533 272 533 365 c 0
 533 458 513 526 474 568 c 0
 435 609 371 630 282 630 c 2
 190 630 l 1
 190 100 l 1
 282 100 l 2
 371 100 435 121 474 162 c 0
EndSplineSet
EndChar

StartChar: uni01C4
Encoding: 452 452 37
Width: 1283
Flags: W
LayerCount: 2
Fore
SplineSet
275 730 m 2
 400 730 493 700 554 640 c 0
 615 581 645 489 645 365 c 0
 645 241 615 149 554 90 c 0
 493 30 400 0 275 0 c 2
 80 0 l 1
 80 730 l 1
 275 730 l 2
474 162 m 0
 513 204 533 272 533 365 c 0
 533 458 513 526 474 568 c 0
 435 609 371 630 282 630 c 2
 190 630 l 1
 190 100 l 1
 282 100 l 2
 371 100 435 121 474 162 c 0
709 100 m 1
 1084 628 l 1
 1084 630 l 1
 709 630 l 1
 709 730 l 1
 1219 730 l 1
 1219 630 l 1
 844 102 l 1
 844 100 l 1
 1219 100 l 1
 1219 0 l 1
 709 0 l 1
 709 100 l 1
743 980 m 1
 873 980 l 1
 963 820 l 1
 965 820 l 1
 1055 980 l 1
 1185 980 l 1
 1060 770 l 1
 867 770 l 1
 743 980 l 1
EndSplineSet
EndChar

StartChar: Eth
Encoding: 208 208 38
Width: 739
Flags: W
LayerCount: 2
Fore
SplineSet
608 640 m 0
 669 581 699 489 699 365 c 0
 699 241 669 149 608 90 c 0
 547 30 454 0 329 0 c 2
 134 0 l 1
 134 320 l 1
 26 320 l 1
 26 410 l 1
 134 410 l 1
 134 730 l 1
 329 730 l 2
 454 730 547 700 608 640 c 0
528 162 m 0
 567 204 587 272 587 365 c 0
 587 458 567 526 528 568 c 0
 489 609 425 630 336 630 c 2
 244 630 l 1
 244 410 l 1
 444 410 l 1
 444 320 l 1
 244 320 l 1
 244 100 l 1
 336 100 l 2
 425 100 489 121 528 162 c 0
EndSplineSet
EndChar

StartChar: Dcaron
Encoding: 270 270 39
Width: 685
Flags: W
LayerCount: 2
Fore
SplineSet
275 730 m 2
 400 730 493 700 554 640 c 0
 615 581 645 489 645 365 c 0
 645 241 615 149 554 90 c 0
 493 30 400 0 275 0 c 2
 80 0 l 1
 80 730 l 1
 275 730 l 2
474 162 m 0
 513 204 533 272 533 365 c 0
 533 458 513 526 474 568 c 0
 435 609 371 630 282 630 c 2
 190 630 l 1
 190 100 l 1
 282 100 l 2
 371 100 435 121 474 162 c 0
122 980 m 1
 252 980 l 1
 342 820 l 1
 344 820 l 1
 434 980 l 1
 564 980 l 1
 439 770 l 1
 246 770 l 1
 122 980 l 1
EndSplineSet
EndChar

StartChar: Dcroat
Encoding: 272 272 40
Width: 739
Flags: W
LayerCount: 2
Fore
SplineSet
608 640 m 0
 669 581 699 489 699 365 c 0
 699 241 669 149 608 90 c 0
 547 30 454 0 329 0 c 2
 134 0 l 1
 134 320 l 1
 26 320 l 1
 26 410 l 1
 134 410 l 1
 134 730 l 1
 329 730 l 2
 454 730 547 700 608 640 c 0
528 162 m 0
 567 204 587 272 587 365 c 0
 587 458 567 526 528 568 c 0
 489 609 425 630 336 630 c 2
 244 630 l 1
 244 410 l 1
 444 410 l 1
 444 320 l 1
 244 320 l 1
 244 100 l 1
 336 100 l 2
 425 100 489 121 528 162 c 0
EndSplineSet
EndChar

StartChar: uni01C5
Encoding: 453 453 41
Width: 1203
Flags: W
LayerCount: 2
Fore
SplineSet
275 730 m 2
 400 730 493 700 554 640 c 0
 615 581 645 489 645 365 c 0
 645 241 615 149 554 90 c 0
 493 30 400 0 275 0 c 2
 80 0 l 1
 80 730 l 1
 275 730 l 2
474 162 m 0
 513 204 533 272 533 365 c 0
 533 458 513 526 474 568 c 0
 435 609 371 630 282 630 c 2
 190 630 l 1
 190 100 l 1
 282 100 l 2
 371 100 435 121 474 162 c 0
729 90 m 1
 1013 428 l 1
 1013 430 l 1
 729 430 l 1
 729 520 l 1
 1149 520 l 1
 1149 430 l 1
 865 92 l 1
 865 90 l 1
 1149 90 l 1
 1149 0 l 1
 729 0 l 1
 729 90 l 1
718 770 m 1
 848 770 l 1
 938 610 l 1
 940 610 l 1
 1030 770 l 1
 1160 770 l 1
 1035 560 l 1
 842 560 l 1
 718 770 l 1
EndSplineSet
EndChar

StartChar: E
Encoding: 69 69 42
Width: 599
Flags: W
LayerCount: 2
Fore
SplineSet
80 730 m 1
 535 730 l 1
 535 632 l 1
 190 632 l 1
 190 430 l 1
 515 430 l 1
 515 335 l 1
 190 335 l 1
 190 98 l 1
 535 98 l 1
 535 0 l 1
 80 0 l 1
 80 730 l 1
EndSplineSet
EndChar

StartChar: Eacute
Encoding: 201 201 43
Width: 599
Flags: W
LayerCount: 2
Fore
SplineSet
80 730 m 1
 535 730 l 1
 535 632 l 1
 190 632 l 1
 190 430 l 1
 515 430 l 1
 515 335 l 1
 190 335 l 1
 190 98 l 1
 535 98 l 1
 535 0 l 1
 80 0 l 1
 80 730 l 1
320 770 m 1
 210 770 l 1
 305 980 l 1
 445 980 l 1
 320 770 l 1
EndSplineSet
EndChar

StartChar: Ebreve
Encoding: 276 276 44
Width: 599
Flags: W
LayerCount: 2
Fore
SplineSet
80 730 m 1
 535 730 l 1
 535 632 l 1
 190 632 l 1
 190 430 l 1
 515 430 l 1
 515 335 l 1
 190 335 l 1
 190 98 l 1
 535 98 l 1
 535 0 l 1
 80 0 l 1
 80 730 l 1
208 804 m 0
 177 819 153 839 135 865 c 0
 117 891 107 920 105 953 c 1
 222 953 l 1
 225 926 234 905 250 890 c 0
 264 876 285 869 310 869 c 0
 335 869 356 876 370 890 c 0
 386 905 395 926 398 953 c 1
 515 953 l 1
 513 920 503 891 485 865 c 0
 467 839 443 819 412 804 c 0
 382 790 348 783 310 783 c 0
 272 783 238 790 208 804 c 0
EndSplineSet
EndChar

StartChar: Ecaron
Encoding: 282 282 45
Width: 599
Flags: W
LayerCount: 2
Fore
SplineSet
80 730 m 1
 535 730 l 1
 535 632 l 1
 190 632 l 1
 190 430 l 1
 515 430 l 1
 515 335 l 1
 190 335 l 1
 190 98 l 1
 535 98 l 1
 535 0 l 1
 80 0 l 1
 80 730 l 1
89 980 m 1
 219 980 l 1
 309 820 l 1
 311 820 l 1
 401 980 l 1
 531 980 l 1
 406 770 l 1
 213 770 l 1
 89 980 l 1
EndSplineSet
EndChar

StartChar: Ecircumflex
Encoding: 202 202 46
Width: 599
Flags: W
LayerCount: 2
Fore
SplineSet
80 730 m 1
 535 730 l 1
 535 632 l 1
 190 632 l 1
 190 430 l 1
 515 430 l 1
 515 335 l 1
 190 335 l 1
 190 98 l 1
 535 98 l 1
 535 0 l 1
 80 0 l 1
 80 730 l 1
213 980 m 1
 406 980 l 1
 531 770 l 1
 401 770 l 1
 311 930 l 1
 309 930 l 1
 219 770 l 1
 89 770 l 1
 213 980 l 1
EndSplineSet
EndChar

StartChar: uni1EBE
Encoding: 7870 7870 47
Width: 599
Flags: W
LayerCount: 2
Fore
SplineSet
309 930 m 1
 219 770 l 1
 89 770 l 1
 213 980 l 1
 403 980 l 1
 484 1160 l 1
 624 1160 l 1
 499 950 l 1
 424 950 l 1
 531 770 l 1
 401 770 l 1
 311 930 l 1
 309 930 l 1
80 0 m 1
 80 730 l 1
 535 730 l 1
 535 632 l 1
 190 632 l 1
 190 430 l 1
 515 430 l 1
 515 335 l 1
 190 335 l 1
 190 98 l 1
 535 98 l 1
 535 0 l 1
 80 0 l 1
EndSplineSet
EndChar

StartChar: uni1EC6
Encoding: 7878 7878 48
Width: 599
Flags: W
LayerCount: 2
Fore
SplineSet
80 730 m 1
 535 730 l 1
 535 632 l 1
 190 632 l 1
 190 430 l 1
 515 430 l 1
 515 335 l 1
 190 335 l 1
 190 98 l 1
 535 98 l 1
 535 0 l 1
 80 0 l 1
 80 730 l 1
247 -82 m 1
 373 -82 l 1
 373 -208 l 1
 247 -208 l 1
 247 -82 l 1
213 980 m 1
 406 980 l 1
 531 770 l 1
 401 770 l 1
 311 930 l 1
 309 930 l 1
 219 770 l 1
 89 770 l 1
 213 980 l 1
EndSplineSet
EndChar

StartChar: uni1EC0
Encoding: 7872 7872 49
Width: 599
Flags: W
LayerCount: 2
Fore
SplineSet
195 950 m 1
 121 950 l 1
 -4 1160 l 1
 136 1160 l 1
 217 980 l 1
 406 980 l 1
 531 770 l 1
 401 770 l 1
 311 930 l 1
 309 930 l 1
 219 770 l 1
 89 770 l 1
 195 950 l 1
535 632 m 1
 190 632 l 1
 190 430 l 1
 515 430 l 1
 515 335 l 1
 190 335 l 1
 190 98 l 1
 535 98 l 1
 535 0 l 1
 80 0 l 1
 80 730 l 1
 535 730 l 1
 535 632 l 1
EndSplineSet
EndChar

StartChar: uni1EC2
Encoding: 7874 7874 50
Width: 599
Flags: W
LayerCount: 2
Fore
SplineSet
398 980 m 1
 401 997 402 1009 402 1014 c 0
 402 1029 397 1038 388 1044 c 0
 378 1048 360 1051 334 1051 c 0
 291 1051 250 1045 210 1033 c 1
 200 1120 l 1
 250 1132 303 1138 360 1138 c 0
 401 1138 433 1136 456 1130 c 0
 479 1126 495 1117 504 1106 c 0
 514 1094 519 1077 519 1055 c 0
 519 1039 517 1021 514 1001 c 0
 510 981 505 963 499 948 c 1
 425 948 l 1
 531 770 l 1
 401 770 l 1
 311 930 l 1
 309 930 l 1
 219 770 l 1
 89 770 l 1
 213 980 l 1
 398 980 l 1
535 632 m 1
 190 632 l 1
 190 430 l 1
 515 430 l 1
 515 335 l 1
 190 335 l 1
 190 98 l 1
 535 98 l 1
 535 0 l 1
 80 0 l 1
 80 730 l 1
 535 730 l 1
 535 632 l 1
EndSplineSet
EndChar

StartChar: uni1EC4
Encoding: 7876 7876 51
Width: 599
Flags: W
LayerCount: 2
Fore
SplineSet
80 730 m 1
 535 730 l 1
 535 632 l 1
 190 632 l 1
 190 430 l 1
 515 430 l 1
 515 335 l 1
 190 335 l 1
 190 98 l 1
 535 98 l 1
 535 0 l 1
 80 0 l 1
 80 730 l 1
213 980 m 1
 406 980 l 1
 531 770 l 1
 401 770 l 1
 311 930 l 1
 309 930 l 1
 219 770 l 1
 89 770 l 1
 213 980 l 1
370 1006 m 0
 352 1013 329 1024 302 1039 c 0
 271 1058 248 1067 234 1067 c 0
 224 1067 217 1062 212 1054 c 0
 207 1044 205 1029 205 1007 c 1
 105 1007 l 1
 105 1064 113 1106 128 1133 c 0
 144 1160 168 1173 201 1173 c 0
 217 1173 234 1170 252 1164 c 0
 270 1157 292 1146 318 1131 c 0
 349 1112 372 1103 386 1103 c 0
 396 1103 403 1108 408 1117 c 0
 413 1126 415 1142 415 1163 c 1
 515 1163 l 1
 515 1106 507 1064 492 1037 c 0
 476 1010 452 997 419 997 c 0
 404 997 387 1000 370 1006 c 0
EndSplineSet
EndChar

StartChar: uni0204
Encoding: 516 516 52
Width: 599
Flags: W
LayerCount: 2
Fore
SplineSet
80 730 m 1
 535 730 l 1
 535 632 l 1
 190 632 l 1
 190 430 l 1
 515 430 l 1
 515 335 l 1
 190 335 l 1
 190 98 l 1
 535 98 l 1
 535 0 l 1
 80 0 l 1
 80 730 l 1
64 980 m 1
 204 980 l 1
 299 770 l 1
 189 770 l 1
 64 980 l 1
289 980 m 1
 429 980 l 1
 524 770 l 1
 414 770 l 1
 289 980 l 1
EndSplineSet
EndChar

StartChar: Edieresis
Encoding: 203 203 53
Width: 599
Flags: W
LayerCount: 2
Fore
SplineSet
80 730 m 1
 535 730 l 1
 535 632 l 1
 190 632 l 1
 190 430 l 1
 515 430 l 1
 515 335 l 1
 190 335 l 1
 190 98 l 1
 535 98 l 1
 535 0 l 1
 80 0 l 1
 80 730 l 1
120 938 m 1
 246 938 l 1
 246 812 l 1
 120 812 l 1
 120 938 l 1
374 938 m 1
 500 938 l 1
 500 812 l 1
 374 812 l 1
 374 938 l 1
EndSplineSet
EndChar

StartChar: Edotaccent
Encoding: 278 278 54
Width: 599
Flags: W
LayerCount: 2
Fore
SplineSet
80 730 m 1
 535 730 l 1
 535 632 l 1
 190 632 l 1
 190 430 l 1
 515 430 l 1
 515 335 l 1
 190 335 l 1
 190 98 l 1
 535 98 l 1
 535 0 l 1
 80 0 l 1
 80 730 l 1
247 938 m 1
 373 938 l 1
 373 812 l 1
 247 812 l 1
 247 938 l 1
EndSplineSet
EndChar

StartChar: uni1EB8
Encoding: 7864 7864 55
Width: 599
Flags: W
LayerCount: 2
Fore
SplineSet
80 730 m 1
 535 730 l 1
 535 632 l 1
 190 632 l 1
 190 430 l 1
 515 430 l 1
 515 335 l 1
 190 335 l 1
 190 98 l 1
 535 98 l 1
 535 0 l 1
 80 0 l 1
 80 730 l 1
247 -82 m 1
 373 -82 l 1
 373 -208 l 1
 247 -208 l 1
 247 -82 l 1
EndSplineSet
EndChar

StartChar: Egrave
Encoding: 200 200 56
Width: 599
Flags: W
LayerCount: 2
Fore
SplineSet
80 730 m 1
 535 730 l 1
 535 632 l 1
 190 632 l 1
 190 430 l 1
 515 430 l 1
 515 335 l 1
 190 335 l 1
 190 98 l 1
 535 98 l 1
 535 0 l 1
 80 0 l 1
 80 730 l 1
175 980 m 1
 315 980 l 1
 410 770 l 1
 300 770 l 1
 175 980 l 1
EndSplineSet
EndChar

StartChar: uni1EBA
Encoding: 7866 7866 57
Width: 599
Flags: W
LayerCount: 2
Fore
SplineSet
80 730 m 1
 535 730 l 1
 535 632 l 1
 190 632 l 1
 190 430 l 1
 515 430 l 1
 515 335 l 1
 190 335 l 1
 190 98 l 1
 535 98 l 1
 535 0 l 1
 80 0 l 1
 80 730 l 1
349 826 m 0
 352 840 353 850 353 859 c 0
 353 874 348 884 338 888 c 0
 329 894 311 896 285 896 c 0
 242 896 201 890 161 878 c 1
 151 965 l 1
 201 977 254 983 311 983 c 0
 352 983 384 980 407 976 c 0
 430 970 446 962 456 950 c 0
 465 939 470 922 470 900 c 0
 470 884 468 866 464 846 c 0
 461 826 456 808 450 793 c 1
 340 793 l 1
 343 802 346 814 349 826 c 0
EndSplineSet
EndChar

StartChar: uni0206
Encoding: 518 518 58
Width: 599
Flags: W
LayerCount: 2
Fore
SplineSet
80 730 m 1
 535 730 l 1
 535 632 l 1
 190 632 l 1
 190 430 l 1
 515 430 l 1
 515 335 l 1
 190 335 l 1
 190 98 l 1
 535 98 l 1
 535 0 l 1
 80 0 l 1
 80 730 l 1
412 946 m 0
 443 931 467 911 485 885 c 0
 503 859 513 830 515 797 c 1
 398 797 l 1
 395 824 386 845 370 860 c 0
 356 874 335 881 310 881 c 0
 285 881 264 874 250 860 c 0
 234 845 225 824 222 797 c 1
 105 797 l 1
 107 830 117 859 135 885 c 0
 153 911 177 931 208 946 c 0
 238 960 272 967 310 967 c 0
 348 967 382 960 412 946 c 0
EndSplineSet
EndChar

StartChar: Emacron
Encoding: 274 274 59
Width: 599
Flags: W
LayerCount: 2
Fore
SplineSet
80 730 m 1
 535 730 l 1
 535 632 l 1
 190 632 l 1
 190 430 l 1
 515 430 l 1
 515 335 l 1
 190 335 l 1
 190 98 l 1
 535 98 l 1
 535 0 l 1
 80 0 l 1
 80 730 l 1
121 918 m 1
 499 918 l 1
 499 832 l 1
 121 832 l 1
 121 918 l 1
EndSplineSet
EndChar

StartChar: Eogonek
Encoding: 280 280 60
Width: 599
Flags: W
LayerCount: 2
Fore
SplineSet
624 -196 m 1
 590 -210 552 -217 509 -217 c 0
 458 -217 418 -208 390 -190 c 0
 362 -171 348 -145 348 -112 c 0
 348 -73 368 -35 407 0 c 1
 80 0 l 1
 80 730 l 1
 535 730 l 1
 535 632 l 1
 190 632 l 1
 190 430 l 1
 515 430 l 1
 515 335 l 1
 190 335 l 1
 190 98 l 1
 535 98 l 1
 535 0 l 1
 508 -16 488 -32 472 -48 c 0
 458 -65 450 -80 450 -93 c 0
 450 -105 456 -114 468 -120 c 0
 479 -127 496 -130 518 -130 c 0
 550 -130 580 -124 607 -111 c 1
 624 -196 l 1
EndSplineSet
EndChar

StartChar: uni1EBC
Encoding: 7868 7868 61
Width: 599
Flags: W
LayerCount: 2
Fore
SplineSet
80 730 m 1
 535 730 l 1
 535 632 l 1
 190 632 l 1
 190 430 l 1
 515 430 l 1
 515 335 l 1
 190 335 l 1
 190 98 l 1
 535 98 l 1
 535 0 l 1
 80 0 l 1
 80 730 l 1
370 796 m 0
 352 803 329 814 302 829 c 0
 271 848 248 857 234 857 c 0
 224 857 217 852 212 844 c 0
 207 834 205 819 205 797 c 1
 105 797 l 1
 105 854 113 896 128 923 c 0
 144 950 168 963 201 963 c 0
 217 963 234 960 252 954 c 0
 270 947 292 936 318 921 c 0
 349 902 372 893 386 893 c 0
 396 893 403 898 408 907 c 0
 413 916 415 932 415 953 c 1
 515 953 l 1
 515 896 507 854 492 827 c 0
 476 800 452 787 419 787 c 0
 404 787 387 790 370 796 c 0
EndSplineSet
EndChar

StartChar: F
Encoding: 70 70 62
Width: 587
Flags: W
LayerCount: 2
Fore
SplineSet
80 730 m 1
 535 730 l 1
 535 630 l 1
 190 630 l 1
 190 415 l 1
 515 415 l 1
 515 317 l 1
 190 317 l 1
 190 0 l 1
 80 0 l 1
 80 730 l 1
EndSplineSet
EndChar

StartChar: G
Encoding: 71 71 63
Width: 773
Flags: W
LayerCount: 2
Fore
SplineSet
705 427 m 1
 705 47 l 1
 668 29 626 15 578 5 c 0
 530 -5 481 -10 432 -10 c 0
 351 -10 281 5 222 34 c 0
 163 64 118 107 87 164 c 0
 56 220 40 287 40 365 c 0
 40 443 56 510 87 566 c 0
 118 623 163 666 222 696 c 0
 281 725 351 740 432 740 c 0
 531 740 613 719 679 677 c 1
 635 591 l 1
 574 625 507 642 432 642 c 0
 343 642 274 618 226 570 c 0
 177 522 153 454 153 365 c 0
 153 276 177 208 226 160 c 0
 274 112 343 88 432 88 c 0
 492 88 546 97 595 116 c 1
 595 332 l 1
 365 332 l 1
 365 427 l 1
 705 427 l 1
EndSplineSet
EndChar

StartChar: Gbreve
Encoding: 286 286 64
Width: 773
Flags: W
LayerCount: 2
Fore
SplineSet
705 427 m 1
 705 47 l 1
 668 29 626 15 578 5 c 0
 530 -5 481 -10 432 -10 c 0
 351 -10 281 5 222 34 c 0
 163 64 118 107 87 164 c 0
 56 220 40 287 40 365 c 0
 40 443 56 510 87 566 c 0
 118 623 163 666 222 696 c 0
 281 725 351 740 432 740 c 0
 531 740 613 719 679 677 c 1
 635 591 l 1
 574 625 507 642 432 642 c 0
 343 642 274 618 226 570 c 0
 177 522 153 454 153 365 c 0
 153 276 177 208 226 160 c 0
 274 112 343 88 432 88 c 0
 492 88 546 97 595 116 c 1
 595 332 l 1
 365 332 l 1
 365 427 l 1
 705 427 l 1
302 804 m 0
 272 819 248 839 230 865 c 0
 212 891 202 920 200 953 c 1
 317 953 l 1
 320 926 330 905 344 890 c 0
 360 876 380 869 405 869 c 0
 430 869 450 876 466 890 c 0
 480 905 490 926 493 953 c 1
 610 953 l 1
 608 920 598 891 580 865 c 0
 562 839 538 819 508 804 c 0
 477 790 443 783 405 783 c 0
 367 783 333 790 302 804 c 0
EndSplineSet
EndChar

StartChar: Gcaron
Encoding: 486 486 65
Width: 773
Flags: W
LayerCount: 2
Fore
SplineSet
705 427 m 1
 705 47 l 1
 668 29 626 15 578 5 c 0
 530 -5 481 -10 432 -10 c 0
 351 -10 281 5 222 34 c 0
 163 64 118 107 87 164 c 0
 56 220 40 287 40 365 c 0
 40 443 56 510 87 566 c 0
 118 623 163 666 222 696 c 0
 281 725 351 740 432 740 c 0
 531 740 613 719 679 677 c 1
 635 591 l 1
 574 625 507 642 432 642 c 0
 343 642 274 618 226 570 c 0
 177 522 153 454 153 365 c 0
 153 276 177 208 226 160 c 0
 274 112 343 88 432 88 c 0
 492 88 546 97 595 116 c 1
 595 332 l 1
 365 332 l 1
 365 427 l 1
 705 427 l 1
184 980 m 1
 314 980 l 1
 404 820 l 1
 406 820 l 1
 496 980 l 1
 626 980 l 1
 501 770 l 1
 308 770 l 1
 184 980 l 1
EndSplineSet
EndChar

StartChar: Gcircumflex
Encoding: 284 284 66
Width: 773
Flags: W
LayerCount: 2
Fore
SplineSet
705 427 m 1
 705 47 l 1
 668 29 626 15 578 5 c 0
 530 -5 481 -10 432 -10 c 0
 351 -10 281 5 222 34 c 0
 163 64 118 107 87 164 c 0
 56 220 40 287 40 365 c 0
 40 443 56 510 87 566 c 0
 118 623 163 666 222 696 c 0
 281 725 351 740 432 740 c 0
 531 740 613 719 679 677 c 1
 635 591 l 1
 574 625 507 642 432 642 c 0
 343 642 274 618 226 570 c 0
 177 522 153 454 153 365 c 0
 153 276 177 208 226 160 c 0
 274 112 343 88 432 88 c 0
 492 88 546 97 595 116 c 1
 595 332 l 1
 365 332 l 1
 365 427 l 1
 705 427 l 1
308 980 m 1
 501 980 l 1
 626 770 l 1
 496 770 l 1
 406 930 l 1
 404 930 l 1
 314 770 l 1
 184 770 l 1
 308 980 l 1
EndSplineSet
EndChar

StartChar: uni0122
Encoding: 290 290 67
Width: 773
Flags: W
LayerCount: 2
Fore
SplineSet
705 427 m 1
 705 47 l 1
 668 29 626 15 578 5 c 0
 530 -5 481 -10 432 -10 c 0
 351 -10 281 5 222 34 c 0
 163 64 118 107 87 164 c 0
 56 220 40 287 40 365 c 0
 40 443 56 510 87 566 c 0
 118 623 163 666 222 696 c 0
 281 725 351 740 432 740 c 0
 531 740 613 719 679 677 c 1
 635 591 l 1
 574 625 507 642 432 642 c 0
 343 642 274 618 226 570 c 0
 177 522 153 454 153 365 c 0
 153 276 177 208 226 160 c 0
 274 112 343 88 432 88 c 0
 492 88 546 97 595 116 c 1
 595 332 l 1
 365 332 l 1
 365 427 l 1
 705 427 l 1
397 -250 m 1
 287 -250 l 1
 382 -40 l 1
 522 -40 l 1
 397 -250 l 1
EndSplineSet
EndChar

StartChar: Gdotaccent
Encoding: 288 288 68
Width: 773
Flags: W
LayerCount: 2
Fore
SplineSet
705 427 m 1
 705 47 l 1
 668 29 626 15 578 5 c 0
 530 -5 481 -10 432 -10 c 0
 351 -10 281 5 222 34 c 0
 163 64 118 107 87 164 c 0
 56 220 40 287 40 365 c 0
 40 443 56 510 87 566 c 0
 118 623 163 666 222 696 c 0
 281 725 351 740 432 740 c 0
 531 740 613 719 679 677 c 1
 635 591 l 1
 574 625 507 642 432 642 c 0
 343 642 274 618 226 570 c 0
 177 522 153 454 153 365 c 0
 153 276 177 208 226 160 c 0
 274 112 343 88 432 88 c 0
 492 88 546 97 595 116 c 1
 595 332 l 1
 365 332 l 1
 365 427 l 1
 705 427 l 1
342 938 m 1
 468 938 l 1
 468 812 l 1
 342 812 l 1
 342 938 l 1
EndSplineSet
EndChar

StartChar: H
Encoding: 72 72 69
Width: 715
Flags: W
LayerCount: 2
Fore
SplineSet
525 730 m 1
 635 730 l 1
 635 0 l 1
 525 0 l 1
 525 335 l 1
 190 335 l 1
 190 0 l 1
 80 0 l 1
 80 730 l 1
 190 730 l 1
 190 435 l 1
 525 435 l 1
 525 730 l 1
EndSplineSet
EndChar

StartChar: Hbar
Encoding: 294 294 70
Width: 796
Flags: W
LayerCount: 2
Fore
SplineSet
768 641 m 1
 768 551 l 1
 675 551 l 1
 675 0 l 1
 565 0 l 1
 565 335 l 1
 230 335 l 1
 230 0 l 1
 120 0 l 1
 120 551 l 1
 28 551 l 1
 28 641 l 1
 120 641 l 1
 120 730 l 1
 230 730 l 1
 230 641 l 1
 565 641 l 1
 565 730 l 1
 675 730 l 1
 675 641 l 1
 768 641 l 1
565 435 m 1
 565 551 l 1
 230 551 l 1
 230 435 l 1
 565 435 l 1
EndSplineSet
EndChar

StartChar: Hcircumflex
Encoding: 292 292 71
Width: 715
Flags: W
LayerCount: 2
Fore
SplineSet
525 730 m 1
 635 730 l 1
 635 0 l 1
 525 0 l 1
 525 335 l 1
 190 335 l 1
 190 0 l 1
 80 0 l 1
 80 730 l 1
 190 730 l 1
 190 435 l 1
 525 435 l 1
 525 730 l 1
261 980 m 1
 454 980 l 1
 579 770 l 1
 449 770 l 1
 359 930 l 1
 357 930 l 1
 267 770 l 1
 137 770 l 1
 261 980 l 1
EndSplineSet
EndChar

StartChar: I
Encoding: 73 73 72
Width: 290
Flags: W
LayerCount: 2
Fore
SplineSet
88 730 m 1
 202 730 l 1
 202 0 l 1
 88 0 l 1
 88 730 l 1
EndSplineSet
EndChar

StartChar: Iacute
Encoding: 205 205 73
Width: 290
Flags: W
LayerCount: 2
Fore
SplineSet
88 730 m 1
 202 730 l 1
 202 0 l 1
 88 0 l 1
 88 730 l 1
155 770 m 1
 45 770 l 1
 140 980 l 1
 280 980 l 1
 155 770 l 1
EndSplineSet
EndChar

StartChar: Ibreve
Encoding: 300 300 74
Width: 290
Flags: W
LayerCount: 2
Fore
SplineSet
88 730 m 1
 202 730 l 1
 202 0 l 1
 88 0 l 1
 88 730 l 1
42 804 m 0
 12 819 -12 839 -30 865 c 0
 -48 891 -58 920 -60 953 c 1
 57 953 l 1
 60 926 70 905 84 890 c 0
 100 876 120 869 145 869 c 0
 170 869 190 876 206 890 c 0
 220 905 230 926 233 953 c 1
 350 953 l 1
 348 920 338 891 320 865 c 0
 302 839 278 819 248 804 c 0
 217 790 183 783 145 783 c 0
 107 783 73 790 42 804 c 0
EndSplineSet
EndChar

StartChar: Icircumflex
Encoding: 206 206 75
Width: 290
Flags: W
LayerCount: 2
Fore
SplineSet
88 730 m 1
 202 730 l 1
 202 0 l 1
 88 0 l 1
 88 730 l 1
48 980 m 1
 241 980 l 1
 366 770 l 1
 236 770 l 1
 146 930 l 1
 144 930 l 1
 54 770 l 1
 -76 770 l 1
 48 980 l 1
EndSplineSet
EndChar

StartChar: uni0208
Encoding: 520 520 76
Width: 290
Flags: W
LayerCount: 2
Fore
SplineSet
88 730 m 1
 202 730 l 1
 202 0 l 1
 88 0 l 1
 88 730 l 1
-101 980 m 1
 39 980 l 1
 134 770 l 1
 24 770 l 1
 -101 980 l 1
124 980 m 1
 264 980 l 1
 359 770 l 1
 249 770 l 1
 124 980 l 1
EndSplineSet
EndChar

StartChar: Idieresis
Encoding: 207 207 77
Width: 290
Flags: W
LayerCount: 2
Fore
SplineSet
88 730 m 1
 202 730 l 1
 202 0 l 1
 88 0 l 1
 88 730 l 1
-45 938 m 1
 81 938 l 1
 81 812 l 1
 -45 812 l 1
 -45 938 l 1
209 938 m 1
 335 938 l 1
 335 812 l 1
 209 812 l 1
 209 938 l 1
EndSplineSet
EndChar

StartChar: Idotaccent
Encoding: 304 304 78
Width: 290
Flags: W
LayerCount: 2
Fore
SplineSet
88 730 m 1
 202 730 l 1
 202 0 l 1
 88 0 l 1
 88 730 l 1
82 938 m 1
 208 938 l 1
 208 812 l 1
 82 812 l 1
 82 938 l 1
EndSplineSet
EndChar

StartChar: uni1ECA
Encoding: 7882 7882 79
Width: 290
Flags: W
LayerCount: 2
Fore
SplineSet
88 730 m 1
 202 730 l 1
 202 0 l 1
 88 0 l 1
 88 730 l 1
82 -82 m 1
 208 -82 l 1
 208 -208 l 1
 82 -208 l 1
 82 -82 l 1
EndSplineSet
EndChar

StartChar: Igrave
Encoding: 204 204 80
Width: 290
Flags: W
LayerCount: 2
Fore
SplineSet
88 730 m 1
 202 730 l 1
 202 0 l 1
 88 0 l 1
 88 730 l 1
10 980 m 1
 150 980 l 1
 245 770 l 1
 135 770 l 1
 10 980 l 1
EndSplineSet
EndChar

StartChar: uni1EC8
Encoding: 7880 7880 81
Width: 290
Flags: W
LayerCount: 2
Fore
SplineSet
88 730 m 1
 202 730 l 1
 202 0 l 1
 88 0 l 1
 88 730 l 1
183 826 m 0
 186 840 187 850 187 859 c 0
 187 874 182 884 172 888 c 0
 163 894 145 896 119 896 c 0
 76 896 35 890 -5 878 c 1
 -15 965 l 1
 35 977 88 983 145 983 c 0
 186 983 218 980 241 976 c 0
 264 970 280 962 290 950 c 0
 299 939 304 922 304 900 c 0
 304 884 302 866 298 846 c 0
 295 826 290 808 284 793 c 1
 174 793 l 1
 177 802 180 814 183 826 c 0
EndSplineSet
EndChar

StartChar: uni020A
Encoding: 522 522 82
Width: 290
Flags: W
LayerCount: 2
Fore
SplineSet
88 730 m 1
 202 730 l 1
 202 0 l 1
 88 0 l 1
 88 730 l 1
248 946 m 0
 278 931 302 911 320 885 c 0
 338 859 348 830 350 797 c 1
 233 797 l 1
 230 824 220 845 206 860 c 0
 190 874 170 881 145 881 c 0
 120 881 100 874 84 860 c 0
 70 845 60 824 57 797 c 1
 -60 797 l 1
 -58 830 -48 859 -30 885 c 0
 -12 911 12 931 42 946 c 0
 73 960 107 967 145 967 c 0
 183 967 217 960 248 946 c 0
EndSplineSet
EndChar

StartChar: Imacron
Encoding: 298 298 83
Width: 290
Flags: W
LayerCount: 2
Fore
SplineSet
88 730 m 1
 202 730 l 1
 202 0 l 1
 88 0 l 1
 88 730 l 1
-44 918 m 1
 334 918 l 1
 334 832 l 1
 -44 832 l 1
 -44 918 l 1
EndSplineSet
EndChar

StartChar: Iogonek
Encoding: 302 302 84
Width: 290
Flags: W
LayerCount: 2
Fore
SplineSet
291 -196 m 1
 257 -210 219 -217 176 -217 c 0
 125 -217 85 -208 57 -190 c 0
 29 -171 15 -145 15 -112 c 0
 15 -69 39 -27 88 12 c 1
 88 730 l 1
 202 730 l 1
 202 0 l 1
 175 -16 154 -32 140 -48 c 0
 124 -65 117 -80 117 -93 c 0
 117 -105 123 -114 134 -120 c 0
 146 -127 163 -130 185 -130 c 0
 217 -130 247 -124 274 -111 c 1
 291 -196 l 1
EndSplineSet
EndChar

StartChar: Itilde
Encoding: 296 296 85
Width: 290
Flags: W
LayerCount: 2
Fore
SplineSet
88 730 m 1
 202 730 l 1
 202 0 l 1
 88 0 l 1
 88 730 l 1
204 796 m 0
 187 803 164 814 137 829 c 0
 106 848 83 857 69 857 c 0
 59 857 52 852 47 844 c 0
 42 834 40 819 40 797 c 1
 -60 797 l 1
 -60 854 -52 896 -36 923 c 0
 -21 950 3 963 36 963 c 0
 52 963 69 960 87 954 c 0
 105 947 127 936 153 921 c 0
 184 902 207 893 221 893 c 0
 231 893 238 898 243 907 c 0
 248 916 250 932 250 953 c 1
 350 953 l 1
 350 896 342 854 326 827 c 0
 311 800 287 787 254 787 c 0
 239 787 222 790 204 796 c 0
EndSplineSet
EndChar

StartChar: J
Encoding: 74 74 86
Width: 567
Flags: W
LayerCount: 2
Fore
SplineSet
8 45 m 1
 46 138 l 1
 105 106 163 90 222 90 c 0
 277 90 317 106 343 136 c 0
 369 168 382 215 382 280 c 2
 382 730 l 1
 495 730 l 1
 495 280 l 2
 495 181 474 108 431 60 c 0
 388 14 322 -10 232 -10 c 0
 148 -10 73 8 8 45 c 1
EndSplineSet
EndChar

StartChar: Jcircumflex
Encoding: 308 308 87
Width: 567
Flags: W
LayerCount: 2
Fore
SplineSet
8 45 m 1
 46 138 l 1
 105 106 163 90 222 90 c 0
 277 90 317 106 343 136 c 0
 369 168 382 215 382 280 c 2
 382 730 l 1
 495 730 l 1
 495 280 l 2
 495 181 474 108 431 60 c 0
 388 14 322 -10 232 -10 c 0
 148 -10 73 8 8 45 c 1
187 980 m 1
 380 980 l 1
 505 770 l 1
 375 770 l 1
 285 930 l 1
 283 930 l 1
 193 770 l 1
 63 770 l 1
 187 980 l 1
EndSplineSet
EndChar

StartChar: K
Encoding: 75 75 88
Width: 655
Flags: W
LayerCount: 2
Fore
SplineSet
80 730 m 1
 190 730 l 1
 190 421 l 1
 192 421 l 1
 489 730 l 1
 625 730 l 1
 293 385 l 1
 635 0 l 1
 499 0 l 1
 192 350 l 1
 190 350 l 1
 190 0 l 1
 80 0 l 1
 80 730 l 1
EndSplineSet
EndChar

StartChar: uni0136
Encoding: 310 310 89
Width: 655
Flags: W
LayerCount: 2
Fore
SplineSet
80 730 m 1
 190 730 l 1
 190 421 l 1
 192 421 l 1
 489 730 l 1
 625 730 l 1
 293 385 l 1
 635 0 l 1
 499 0 l 1
 192 350 l 1
 190 350 l 1
 190 0 l 1
 80 0 l 1
 80 730 l 1
302 -250 m 1
 192 -250 l 1
 287 -40 l 1
 427 -40 l 1
 302 -250 l 1
EndSplineSet
EndChar

StartChar: L
Encoding: 76 76 90
Width: 586
Flags: W
LayerCount: 2
Fore
SplineSet
80 730 m 1
 193 730 l 1
 193 100 l 1
 550 100 l 1
 550 0 l 1
 80 0 l 1
 80 730 l 1
EndSplineSet
EndChar

StartChar: uni01C7
Encoding: 455 455 91
Width: 1173
Flags: W
LayerCount: 2
Fore
SplineSet
80 730 m 1
 193 730 l 1
 193 100 l 1
 550 100 l 1
 550 0 l 1
 80 0 l 1
 80 730 l 1
614 45 m 1
 652 138 l 1
 711 106 769 90 828 90 c 0
 883 90 923 106 949 136 c 0
 975 168 988 215 988 280 c 2
 988 730 l 1
 1101 730 l 1
 1101 280 l 2
 1101 181 1080 108 1037 60 c 0
 994 14 928 -10 838 -10 c 0
 754 -10 679 8 614 45 c 1
EndSplineSet
EndChar

StartChar: Lacute
Encoding: 313 313 92
Width: 586
Flags: W
LayerCount: 2
Fore
SplineSet
80 730 m 1
 193 730 l 1
 193 100 l 1
 550 100 l 1
 550 0 l 1
 80 0 l 1
 80 730 l 1
303 770 m 1
 193 770 l 1
 288 980 l 1
 428 980 l 1
 303 770 l 1
EndSplineSet
EndChar

StartChar: Lcaron
Encoding: 317 317 93
Width: 615
Flags: W
LayerCount: 2
Fore
SplineSet
80 730 m 1
 193 730 l 1
 193 100 l 1
 550 100 l 1
 550 0 l 1
 80 0 l 1
 80 730 l 1
455 770 m 1
 585 770 l 1
 470 470 l 1
 370 470 l 1
 455 770 l 1
EndSplineSet
EndChar

StartChar: uni013B
Encoding: 315 315 94
Width: 586
Flags: W
LayerCount: 2
Fore
SplineSet
80 730 m 1
 193 730 l 1
 193 100 l 1
 550 100 l 1
 550 0 l 1
 80 0 l 1
 80 730 l 1
285 -250 m 1
 175 -250 l 1
 270 -40 l 1
 410 -40 l 1
 285 -250 l 1
EndSplineSet
EndChar

StartChar: Ldot
Encoding: 319 319 95
Width: 621
Flags: W
LayerCount: 2
Fore
SplineSet
80 730 m 1
 193 730 l 1
 193 100 l 1
 550 100 l 1
 550 0 l 1
 80 0 l 1
 80 730 l 1
400 440 m 1
 530 440 l 1
 530 310 l 1
 400 310 l 1
 400 440 l 1
EndSplineSet
EndChar

StartChar: uni01C8
Encoding: 456 456 96
Width: 912
Flags: W
LayerCount: 2
Fore
SplineSet
80 730 m 1
 193 730 l 1
 193 100 l 1
 550 100 l 1
 550 0 l 1
 80 0 l 1
 80 730 l 1
723 740 m 1
 833 740 l 1
 833 630 l 1
 723 630 l 1
 723 740 l 1
652 -128 m 0
 679 -120 698 -105 708 -84 c 0
 718 -62 723 -27 723 20 c 2
 723 520 l 1
 833 520 l 1
 833 20 l 2
 833 -47 824 -98 806 -133 c 0
 788 -168 757 -193 714 -208 c 0
 670 -223 607 -230 525 -230 c 1
 520 -140 l 1
 580 -140 624 -136 652 -128 c 0
EndSplineSet
EndChar

StartChar: Lslash
Encoding: 321 321 97
Width: 675
Flags: W
LayerCount: 2
Fore
SplineSet
282 100 m 1
 639 100 l 1
 639 0 l 1
 169 0 l 1
 169 291 l 1
 45 239 l 1
 9 323 l 1
 169 390 l 1
 169 730 l 1
 282 730 l 1
 282 438 l 1
 409 491 l 1
 445 407 l 1
 282 339 l 1
 282 100 l 1
EndSplineSet
EndChar

StartChar: M
Encoding: 77 77 98
Width: 870
Flags: W
LayerCount: 2
Fore
SplineSet
80 730 m 1
 220 730 l 1
 434 283 l 1
 436 283 l 1
 650 730 l 1
 790 730 l 1
 790 0 l 1
 680 0 l 1
 680 555 l 1
 678 555 l 1
 487 155 l 1
 383 155 l 1
 192 555 l 1
 190 555 l 1
 190 0 l 1
 80 0 l 1
 80 730 l 1
EndSplineSet
EndChar

StartChar: N
Encoding: 78 78 99
Width: 725
Flags: W
LayerCount: 2
Fore
SplineSet
80 730 m 1
 201 730 l 1
 533 180 l 1
 535 180 l 1
 535 730 l 1
 645 730 l 1
 645 0 l 1
 524 0 l 1
 192 550 l 1
 190 550 l 1
 190 0 l 1
 80 0 l 1
 80 730 l 1
EndSplineSet
EndChar

StartChar: uni01CA
Encoding: 458 458 100
Width: 1292
Flags: W
LayerCount: 2
Fore
SplineSet
80 730 m 1
 201 730 l 1
 533 180 l 1
 535 180 l 1
 535 730 l 1
 645 730 l 1
 645 0 l 1
 524 0 l 1
 192 550 l 1
 190 550 l 1
 190 0 l 1
 80 0 l 1
 80 730 l 1
733 45 m 1
 771 138 l 1
 830 106 888 90 947 90 c 0
 1002 90 1042 106 1068 136 c 0
 1094 168 1107 215 1107 280 c 2
 1107 730 l 1
 1220 730 l 1
 1220 280 l 2
 1220 181 1199 108 1156 60 c 0
 1113 14 1047 -10 957 -10 c 0
 873 -10 798 8 733 45 c 1
EndSplineSet
EndChar

StartChar: Nacute
Encoding: 323 323 101
Width: 725
Flags: W
LayerCount: 2
Fore
SplineSet
80 730 m 1
 201 730 l 1
 533 180 l 1
 535 180 l 1
 535 730 l 1
 645 730 l 1
 645 0 l 1
 524 0 l 1
 192 550 l 1
 190 550 l 1
 190 0 l 1
 80 0 l 1
 80 730 l 1
373 770 m 1
 263 770 l 1
 358 980 l 1
 498 980 l 1
 373 770 l 1
EndSplineSet
EndChar

StartChar: Ncaron
Encoding: 327 327 102
Width: 725
Flags: W
LayerCount: 2
Fore
SplineSet
80 730 m 1
 201 730 l 1
 533 180 l 1
 535 180 l 1
 535 730 l 1
 645 730 l 1
 645 0 l 1
 524 0 l 1
 192 550 l 1
 190 550 l 1
 190 0 l 1
 80 0 l 1
 80 730 l 1
142 980 m 1
 272 980 l 1
 362 820 l 1
 364 820 l 1
 454 980 l 1
 584 980 l 1
 459 770 l 1
 266 770 l 1
 142 980 l 1
EndSplineSet
EndChar

StartChar: uni0145
Encoding: 325 325 103
Width: 725
Flags: W
LayerCount: 2
Fore
SplineSet
80 730 m 1
 201 730 l 1
 533 180 l 1
 535 180 l 1
 535 730 l 1
 645 730 l 1
 645 0 l 1
 524 0 l 1
 192 550 l 1
 190 550 l 1
 190 0 l 1
 80 0 l 1
 80 730 l 1
355 -250 m 1
 245 -250 l 1
 340 -40 l 1
 480 -40 l 1
 355 -250 l 1
EndSplineSet
EndChar

StartChar: Eng
Encoding: 330 330 104
Width: 725
Flags: W
LayerCount: 2
Fore
SplineSet
645 730 m 1
 645 -26 l 2
 645 -95 631 -144 604 -175 c 0
 576 -206 531 -221 469 -221 c 0
 430 -221 392 -216 355 -205 c 1
 372 -114 l 1
 396 -122 421 -126 447 -126 c 0
 479 -126 502 -118 516 -102 c 0
 530 -87 537 -61 537 -26 c 2
 537 -20 l 1
 192 540 l 1
 190 540 l 1
 190 0 l 1
 80 0 l 1
 80 730 l 1
 201 730 l 1
 533 190 l 1
 535 190 l 1
 535 730 l 1
 645 730 l 1
EndSplineSet
EndChar

StartChar: uni01CB
Encoding: 459 459 105
Width: 1051
Flags: W
LayerCount: 2
Fore
SplineSet
80 730 m 1
 201 730 l 1
 533 180 l 1
 535 180 l 1
 535 730 l 1
 645 730 l 1
 645 0 l 1
 524 0 l 1
 192 550 l 1
 190 550 l 1
 190 0 l 1
 80 0 l 1
 80 730 l 1
862 740 m 1
 972 740 l 1
 972 630 l 1
 862 630 l 1
 862 740 l 1
790 -128 m 0
 818 -120 837 -105 847 -84 c 0
 857 -62 862 -27 862 20 c 2
 862 520 l 1
 972 520 l 1
 972 20 l 2
 972 -47 963 -98 945 -133 c 0
 927 -168 896 -193 852 -208 c 0
 809 -223 746 -230 664 -230 c 1
 659 -140 l 1
 719 -140 763 -136 790 -128 c 0
EndSplineSet
EndChar

StartChar: Ntilde
Encoding: 209 209 106
Width: 725
Flags: W
LayerCount: 2
Fore
SplineSet
80 730 m 1
 201 730 l 1
 533 180 l 1
 535 180 l 1
 535 730 l 1
 645 730 l 1
 645 0 l 1
 524 0 l 1
 192 550 l 1
 190 550 l 1
 190 0 l 1
 80 0 l 1
 80 730 l 1
422 796 m 0
 405 803 382 814 355 829 c 0
 324 848 301 857 287 857 c 0
 277 857 270 852 265 844 c 0
 260 834 258 819 258 797 c 1
 158 797 l 1
 158 854 166 896 182 923 c 0
 197 950 221 963 254 963 c 0
 270 963 287 960 305 954 c 0
 323 947 345 936 371 921 c 0
 402 902 425 893 439 893 c 0
 449 893 456 898 461 907 c 0
 466 916 468 932 468 953 c 1
 568 953 l 1
 568 896 560 854 544 827 c 0
 529 800 505 787 472 787 c 0
 457 787 440 790 422 796 c 0
EndSplineSet
EndChar

StartChar: O
Encoding: 79 79 107
Width: 806
Flags: W
LayerCount: 2
Fore
SplineSet
210 36 m 0
 155 66 113 109 84 166 c 0
 55 223 40 289 40 365 c 0
 40 441 55 507 84 564 c 0
 113 621 155 664 210 694 c 0
 265 725 329 740 403 740 c 0
 477 740 541 725 596 694 c 0
 651 664 693 621 722 564 c 0
 751 507 766 441 766 365 c 0
 766 289 751 223 722 166 c 0
 693 109 651 66 596 36 c 0
 541 5 477 -10 403 -10 c 0
 329 -10 265 5 210 36 c 0
586 163 m 0
 631 212 653 279 653 365 c 0
 653 451 631 518 586 567 c 0
 542 616 481 640 403 640 c 0
 325 640 264 616 220 567 c 0
 175 518 153 451 153 365 c 0
 153 279 175 212 220 163 c 0
 264 114 325 90 403 90 c 0
 481 90 542 114 586 163 c 0
EndSplineSet
EndChar

StartChar: Oacute
Encoding: 211 211 108
Width: 806
Flags: W
LayerCount: 2
Fore
SplineSet
210 36 m 0
 155 66 113 109 84 166 c 0
 55 223 40 289 40 365 c 0
 40 441 55 507 84 564 c 0
 113 621 155 664 210 694 c 0
 265 725 329 740 403 740 c 0
 477 740 541 725 596 694 c 0
 651 664 693 621 722 564 c 0
 751 507 766 441 766 365 c 0
 766 289 751 223 722 166 c 0
 693 109 651 66 596 36 c 0
 541 5 477 -10 403 -10 c 0
 329 -10 265 5 210 36 c 0
586 163 m 0
 631 212 653 279 653 365 c 0
 653 451 631 518 586 567 c 0
 542 616 481 640 403 640 c 0
 325 640 264 616 220 567 c 0
 175 518 153 451 153 365 c 0
 153 279 175 212 220 163 c 0
 264 114 325 90 403 90 c 0
 481 90 542 114 586 163 c 0
413 770 m 1
 303 770 l 1
 398 980 l 1
 538 980 l 1
 413 770 l 1
EndSplineSet
EndChar

StartChar: Obreve
Encoding: 334 334 109
Width: 806
Flags: W
LayerCount: 2
Fore
SplineSet
210 36 m 0
 155 66 113 109 84 166 c 0
 55 223 40 289 40 365 c 0
 40 441 55 507 84 564 c 0
 113 621 155 664 210 694 c 0
 265 725 329 740 403 740 c 0
 477 740 541 725 596 694 c 0
 651 664 693 621 722 564 c 0
 751 507 766 441 766 365 c 0
 766 289 751 223 722 166 c 0
 693 109 651 66 596 36 c 0
 541 5 477 -10 403 -10 c 0
 329 -10 265 5 210 36 c 0
586 163 m 0
 631 212 653 279 653 365 c 0
 653 451 631 518 586 567 c 0
 542 616 481 640 403 640 c 0
 325 640 264 616 220 567 c 0
 175 518 153 451 153 365 c 0
 153 279 175 212 220 163 c 0
 264 114 325 90 403 90 c 0
 481 90 542 114 586 163 c 0
300 804 m 0
 270 819 246 839 228 865 c 0
 210 891 200 920 198 953 c 1
 315 953 l 1
 318 926 328 905 342 890 c 0
 358 876 378 869 403 869 c 0
 428 869 448 876 464 890 c 0
 478 905 488 926 491 953 c 1
 608 953 l 1
 606 920 596 891 578 865 c 0
 560 839 536 819 506 804 c 0
 475 790 441 783 403 783 c 0
 365 783 331 790 300 804 c 0
EndSplineSet
EndChar

StartChar: Ocircumflex
Encoding: 212 212 110
Width: 806
Flags: W
LayerCount: 2
Fore
SplineSet
210 36 m 0
 155 66 113 109 84 166 c 0
 55 223 40 289 40 365 c 0
 40 441 55 507 84 564 c 0
 113 621 155 664 210 694 c 0
 265 725 329 740 403 740 c 0
 477 740 541 725 596 694 c 0
 651 664 693 621 722 564 c 0
 751 507 766 441 766 365 c 0
 766 289 751 223 722 166 c 0
 693 109 651 66 596 36 c 0
 541 5 477 -10 403 -10 c 0
 329 -10 265 5 210 36 c 0
586 163 m 0
 631 212 653 279 653 365 c 0
 653 451 631 518 586 567 c 0
 542 616 481 640 403 640 c 0
 325 640 264 616 220 567 c 0
 175 518 153 451 153 365 c 0
 153 279 175 212 220 163 c 0
 264 114 325 90 403 90 c 0
 481 90 542 114 586 163 c 0
306 980 m 1
 499 980 l 1
 624 770 l 1
 494 770 l 1
 404 930 l 1
 402 930 l 1
 312 770 l 1
 182 770 l 1
 306 980 l 1
EndSplineSet
EndChar

StartChar: uni1ED0
Encoding: 7888 7888 111
Width: 806
Flags: W
LayerCount: 2
Fore
SplineSet
402 930 m 1
 312 770 l 1
 182 770 l 1
 306 980 l 1
 496 980 l 1
 577 1160 l 1
 717 1160 l 1
 592 950 l 1
 517 950 l 1
 624 770 l 1
 494 770 l 1
 404 930 l 1
 402 930 l 1
596 694 m 0
 651 664 693 621 722 564 c 0
 751 507 766 441 766 365 c 0
 766 289 751 223 722 166 c 0
 693 109 651 66 596 36 c 0
 541 5 477 -10 403 -10 c 0
 329 -10 265 5 210 36 c 0
 155 66 113 109 84 166 c 0
 55 223 40 289 40 365 c 0
 40 441 55 507 84 564 c 0
 113 621 155 664 210 694 c 0
 265 725 329 740 403 740 c 0
 477 740 541 725 596 694 c 0
586 163 m 0
 631 212 653 279 653 365 c 0
 653 451 631 518 586 567 c 0
 542 616 481 640 403 640 c 0
 325 640 264 616 220 567 c 0
 175 518 153 451 153 365 c 0
 153 279 175 212 220 163 c 0
 264 114 325 90 403 90 c 0
 481 90 542 114 586 163 c 0
EndSplineSet
EndChar

StartChar: uni1ED8
Encoding: 7896 7896 112
Width: 806
Flags: W
LayerCount: 2
Fore
SplineSet
210 36 m 0
 155 66 113 109 84 166 c 0
 55 223 40 289 40 365 c 0
 40 441 55 507 84 564 c 0
 113 621 155 664 210 694 c 0
 265 725 329 740 403 740 c 0
 477 740 541 725 596 694 c 0
 651 664 693 621 722 564 c 0
 751 507 766 441 766 365 c 0
 766 289 751 223 722 166 c 0
 693 109 651 66 596 36 c 0
 541 5 477 -10 403 -10 c 0
 329 -10 265 5 210 36 c 0
586 163 m 0
 631 212 653 279 653 365 c 0
 653 451 631 518 586 567 c 0
 542 616 481 640 403 640 c 0
 325 640 264 616 220 567 c 0
 175 518 153 451 153 365 c 0
 153 279 175 212 220 163 c 0
 264 114 325 90 403 90 c 0
 481 90 542 114 586 163 c 0
340 -82 m 1
 466 -82 l 1
 466 -208 l 1
 340 -208 l 1
 340 -82 l 1
306 980 m 1
 499 980 l 1
 624 770 l 1
 494 770 l 1
 404 930 l 1
 402 930 l 1
 312 770 l 1
 182 770 l 1
 306 980 l 1
EndSplineSet
EndChar

StartChar: uni1ED2
Encoding: 7890 7890 113
Width: 806
Flags: W
LayerCount: 2
Fore
SplineSet
288 950 m 1
 214 950 l 1
 89 1160 l 1
 229 1160 l 1
 310 980 l 1
 499 980 l 1
 624 770 l 1
 494 770 l 1
 404 930 l 1
 402 930 l 1
 312 770 l 1
 182 770 l 1
 288 950 l 1
596 694 m 0
 651 664 693 621 722 564 c 0
 751 507 766 441 766 365 c 0
 766 289 751 223 722 166 c 0
 693 109 651 66 596 36 c 0
 541 5 477 -10 403 -10 c 0
 329 -10 265 5 210 36 c 0
 155 66 113 109 84 166 c 0
 55 223 40 289 40 365 c 0
 40 441 55 507 84 564 c 0
 113 621 155 664 210 694 c 0
 265 725 329 740 403 740 c 0
 477 740 541 725 596 694 c 0
586 163 m 0
 631 212 653 279 653 365 c 0
 653 451 631 518 586 567 c 0
 542 616 481 640 403 640 c 0
 325 640 264 616 220 567 c 0
 175 518 153 451 153 365 c 0
 153 279 175 212 220 163 c 0
 264 114 325 90 403 90 c 0
 481 90 542 114 586 163 c 0
EndSplineSet
EndChar

StartChar: uni1ED4
Encoding: 7892 7892 114
Width: 806
Flags: W
LayerCount: 2
Fore
SplineSet
491 980 m 1
 494 997 495 1009 495 1014 c 0
 495 1029 490 1038 480 1044 c 0
 471 1048 453 1051 427 1051 c 0
 384 1051 343 1045 303 1033 c 1
 293 1120 l 1
 343 1132 396 1138 453 1138 c 0
 494 1138 526 1136 549 1130 c 0
 572 1126 588 1117 598 1106 c 0
 607 1094 612 1077 612 1055 c 0
 612 1039 610 1021 606 1001 c 0
 603 981 598 963 592 948 c 1
 518 948 l 1
 624 770 l 1
 494 770 l 1
 404 930 l 1
 402 930 l 1
 312 770 l 1
 182 770 l 1
 306 980 l 1
 491 980 l 1
596 694 m 0
 651 664 693 621 722 564 c 0
 751 507 766 441 766 365 c 0
 766 289 751 223 722 166 c 0
 693 109 651 66 596 36 c 0
 541 5 477 -10 403 -10 c 0
 329 -10 265 5 210 36 c 0
 155 66 113 109 84 166 c 0
 55 223 40 289 40 365 c 0
 40 441 55 507 84 564 c 0
 113 621 155 664 210 694 c 0
 265 725 329 740 403 740 c 0
 477 740 541 725 596 694 c 0
586 163 m 0
 631 212 653 279 653 365 c 0
 653 451 631 518 586 567 c 0
 542 616 481 640 403 640 c 0
 325 640 264 616 220 567 c 0
 175 518 153 451 153 365 c 0
 153 279 175 212 220 163 c 0
 264 114 325 90 403 90 c 0
 481 90 542 114 586 163 c 0
EndSplineSet
EndChar

StartChar: uni1ED6
Encoding: 7894 7894 115
Width: 806
Flags: W
LayerCount: 2
Fore
SplineSet
210 36 m 0
 155 66 113 109 84 166 c 0
 55 223 40 289 40 365 c 0
 40 441 55 507 84 564 c 0
 113 621 155 664 210 694 c 0
 265 725 329 740 403 740 c 0
 477 740 541 725 596 694 c 0
 651 664 693 621 722 564 c 0
 751 507 766 441 766 365 c 0
 766 289 751 223 722 166 c 0
 693 109 651 66 596 36 c 0
 541 5 477 -10 403 -10 c 0
 329 -10 265 5 210 36 c 0
586 163 m 0
 631 212 653 279 653 365 c 0
 653 451 631 518 586 567 c 0
 542 616 481 640 403 640 c 0
 325 640 264 616 220 567 c 0
 175 518 153 451 153 365 c 0
 153 279 175 212 220 163 c 0
 264 114 325 90 403 90 c 0
 481 90 542 114 586 163 c 0
306 980 m 1
 499 980 l 1
 624 770 l 1
 494 770 l 1
 404 930 l 1
 402 930 l 1
 312 770 l 1
 182 770 l 1
 306 980 l 1
462 1006 m 0
 445 1013 422 1024 395 1039 c 0
 364 1058 341 1067 327 1067 c 0
 317 1067 310 1062 305 1054 c 0
 300 1044 298 1029 298 1007 c 1
 198 1007 l 1
 198 1064 206 1106 222 1133 c 0
 237 1160 261 1173 294 1173 c 0
 310 1173 327 1170 345 1164 c 0
 363 1157 385 1146 411 1131 c 0
 442 1112 465 1103 479 1103 c 0
 489 1103 496 1108 501 1117 c 0
 506 1126 508 1142 508 1163 c 1
 608 1163 l 1
 608 1106 600 1064 584 1037 c 0
 569 1010 545 997 512 997 c 0
 497 997 480 1000 462 1006 c 0
EndSplineSet
EndChar

StartChar: uni020C
Encoding: 524 524 116
Width: 806
Flags: W
LayerCount: 2
Fore
SplineSet
210 36 m 0
 155 66 113 109 84 166 c 0
 55 223 40 289 40 365 c 0
 40 441 55 507 84 564 c 0
 113 621 155 664 210 694 c 0
 265 725 329 740 403 740 c 0
 477 740 541 725 596 694 c 0
 651 664 693 621 722 564 c 0
 751 507 766 441 766 365 c 0
 766 289 751 223 722 166 c 0
 693 109 651 66 596 36 c 0
 541 5 477 -10 403 -10 c 0
 329 -10 265 5 210 36 c 0
586 163 m 0
 631 212 653 279 653 365 c 0
 653 451 631 518 586 567 c 0
 542 616 481 640 403 640 c 0
 325 640 264 616 220 567 c 0
 175 518 153 451 153 365 c 0
 153 279 175 212 220 163 c 0
 264 114 325 90 403 90 c 0
 481 90 542 114 586 163 c 0
157 980 m 1
 297 980 l 1
 392 770 l 1
 282 770 l 1
 157 980 l 1
382 980 m 1
 522 980 l 1
 617 770 l 1
 507 770 l 1
 382 980 l 1
EndSplineSet
EndChar

StartChar: Odieresis
Encoding: 214 214 117
Width: 806
Flags: W
LayerCount: 2
Fore
SplineSet
210 36 m 0
 155 66 113 109 84 166 c 0
 55 223 40 289 40 365 c 0
 40 441 55 507 84 564 c 0
 113 621 155 664 210 694 c 0
 265 725 329 740 403 740 c 0
 477 740 541 725 596 694 c 0
 651 664 693 621 722 564 c 0
 751 507 766 441 766 365 c 0
 766 289 751 223 722 166 c 0
 693 109 651 66 596 36 c 0
 541 5 477 -10 403 -10 c 0
 329 -10 265 5 210 36 c 0
586 163 m 0
 631 212 653 279 653 365 c 0
 653 451 631 518 586 567 c 0
 542 616 481 640 403 640 c 0
 325 640 264 616 220 567 c 0
 175 518 153 451 153 365 c 0
 153 279 175 212 220 163 c 0
 264 114 325 90 403 90 c 0
 481 90 542 114 586 163 c 0
213 938 m 1
 339 938 l 1
 339 812 l 1
 213 812 l 1
 213 938 l 1
467 938 m 1
 593 938 l 1
 593 812 l 1
 467 812 l 1
 467 938 l 1
EndSplineSet
EndChar

StartChar: uni022A
Encoding: 554 554 118
Width: 806
Flags: W
LayerCount: 2
Fore
SplineSet
210 36 m 0
 155 66 113 109 84 166 c 0
 55 223 40 289 40 365 c 0
 40 441 55 507 84 564 c 0
 113 621 155 664 210 694 c 0
 265 725 329 740 403 740 c 0
 477 740 541 725 596 694 c 0
 651 664 693 621 722 564 c 0
 751 507 766 441 766 365 c 0
 766 289 751 223 722 166 c 0
 693 109 651 66 596 36 c 0
 541 5 477 -10 403 -10 c 0
 329 -10 265 5 210 36 c 0
586 163 m 0
 631 212 653 279 653 365 c 0
 653 451 631 518 586 567 c 0
 542 616 481 640 403 640 c 0
 325 640 264 616 220 567 c 0
 175 518 153 451 153 365 c 0
 153 279 175 212 220 163 c 0
 264 114 325 90 403 90 c 0
 481 90 542 114 586 163 c 0
213 938 m 1
 339 938 l 1
 339 812 l 1
 213 812 l 1
 213 938 l 1
467 938 m 1
 593 938 l 1
 593 812 l 1
 467 812 l 1
 467 938 l 1
214 1126 m 1
 592 1126 l 1
 592 1040 l 1
 214 1040 l 1
 214 1126 l 1
EndSplineSet
EndChar

StartChar: uni0230
Encoding: 560 560 119
Width: 806
Flags: W
LayerCount: 2
Fore
SplineSet
210 36 m 0
 155 66 113 109 84 166 c 0
 55 223 40 289 40 365 c 0
 40 441 55 507 84 564 c 0
 113 621 155 664 210 694 c 0
 265 725 329 740 403 740 c 0
 477 740 541 725 596 694 c 0
 651 664 693 621 722 564 c 0
 751 507 766 441 766 365 c 0
 766 289 751 223 722 166 c 0
 693 109 651 66 596 36 c 0
 541 5 477 -10 403 -10 c 0
 329 -10 265 5 210 36 c 0
586 163 m 0
 631 212 653 279 653 365 c 0
 653 451 631 518 586 567 c 0
 542 616 481 640 403 640 c 0
 325 640 264 616 220 567 c 0
 175 518 153 451 153 365 c 0
 153 279 175 212 220 163 c 0
 264 114 325 90 403 90 c 0
 481 90 542 114 586 163 c 0
340 938 m 1
 466 938 l 1
 466 812 l 1
 340 812 l 1
 340 938 l 1
214 1126 m 1
 592 1126 l 1
 592 1040 l 1
 214 1040 l 1
 214 1126 l 1
EndSplineSet
EndChar

StartChar: uni1ECC
Encoding: 7884 7884 120
Width: 806
Flags: W
LayerCount: 2
Fore
SplineSet
210 36 m 0
 155 66 113 109 84 166 c 0
 55 223 40 289 40 365 c 0
 40 441 55 507 84 564 c 0
 113 621 155 664 210 694 c 0
 265 725 329 740 403 740 c 0
 477 740 541 725 596 694 c 0
 651 664 693 621 722 564 c 0
 751 507 766 441 766 365 c 0
 766 289 751 223 722 166 c 0
 693 109 651 66 596 36 c 0
 541 5 477 -10 403 -10 c 0
 329 -10 265 5 210 36 c 0
586 163 m 0
 631 212 653 279 653 365 c 0
 653 451 631 518 586 567 c 0
 542 616 481 640 403 640 c 0
 325 640 264 616 220 567 c 0
 175 518 153 451 153 365 c 0
 153 279 175 212 220 163 c 0
 264 114 325 90 403 90 c 0
 481 90 542 114 586 163 c 0
340 -82 m 1
 466 -82 l 1
 466 -208 l 1
 340 -208 l 1
 340 -82 l 1
EndSplineSet
EndChar

StartChar: Ograve
Encoding: 210 210 121
Width: 806
Flags: W
LayerCount: 2
Fore
SplineSet
210 36 m 0
 155 66 113 109 84 166 c 0
 55 223 40 289 40 365 c 0
 40 441 55 507 84 564 c 0
 113 621 155 664 210 694 c 0
 265 725 329 740 403 740 c 0
 477 740 541 725 596 694 c 0
 651 664 693 621 722 564 c 0
 751 507 766 441 766 365 c 0
 766 289 751 223 722 166 c 0
 693 109 651 66 596 36 c 0
 541 5 477 -10 403 -10 c 0
 329 -10 265 5 210 36 c 0
586 163 m 0
 631 212 653 279 653 365 c 0
 653 451 631 518 586 567 c 0
 542 616 481 640 403 640 c 0
 325 640 264 616 220 567 c 0
 175 518 153 451 153 365 c 0
 153 279 175 212 220 163 c 0
 264 114 325 90 403 90 c 0
 481 90 542 114 586 163 c 0
268 980 m 1
 408 980 l 1
 503 770 l 1
 393 770 l 1
 268 980 l 1
EndSplineSet
EndChar

StartChar: uni1ECE
Encoding: 7886 7886 122
Width: 806
Flags: W
LayerCount: 2
Fore
SplineSet
210 36 m 0
 155 66 113 109 84 166 c 0
 55 223 40 289 40 365 c 0
 40 441 55 507 84 564 c 0
 113 621 155 664 210 694 c 0
 265 725 329 740 403 740 c 0
 477 740 541 725 596 694 c 0
 651 664 693 621 722 564 c 0
 751 507 766 441 766 365 c 0
 766 289 751 223 722 166 c 0
 693 109 651 66 596 36 c 0
 541 5 477 -10 403 -10 c 0
 329 -10 265 5 210 36 c 0
586 163 m 0
 631 212 653 279 653 365 c 0
 653 451 631 518 586 567 c 0
 542 616 481 640 403 640 c 0
 325 640 264 616 220 567 c 0
 175 518 153 451 153 365 c 0
 153 279 175 212 220 163 c 0
 264 114 325 90 403 90 c 0
 481 90 542 114 586 163 c 0
442 826 m 0
 445 840 446 850 446 859 c 0
 446 874 441 884 432 888 c 0
 422 894 404 896 378 896 c 0
 335 896 294 890 254 878 c 1
 244 965 l 1
 294 977 347 983 404 983 c 0
 445 983 477 980 500 976 c 0
 523 970 539 962 548 950 c 0
 558 939 563 922 563 900 c 0
 563 884 561 866 558 846 c 0
 554 826 549 808 543 793 c 1
 433 793 l 1
 436 802 439 814 442 826 c 0
EndSplineSet
EndChar

StartChar: Ohorn
Encoding: 416 416 123
Width: 826
Flags: W
LayerCount: 2
Fore
SplineSet
786 624 m 0
 769 599 745 584 714 578 c 1
 749 519 766 448 766 365 c 0
 766 289 751 223 722 166 c 0
 693 109 651 66 596 36 c 0
 541 5 477 -10 403 -10 c 0
 329 -10 265 5 210 36 c 0
 155 66 113 109 84 166 c 0
 55 223 40 289 40 365 c 0
 40 441 55 507 84 564 c 0
 113 621 155 664 210 694 c 0
 265 725 329 740 403 740 c 0
 496 740 573 716 635 669 c 0
 637 668 640 668 644 668 c 0
 661 668 675 674 684 686 c 0
 694 697 699 713 699 734 c 0
 699 749 697 768 692 789 c 0
 688 810 683 827 678 840 c 1
 791 840 l 1
 804 799 811 759 811 720 c 0
 811 681 803 649 786 624 c 0
586 163 m 0
 631 212 653 279 653 365 c 0
 653 451 631 518 586 567 c 0
 542 616 481 640 403 640 c 0
 325 640 264 616 220 567 c 0
 175 518 153 451 153 365 c 0
 153 279 175 212 220 163 c 0
 264 114 325 90 403 90 c 0
 481 90 542 114 586 163 c 0
EndSplineSet
EndChar

StartChar: uni1EDA
Encoding: 7898 7898 124
Width: 826
Flags: W
LayerCount: 2
Fore
SplineSet
786 624 m 0
 769 599 745 584 714 578 c 1
 749 519 766 448 766 365 c 0
 766 289 751 223 722 166 c 0
 693 109 651 66 596 36 c 0
 541 5 477 -10 403 -10 c 0
 329 -10 265 5 210 36 c 0
 155 66 113 109 84 166 c 0
 55 223 40 289 40 365 c 0
 40 441 55 507 84 564 c 0
 113 621 155 664 210 694 c 0
 265 725 329 740 403 740 c 0
 496 740 573 716 635 669 c 0
 637 668 640 668 644 668 c 0
 661 668 675 674 684 686 c 0
 694 697 699 713 699 734 c 0
 699 749 697 768 692 789 c 0
 688 810 683 827 678 840 c 1
 791 840 l 1
 804 799 811 759 811 720 c 0
 811 681 803 649 786 624 c 0
586 163 m 0
 631 212 653 279 653 365 c 0
 653 451 631 518 586 567 c 0
 542 616 481 640 403 640 c 0
 325 640 264 616 220 567 c 0
 175 518 153 451 153 365 c 0
 153 279 175 212 220 163 c 0
 264 114 325 90 403 90 c 0
 481 90 542 114 586 163 c 0
413 770 m 1
 303 770 l 1
 398 980 l 1
 538 980 l 1
 413 770 l 1
EndSplineSet
EndChar

StartChar: uni1EE2
Encoding: 7906 7906 125
Width: 826
Flags: W
LayerCount: 2
Fore
SplineSet
786 624 m 0
 769 599 745 584 714 578 c 1
 749 519 766 448 766 365 c 0
 766 289 751 223 722 166 c 0
 693 109 651 66 596 36 c 0
 541 5 477 -10 403 -10 c 0
 329 -10 265 5 210 36 c 0
 155 66 113 109 84 166 c 0
 55 223 40 289 40 365 c 0
 40 441 55 507 84 564 c 0
 113 621 155 664 210 694 c 0
 265 725 329 740 403 740 c 0
 496 740 573 716 635 669 c 0
 637 668 640 668 644 668 c 0
 661 668 675 674 684 686 c 0
 694 697 699 713 699 734 c 0
 699 749 697 768 692 789 c 0
 688 810 683 827 678 840 c 1
 791 840 l 1
 804 799 811 759 811 720 c 0
 811 681 803 649 786 624 c 0
586 163 m 0
 631 212 653 279 653 365 c 0
 653 451 631 518 586 567 c 0
 542 616 481 640 403 640 c 0
 325 640 264 616 220 567 c 0
 175 518 153 451 153 365 c 0
 153 279 175 212 220 163 c 0
 264 114 325 90 403 90 c 0
 481 90 542 114 586 163 c 0
340 -82 m 1
 466 -82 l 1
 466 -208 l 1
 340 -208 l 1
 340 -82 l 1
EndSplineSet
EndChar

StartChar: uni1EDC
Encoding: 7900 7900 126
Width: 826
Flags: W
LayerCount: 2
Fore
SplineSet
786 624 m 0
 769 599 745 584 714 578 c 1
 749 519 766 448 766 365 c 0
 766 289 751 223 722 166 c 0
 693 109 651 66 596 36 c 0
 541 5 477 -10 403 -10 c 0
 329 -10 265 5 210 36 c 0
 155 66 113 109 84 166 c 0
 55 223 40 289 40 365 c 0
 40 441 55 507 84 564 c 0
 113 621 155 664 210 694 c 0
 265 725 329 740 403 740 c 0
 496 740 573 716 635 669 c 0
 637 668 640 668 644 668 c 0
 661 668 675 674 684 686 c 0
 694 697 699 713 699 734 c 0
 699 749 697 768 692 789 c 0
 688 810 683 827 678 840 c 1
 791 840 l 1
 804 799 811 759 811 720 c 0
 811 681 803 649 786 624 c 0
586 163 m 0
 631 212 653 279 653 365 c 0
 653 451 631 518 586 567 c 0
 542 616 481 640 403 640 c 0
 325 640 264 616 220 567 c 0
 175 518 153 451 153 365 c 0
 153 279 175 212 220 163 c 0
 264 114 325 90 403 90 c 0
 481 90 542 114 586 163 c 0
268 980 m 1
 408 980 l 1
 503 770 l 1
 393 770 l 1
 268 980 l 1
EndSplineSet
EndChar

StartChar: uni1EDE
Encoding: 7902 7902 127
Width: 826
Flags: W
LayerCount: 2
Fore
SplineSet
786 624 m 0
 769 599 745 584 714 578 c 1
 749 519 766 448 766 365 c 0
 766 289 751 223 722 166 c 0
 693 109 651 66 596 36 c 0
 541 5 477 -10 403 -10 c 0
 329 -10 265 5 210 36 c 0
 155 66 113 109 84 166 c 0
 55 223 40 289 40 365 c 0
 40 441 55 507 84 564 c 0
 113 621 155 664 210 694 c 0
 265 725 329 740 403 740 c 0
 496 740 573 716 635 669 c 0
 637 668 640 668 644 668 c 0
 661 668 675 674 684 686 c 0
 694 697 699 713 699 734 c 0
 699 749 697 768 692 789 c 0
 688 810 683 827 678 840 c 1
 791 840 l 1
 804 799 811 759 811 720 c 0
 811 681 803 649 786 624 c 0
586 163 m 0
 631 212 653 279 653 365 c 0
 653 451 631 518 586 567 c 0
 542 616 481 640 403 640 c 0
 325 640 264 616 220 567 c 0
 175 518 153 451 153 365 c 0
 153 279 175 212 220 163 c 0
 264 114 325 90 403 90 c 0
 481 90 542 114 586 163 c 0
442 826 m 0
 445 840 446 850 446 859 c 0
 446 874 441 884 432 888 c 0
 422 894 404 896 378 896 c 0
 335 896 294 890 254 878 c 1
 244 965 l 1
 294 977 347 983 404 983 c 0
 445 983 477 980 500 976 c 0
 523 970 539 962 548 950 c 0
 558 939 563 922 563 900 c 0
 563 884 561 866 558 846 c 0
 554 826 549 808 543 793 c 1
 433 793 l 1
 436 802 439 814 442 826 c 0
EndSplineSet
EndChar

StartChar: uni1EE0
Encoding: 7904 7904 128
Width: 826
Flags: W
LayerCount: 2
Fore
SplineSet
786 624 m 0
 769 599 745 584 714 578 c 1
 749 519 766 448 766 365 c 0
 766 289 751 223 722 166 c 0
 693 109 651 66 596 36 c 0
 541 5 477 -10 403 -10 c 0
 329 -10 265 5 210 36 c 0
 155 66 113 109 84 166 c 0
 55 223 40 289 40 365 c 0
 40 441 55 507 84 564 c 0
 113 621 155 664 210 694 c 0
 265 725 329 740 403 740 c 0
 496 740 573 716 635 669 c 0
 637 668 640 668 644 668 c 0
 661 668 675 674 684 686 c 0
 694 697 699 713 699 734 c 0
 699 749 697 768 692 789 c 0
 688 810 683 827 678 840 c 1
 791 840 l 1
 804 799 811 759 811 720 c 0
 811 681 803 649 786 624 c 0
586 163 m 0
 631 212 653 279 653 365 c 0
 653 451 631 518 586 567 c 0
 542 616 481 640 403 640 c 0
 325 640 264 616 220 567 c 0
 175 518 153 451 153 365 c 0
 153 279 175 212 220 163 c 0
 264 114 325 90 403 90 c 0
 481 90 542 114 586 163 c 0
462 796 m 0
 445 803 422 814 395 829 c 0
 364 848 341 857 327 857 c 0
 317 857 310 852 305 844 c 0
 300 834 298 819 298 797 c 1
 198 797 l 1
 198 854 206 896 222 923 c 0
 237 950 261 963 294 963 c 0
 310 963 327 960 345 954 c 0
 363 947 385 936 411 921 c 0
 442 902 465 893 479 893 c 0
 489 893 496 898 501 907 c 0
 506 916 508 932 508 953 c 1
 608 953 l 1
 608 896 600 854 584 827 c 0
 569 800 545 787 512 787 c 0
 497 787 480 790 462 796 c 0
EndSplineSet
EndChar

StartChar: Ohungarumlaut
Encoding: 336 336 129
Width: 806
Flags: W
LayerCount: 2
Fore
SplineSet
210 36 m 0
 155 66 113 109 84 166 c 0
 55 223 40 289 40 365 c 0
 40 441 55 507 84 564 c 0
 113 621 155 664 210 694 c 0
 265 725 329 740 403 740 c 0
 477 740 541 725 596 694 c 0
 651 664 693 621 722 564 c 0
 751 507 766 441 766 365 c 0
 766 289 751 223 722 166 c 0
 693 109 651 66 596 36 c 0
 541 5 477 -10 403 -10 c 0
 329 -10 265 5 210 36 c 0
586 163 m 0
 631 212 653 279 653 365 c 0
 653 451 631 518 586 567 c 0
 542 616 481 640 403 640 c 0
 325 640 264 616 220 567 c 0
 175 518 153 451 153 365 c 0
 153 279 175 212 220 163 c 0
 264 114 325 90 403 90 c 0
 481 90 542 114 586 163 c 0
303 770 m 1
 193 770 l 1
 288 980 l 1
 428 980 l 1
 303 770 l 1
528 770 m 1
 418 770 l 1
 513 980 l 1
 653 980 l 1
 528 770 l 1
EndSplineSet
EndChar

StartChar: uni020E
Encoding: 526 526 130
Width: 806
Flags: W
LayerCount: 2
Fore
SplineSet
210 36 m 0
 155 66 113 109 84 166 c 0
 55 223 40 289 40 365 c 0
 40 441 55 507 84 564 c 0
 113 621 155 664 210 694 c 0
 265 725 329 740 403 740 c 0
 477 740 541 725 596 694 c 0
 651 664 693 621 722 564 c 0
 751 507 766 441 766 365 c 0
 766 289 751 223 722 166 c 0
 693 109 651 66 596 36 c 0
 541 5 477 -10 403 -10 c 0
 329 -10 265 5 210 36 c 0
586 163 m 0
 631 212 653 279 653 365 c 0
 653 451 631 518 586 567 c 0
 542 616 481 640 403 640 c 0
 325 640 264 616 220 567 c 0
 175 518 153 451 153 365 c 0
 153 279 175 212 220 163 c 0
 264 114 325 90 403 90 c 0
 481 90 542 114 586 163 c 0
506 946 m 0
 536 931 560 911 578 885 c 0
 596 859 606 830 608 797 c 1
 491 797 l 1
 488 824 478 845 464 860 c 0
 448 874 428 881 403 881 c 0
 378 881 358 874 342 860 c 0
 328 845 318 824 315 797 c 1
 198 797 l 1
 200 830 210 859 228 885 c 0
 246 911 270 931 300 946 c 0
 331 960 365 967 403 967 c 0
 441 967 475 960 506 946 c 0
EndSplineSet
EndChar

StartChar: Omacron
Encoding: 332 332 131
Width: 806
Flags: W
LayerCount: 2
Fore
SplineSet
210 36 m 0
 155 66 113 109 84 166 c 0
 55 223 40 289 40 365 c 0
 40 441 55 507 84 564 c 0
 113 621 155 664 210 694 c 0
 265 725 329 740 403 740 c 0
 477 740 541 725 596 694 c 0
 651 664 693 621 722 564 c 0
 751 507 766 441 766 365 c 0
 766 289 751 223 722 166 c 0
 693 109 651 66 596 36 c 0
 541 5 477 -10 403 -10 c 0
 329 -10 265 5 210 36 c 0
586 163 m 0
 631 212 653 279 653 365 c 0
 653 451 631 518 586 567 c 0
 542 616 481 640 403 640 c 0
 325 640 264 616 220 567 c 0
 175 518 153 451 153 365 c 0
 153 279 175 212 220 163 c 0
 264 114 325 90 403 90 c 0
 481 90 542 114 586 163 c 0
214 918 m 1
 592 918 l 1
 592 832 l 1
 214 832 l 1
 214 918 l 1
EndSplineSet
EndChar

StartChar: uni01EA
Encoding: 490 490 132
Width: 806
Flags: W
LayerCount: 2
Fore
SplineSet
397 -52 m 0
 384 -67 378 -80 378 -93 c 0
 378 -105 384 -114 396 -120 c 0
 407 -127 424 -130 446 -130 c 0
 478 -130 508 -124 535 -111 c 1
 552 -196 l 1
 518 -210 480 -217 437 -217 c 0
 386 -217 346 -208 318 -190 c 0
 290 -171 276 -145 276 -112 c 0
 276 -74 294 -38 330 -4 c 1
 240 10 169 50 118 115 c 0
 66 180 40 264 40 365 c 0
 40 441 55 507 84 564 c 0
 113 621 155 664 210 694 c 0
 265 725 329 740 403 740 c 0
 477 740 541 725 596 694 c 0
 651 664 693 621 722 564 c 0
 751 507 766 441 766 365 c 0
 766 294 753 232 728 178 c 0
 703 125 666 82 619 50 c 0
 572 18 516 -1 451 -8 c 1
 428 -23 410 -37 397 -52 c 0
220 163 m 0
 264 114 325 90 403 90 c 0
 481 90 542 114 586 163 c 0
 631 212 653 279 653 365 c 0
 653 451 631 518 586 567 c 0
 542 616 481 640 403 640 c 0
 325 640 264 616 220 567 c 0
 175 518 153 451 153 365 c 0
 153 279 175 212 220 163 c 0
EndSplineSet
EndChar

StartChar: Oslash
Encoding: 216 216 133
Width: 806
Flags: W
LayerCount: 2
Fore
SplineSet
740 522 m 0
 758 475 766 423 766 365 c 0
 766 289 751 223 722 166 c 0
 693 109 651 66 596 36 c 0
 541 5 477 -10 403 -10 c 0
 332 -10 268 5 212 35 c 1
 159 -37 l 1
 87 17 l 1
 140 89 l 1
 107 122 82 161 66 208 c 0
 48 255 40 307 40 365 c 0
 40 441 55 507 84 564 c 0
 113 621 155 664 210 694 c 0
 265 725 329 740 403 740 c 0
 474 740 538 725 594 695 c 1
 647 767 l 1
 719 713 l 1
 666 641 l 1
 699 608 724 569 740 522 c 0
207 178 m 1
 530 611 l 1
 495 630 452 640 403 640 c 0
 325 640 264 616 220 567 c 0
 175 518 153 451 153 365 c 0
 153 288 171 225 207 178 c 1
586 163 m 0
 631 212 653 279 653 365 c 0
 653 442 635 505 599 552 c 1
 276 119 l 1
 311 100 354 90 403 90 c 0
 481 90 542 114 586 163 c 0
EndSplineSet
EndChar

StartChar: Oslashacute
Encoding: 510 510 134
Width: 806
Flags: W
LayerCount: 2
Fore
SplineSet
740 522 m 0
 758 475 766 423 766 365 c 0
 766 289 751 223 722 166 c 0
 693 109 651 66 596 36 c 0
 541 5 477 -10 403 -10 c 0
 332 -10 268 5 212 35 c 1
 159 -37 l 1
 87 17 l 1
 140 89 l 1
 107 122 82 161 66 208 c 0
 48 255 40 307 40 365 c 0
 40 441 55 507 84 564 c 0
 113 621 155 664 210 694 c 0
 265 725 329 740 403 740 c 0
 474 740 538 725 594 695 c 1
 647 767 l 1
 719 713 l 1
 666 641 l 1
 699 608 724 569 740 522 c 0
207 178 m 1
 530 611 l 1
 495 630 452 640 403 640 c 0
 325 640 264 616 220 567 c 0
 175 518 153 451 153 365 c 0
 153 288 171 225 207 178 c 1
586 163 m 0
 631 212 653 279 653 365 c 0
 653 442 635 505 599 552 c 1
 276 119 l 1
 311 100 354 90 403 90 c 0
 481 90 542 114 586 163 c 0
413 770 m 1
 303 770 l 1
 398 980 l 1
 538 980 l 1
 413 770 l 1
EndSplineSet
EndChar

StartChar: Otilde
Encoding: 213 213 135
Width: 806
Flags: W
LayerCount: 2
Fore
SplineSet
210 36 m 0
 155 66 113 109 84 166 c 0
 55 223 40 289 40 365 c 0
 40 441 55 507 84 564 c 0
 113 621 155 664 210 694 c 0
 265 725 329 740 403 740 c 0
 477 740 541 725 596 694 c 0
 651 664 693 621 722 564 c 0
 751 507 766 441 766 365 c 0
 766 289 751 223 722 166 c 0
 693 109 651 66 596 36 c 0
 541 5 477 -10 403 -10 c 0
 329 -10 265 5 210 36 c 0
586 163 m 0
 631 212 653 279 653 365 c 0
 653 451 631 518 586 567 c 0
 542 616 481 640 403 640 c 0
 325 640 264 616 220 567 c 0
 175 518 153 451 153 365 c 0
 153 279 175 212 220 163 c 0
 264 114 325 90 403 90 c 0
 481 90 542 114 586 163 c 0
462 796 m 0
 445 803 422 814 395 829 c 0
 364 848 341 857 327 857 c 0
 317 857 310 852 305 844 c 0
 300 834 298 819 298 797 c 1
 198 797 l 1
 198 854 206 896 222 923 c 0
 237 950 261 963 294 963 c 0
 310 963 327 960 345 954 c 0
 363 947 385 936 411 921 c 0
 442 902 465 893 479 893 c 0
 489 893 496 898 501 907 c 0
 506 916 508 932 508 953 c 1
 608 953 l 1
 608 896 600 854 584 827 c 0
 569 800 545 787 512 787 c 0
 497 787 480 790 462 796 c 0
EndSplineSet
EndChar

StartChar: uni022C
Encoding: 556 556 136
Width: 806
Flags: W
LayerCount: 2
Fore
SplineSet
210 36 m 0
 155 66 113 109 84 166 c 0
 55 223 40 289 40 365 c 0
 40 441 55 507 84 564 c 0
 113 621 155 664 210 694 c 0
 265 725 329 740 403 740 c 0
 477 740 541 725 596 694 c 0
 651 664 693 621 722 564 c 0
 751 507 766 441 766 365 c 0
 766 289 751 223 722 166 c 0
 693 109 651 66 596 36 c 0
 541 5 477 -10 403 -10 c 0
 329 -10 265 5 210 36 c 0
586 163 m 0
 631 212 653 279 653 365 c 0
 653 451 631 518 586 567 c 0
 542 616 481 640 403 640 c 0
 325 640 264 616 220 567 c 0
 175 518 153 451 153 365 c 0
 153 279 175 212 220 163 c 0
 264 114 325 90 403 90 c 0
 481 90 542 114 586 163 c 0
462 796 m 0
 445 803 422 814 395 829 c 0
 364 848 341 857 327 857 c 0
 317 857 310 852 305 844 c 0
 300 834 298 819 298 797 c 1
 198 797 l 1
 198 854 206 896 222 923 c 0
 237 950 261 963 294 963 c 0
 310 963 327 960 345 954 c 0
 363 947 385 936 411 921 c 0
 442 902 465 893 479 893 c 0
 489 893 496 898 501 907 c 0
 506 916 508 932 508 953 c 1
 608 953 l 1
 608 896 600 854 584 827 c 0
 569 800 545 787 512 787 c 0
 497 787 480 790 462 796 c 0
214 1151 m 1
 592 1151 l 1
 592 1065 l 1
 214 1065 l 1
 214 1151 l 1
EndSplineSet
EndChar

StartChar: OE
Encoding: 338 338 137
Width: 1018
Flags: W
LayerCount: 2
Fore
SplineSet
609 632 m 1
 609 430 l 1
 934 430 l 1
 934 335 l 1
 609 335 l 1
 609 98 l 1
 954 98 l 1
 954 0 l 1
 500 0 l 1
 471 -7 439 -10 403 -10 c 0
 329 -10 265 5 210 36 c 0
 155 66 113 109 84 166 c 0
 55 223 40 289 40 365 c 0
 40 441 55 507 84 564 c 0
 113 621 155 664 210 694 c 0
 265 725 329 740 403 740 c 0
 439 740 471 737 500 730 c 1
 954 730 l 1
 954 632 l 1
 609 632 l 1
220 163 m 0
 264 114 325 90 403 90 c 0
 439 90 471 95 499 106 c 1
 499 624 l 1
 471 635 439 640 403 640 c 0
 325 640 264 616 220 567 c 0
 175 518 153 451 153 365 c 0
 153 279 175 212 220 163 c 0
EndSplineSet
EndChar

StartChar: P
Encoding: 80 80 138
Width: 613
Flags: W
LayerCount: 2
Fore
SplineSet
508 673 m 0
 559 635 585 576 585 497 c 0
 585 418 561 360 512 322 c 0
 463 283 389 264 290 264 c 2
 190 264 l 1
 190 0 l 1
 80 0 l 1
 80 730 l 1
 270 730 l 2
 377 730 457 711 508 673 c 0
426 394 m 0
 457 415 473 449 473 496 c 0
 473 543 457 577 426 598 c 0
 394 619 344 630 275 630 c 2
 190 630 l 1
 190 362 l 1
 275 362 l 2
 344 362 394 373 426 394 c 0
EndSplineSet
EndChar

StartChar: Thorn
Encoding: 222 222 139
Width: 613
Flags: W
LayerCount: 2
Fore
SplineSet
508 551 m 0
 559 513 585 454 585 375 c 0
 585 296 561 238 512 200 c 0
 463 161 389 142 290 142 c 2
 190 142 l 1
 190 0 l 1
 80 0 l 1
 80 730 l 1
 190 730 l 1
 190 608 l 1
 270 608 l 2
 377 608 457 589 508 551 c 0
426 272 m 0
 457 293 473 327 473 374 c 0
 473 421 457 455 426 476 c 0
 394 497 344 508 275 508 c 2
 190 508 l 1
 190 240 l 1
 275 240 l 2
 344 240 394 251 426 272 c 0
EndSplineSet
EndChar

StartChar: Q
Encoding: 81 81 140
Width: 809
Flags: W
LayerCount: 2
Fore
SplineSet
780 -71 m 1
 693 -133 l 1
 662 -94 622 -63 572 -42 c 0
 521 -21 465 -10 403 -10 c 0
 329 -10 265 5 210 36 c 0
 155 66 113 109 84 166 c 0
 55 223 40 289 40 365 c 0
 40 441 55 507 84 564 c 0
 113 621 155 664 210 694 c 0
 265 725 329 740 403 740 c 0
 477 740 541 725 596 694 c 0
 651 664 693 621 722 564 c 0
 751 507 766 441 766 365 c 0
 766 290 751 224 720 169 c 0
 689 114 646 71 590 42 c 1
 671 17 734 -21 780 -71 c 1
220 163 m 0
 264 114 325 90 403 90 c 0
 481 90 542 114 586 163 c 0
 631 212 653 279 653 365 c 0
 653 451 631 518 586 567 c 0
 542 616 481 640 403 640 c 0
 325 640 264 616 220 567 c 0
 175 518 153 451 153 365 c 0
 153 279 175 212 220 163 c 0
EndSplineSet
EndChar

StartChar: R
Encoding: 82 82 141
Width: 642
Flags: W
LayerCount: 2
Fore
SplineSet
245 302 m 1
 190 302 l 1
 190 0 l 1
 80 0 l 1
 80 730 l 1
 280 730 l 2
 385 730 462 713 512 678 c 0
 560 644 585 591 585 518 c 0
 585 455 567 406 532 370 c 0
 497 336 443 314 371 306 c 1
 610 0 l 1
 480 0 l 1
 245 302 l 1
190 398 m 1
 285 398 l 2
 351 398 399 407 428 425 c 0
 458 443 473 472 473 513 c 0
 473 554 458 584 428 602 c 0
 399 621 351 630 285 630 c 2
 190 630 l 1
 190 398 l 1
EndSplineSet
EndChar

StartChar: Racute
Encoding: 340 340 142
Width: 642
Flags: W
LayerCount: 2
Fore
SplineSet
245 302 m 1
 190 302 l 1
 190 0 l 1
 80 0 l 1
 80 730 l 1
 280 730 l 2
 385 730 462 713 512 678 c 0
 560 644 585 591 585 518 c 0
 585 455 567 406 532 370 c 0
 497 336 443 314 371 306 c 1
 610 0 l 1
 480 0 l 1
 245 302 l 1
190 398 m 1
 285 398 l 2
 351 398 399 407 428 425 c 0
 458 443 473 472 473 513 c 0
 473 554 458 584 428 602 c 0
 399 621 351 630 285 630 c 2
 190 630 l 1
 190 398 l 1
320 770 m 1
 210 770 l 1
 305 980 l 1
 445 980 l 1
 320 770 l 1
EndSplineSet
EndChar

StartChar: Rcaron
Encoding: 344 344 143
Width: 642
Flags: W
LayerCount: 2
Fore
SplineSet
245 302 m 1
 190 302 l 1
 190 0 l 1
 80 0 l 1
 80 730 l 1
 280 730 l 2
 385 730 462 713 512 678 c 0
 560 644 585 591 585 518 c 0
 585 455 567 406 532 370 c 0
 497 336 443 314 371 306 c 1
 610 0 l 1
 480 0 l 1
 245 302 l 1
190 398 m 1
 285 398 l 2
 351 398 399 407 428 425 c 0
 458 443 473 472 473 513 c 0
 473 554 458 584 428 602 c 0
 399 621 351 630 285 630 c 2
 190 630 l 1
 190 398 l 1
89 980 m 1
 219 980 l 1
 309 820 l 1
 311 820 l 1
 401 980 l 1
 531 980 l 1
 406 770 l 1
 213 770 l 1
 89 980 l 1
EndSplineSet
EndChar

StartChar: uni0156
Encoding: 342 342 144
Width: 642
Flags: W
LayerCount: 2
Fore
SplineSet
245 302 m 1
 190 302 l 1
 190 0 l 1
 80 0 l 1
 80 730 l 1
 280 730 l 2
 385 730 462 713 512 678 c 0
 560 644 585 591 585 518 c 0
 585 455 567 406 532 370 c 0
 497 336 443 314 371 306 c 1
 610 0 l 1
 480 0 l 1
 245 302 l 1
190 398 m 1
 285 398 l 2
 351 398 399 407 428 425 c 0
 458 443 473 472 473 513 c 0
 473 554 458 584 428 602 c 0
 399 621 351 630 285 630 c 2
 190 630 l 1
 190 398 l 1
302 -250 m 1
 192 -250 l 1
 287 -40 l 1
 427 -40 l 1
 302 -250 l 1
EndSplineSet
EndChar

StartChar: uni0210
Encoding: 528 528 145
Width: 642
Flags: W
LayerCount: 2
Fore
SplineSet
245 302 m 1
 190 302 l 1
 190 0 l 1
 80 0 l 1
 80 730 l 1
 280 730 l 2
 385 730 462 713 512 678 c 0
 560 644 585 591 585 518 c 0
 585 455 567 406 532 370 c 0
 497 336 443 314 371 306 c 1
 610 0 l 1
 480 0 l 1
 245 302 l 1
190 398 m 1
 285 398 l 2
 351 398 399 407 428 425 c 0
 458 443 473 472 473 513 c 0
 473 554 458 584 428 602 c 0
 399 621 351 630 285 630 c 2
 190 630 l 1
 190 398 l 1
64 980 m 1
 204 980 l 1
 299 770 l 1
 189 770 l 1
 64 980 l 1
289 980 m 1
 429 980 l 1
 524 770 l 1
 414 770 l 1
 289 980 l 1
EndSplineSet
EndChar

StartChar: uni0212
Encoding: 530 530 146
Width: 642
Flags: W
LayerCount: 2
Fore
SplineSet
245 302 m 1
 190 302 l 1
 190 0 l 1
 80 0 l 1
 80 730 l 1
 280 730 l 2
 385 730 462 713 512 678 c 0
 560 644 585 591 585 518 c 0
 585 455 567 406 532 370 c 0
 497 336 443 314 371 306 c 1
 610 0 l 1
 480 0 l 1
 245 302 l 1
190 398 m 1
 285 398 l 2
 351 398 399 407 428 425 c 0
 458 443 473 472 473 513 c 0
 473 554 458 584 428 602 c 0
 399 621 351 630 285 630 c 2
 190 630 l 1
 190 398 l 1
412 946 m 0
 443 931 467 911 485 885 c 0
 503 859 513 830 515 797 c 1
 398 797 l 1
 395 824 386 845 370 860 c 0
 356 874 335 881 310 881 c 0
 285 881 264 874 250 860 c 0
 234 845 225 824 222 797 c 1
 105 797 l 1
 107 830 117 859 135 885 c 0
 153 911 177 931 208 946 c 0
 238 960 272 967 310 967 c 0
 348 967 382 960 412 946 c 0
EndSplineSet
EndChar

StartChar: S
Encoding: 83 83 147
Width: 616
Flags: W
LayerCount: 2
Fore
SplineSet
163 6 m 0
 121 16 84 31 52 51 c 1
 90 145 l 1
 121 128 154 114 190 104 c 0
 227 95 263 90 298 90 c 0
 347 90 384 99 410 118 c 0
 437 136 450 162 450 197 c 0
 450 220 444 239 432 254 c 0
 419 269 403 280 383 289 c 0
 363 298 335 308 300 319 c 0
 244 336 199 354 164 373 c 0
 129 392 102 415 84 442 c 0
 64 469 55 503 55 543 c 0
 55 606 77 654 122 688 c 0
 167 723 230 740 313 740 c 0
 355 740 397 736 440 726 c 0
 483 718 518 706 547 691 c 1
 509 597 l 1
 484 610 454 621 419 628 c 0
 384 636 351 640 318 640 c 0
 270 640 233 632 208 616 c 0
 182 599 169 575 169 543 c 0
 169 522 175 504 187 490 c 0
 199 476 215 464 236 456 c 0
 256 446 283 437 318 426 c 0
 374 407 419 389 454 370 c 0
 489 351 516 328 535 300 c 0
 554 273 564 238 564 197 c 0
 565 132 542 81 495 44 c 0
 448 8 383 -10 298 -10 c 0
 250 -10 205 -5 163 6 c 0
EndSplineSet
EndChar

StartChar: Sacute
Encoding: 346 346 148
Width: 616
Flags: W
LayerCount: 2
Fore
SplineSet
163 6 m 0
 121 16 84 31 52 51 c 1
 90 145 l 1
 121 128 154 114 190 104 c 0
 227 95 263 90 298 90 c 0
 347 90 384 99 410 118 c 0
 437 136 450 162 450 197 c 0
 450 220 444 239 432 254 c 0
 419 269 403 280 383 289 c 0
 363 298 335 308 300 319 c 0
 244 336 199 354 164 373 c 0
 129 392 102 415 84 442 c 0
 64 469 55 503 55 543 c 0
 55 606 77 654 122 688 c 0
 167 723 230 740 313 740 c 0
 355 740 397 736 440 726 c 0
 483 718 518 706 547 691 c 1
 509 597 l 1
 484 610 454 621 419 628 c 0
 384 636 351 640 318 640 c 0
 270 640 233 632 208 616 c 0
 182 599 169 575 169 543 c 0
 169 522 175 504 187 490 c 0
 199 476 215 464 236 456 c 0
 256 446 283 437 318 426 c 0
 374 407 419 389 454 370 c 0
 489 351 516 328 535 300 c 0
 554 273 564 238 564 197 c 0
 565 132 542 81 495 44 c 0
 448 8 383 -10 298 -10 c 0
 250 -10 205 -5 163 6 c 0
316 770 m 1
 206 770 l 1
 301 980 l 1
 441 980 l 1
 316 770 l 1
EndSplineSet
EndChar

StartChar: Scaron
Encoding: 352 352 149
Width: 616
Flags: W
LayerCount: 2
Fore
SplineSet
163 6 m 0
 121 16 84 31 52 51 c 1
 90 145 l 1
 121 128 154 114 190 104 c 0
 227 95 263 90 298 90 c 0
 347 90 384 99 410 118 c 0
 437 136 450 162 450 197 c 0
 450 220 444 239 432 254 c 0
 419 269 403 280 383 289 c 0
 363 298 335 308 300 319 c 0
 244 336 199 354 164 373 c 0
 129 392 102 415 84 442 c 0
 64 469 55 503 55 543 c 0
 55 606 77 654 122 688 c 0
 167 723 230 740 313 740 c 0
 355 740 397 736 440 726 c 0
 483 718 518 706 547 691 c 1
 509 597 l 1
 484 610 454 621 419 628 c 0
 384 636 351 640 318 640 c 0
 270 640 233 632 208 616 c 0
 182 599 169 575 169 543 c 0
 169 522 175 504 187 490 c 0
 199 476 215 464 236 456 c 0
 256 446 283 437 318 426 c 0
 374 407 419 389 454 370 c 0
 489 351 516 328 535 300 c 0
 554 273 564 238 564 197 c 0
 565 132 542 81 495 44 c 0
 448 8 383 -10 298 -10 c 0
 250 -10 205 -5 163 6 c 0
85 980 m 1
 215 980 l 1
 305 820 l 1
 307 820 l 1
 397 980 l 1
 527 980 l 1
 402 770 l 1
 209 770 l 1
 85 980 l 1
EndSplineSet
EndChar

StartChar: Scedilla
Encoding: 350 350 150
Width: 616
Flags: W
LayerCount: 2
Fore
SplineSet
520 68 m 0
 489 33 446 10 390 -1 c 1
 429 -36 448 -73 448 -112 c 0
 448 -145 434 -171 406 -190 c 0
 378 -208 338 -217 287 -217 c 0
 244 -217 206 -210 172 -196 c 1
 189 -111 l 1
 216 -124 246 -130 278 -130 c 0
 300 -130 317 -127 328 -120 c 0
 340 -114 346 -105 346 -93 c 0
 346 -81 340 -68 328 -54 c 0
 316 -39 299 -25 276 -10 c 1
 233 -9 192 -3 154 8 c 0
 115 18 81 32 52 51 c 1
 90 145 l 1
 121 128 154 114 190 104 c 0
 227 95 263 90 298 90 c 0
 347 90 384 99 410 118 c 0
 437 136 450 162 450 197 c 0
 450 220 444 239 432 254 c 0
 419 269 403 280 383 289 c 0
 363 298 335 308 300 319 c 0
 244 336 199 354 164 373 c 0
 129 392 102 415 84 442 c 0
 64 469 55 503 55 543 c 0
 55 606 77 654 122 688 c 0
 167 723 230 740 313 740 c 0
 355 740 397 736 440 726 c 0
 483 718 518 706 547 691 c 1
 509 597 l 1
 484 610 454 621 419 628 c 0
 384 636 351 640 318 640 c 0
 270 640 233 632 208 616 c 0
 182 599 169 575 169 543 c 0
 169 522 175 504 187 490 c 0
 199 476 215 464 236 456 c 0
 256 446 283 437 318 426 c 0
 374 407 419 389 454 370 c 0
 489 351 516 328 535 300 c 0
 554 273 564 238 564 197 c 0
 565 145 550 102 520 68 c 0
EndSplineSet
EndChar

StartChar: Scircumflex
Encoding: 348 348 151
Width: 616
Flags: W
LayerCount: 2
Fore
SplineSet
163 6 m 0
 121 16 84 31 52 51 c 1
 90 145 l 1
 121 128 154 114 190 104 c 0
 227 95 263 90 298 90 c 0
 347 90 384 99 410 118 c 0
 437 136 450 162 450 197 c 0
 450 220 444 239 432 254 c 0
 419 269 403 280 383 289 c 0
 363 298 335 308 300 319 c 0
 244 336 199 354 164 373 c 0
 129 392 102 415 84 442 c 0
 64 469 55 503 55 543 c 0
 55 606 77 654 122 688 c 0
 167 723 230 740 313 740 c 0
 355 740 397 736 440 726 c 0
 483 718 518 706 547 691 c 1
 509 597 l 1
 484 610 454 621 419 628 c 0
 384 636 351 640 318 640 c 0
 270 640 233 632 208 616 c 0
 182 599 169 575 169 543 c 0
 169 522 175 504 187 490 c 0
 199 476 215 464 236 456 c 0
 256 446 283 437 318 426 c 0
 374 407 419 389 454 370 c 0
 489 351 516 328 535 300 c 0
 554 273 564 238 564 197 c 0
 565 132 542 81 495 44 c 0
 448 8 383 -10 298 -10 c 0
 250 -10 205 -5 163 6 c 0
209 980 m 1
 402 980 l 1
 527 770 l 1
 397 770 l 1
 307 930 l 1
 305 930 l 1
 215 770 l 1
 85 770 l 1
 209 980 l 1
EndSplineSet
EndChar

StartChar: uni0218
Encoding: 536 536 152
Width: 616
Flags: W
LayerCount: 2
Fore
SplineSet
163 6 m 0
 121 16 84 31 52 51 c 1
 90 145 l 1
 121 128 154 114 190 104 c 0
 227 95 263 90 298 90 c 0
 347 90 384 99 410 118 c 0
 437 136 450 162 450 197 c 0
 450 220 444 239 432 254 c 0
 419 269 403 280 383 289 c 0
 363 298 335 308 300 319 c 0
 244 336 199 354 164 373 c 0
 129 392 102 415 84 442 c 0
 64 469 55 503 55 543 c 0
 55 606 77 654 122 688 c 0
 167 723 230 740 313 740 c 0
 355 740 397 736 440 726 c 0
 483 718 518 706 547 691 c 1
 509 597 l 1
 484 610 454 621 419 628 c 0
 384 636 351 640 318 640 c 0
 270 640 233 632 208 616 c 0
 182 599 169 575 169 543 c 0
 169 522 175 504 187 490 c 0
 199 476 215 464 236 456 c 0
 256 446 283 437 318 426 c 0
 374 407 419 389 454 370 c 0
 489 351 516 328 535 300 c 0
 554 273 564 238 564 197 c 0
 565 132 542 81 495 44 c 0
 448 8 383 -10 298 -10 c 0
 250 -10 205 -5 163 6 c 0
298 -250 m 1
 188 -250 l 1
 283 -40 l 1
 423 -40 l 1
 298 -250 l 1
EndSplineSet
EndChar

StartChar: uni1E9E
Encoding: 7838 7838 153
Width: 680
Flags: W
LayerCount: 2
Fore
SplineSet
278 11 m 1
 294 108 l 1
 329 96 363 90 396 90 c 0
 443 90 479 99 504 118 c 0
 530 136 543 162 543 195 c 0
 543 231 529 258 500 274 c 0
 471 292 426 300 365 300 c 2
 355 300 l 1
 355 400 l 1
 472 561 l 1
 471 587 459 607 436 620 c 0
 413 633 380 640 337 640 c 0
 284 640 246 630 224 608 c 0
 201 588 190 552 190 503 c 2
 190 0 l 1
 80 0 l 1
 80 503 l 2
 80 582 101 642 144 681 c 0
 186 720 250 740 337 740 c 0
 500 740 582 671 582 533 c 1
 474 385 l 1
 474 383 l 1
 533 378 578 360 608 328 c 0
 640 295 655 251 655 195 c 0
 655 129 634 78 592 43 c 0
 550 8 490 -10 411 -10 c 0
 366 -10 321 -3 278 11 c 1
EndSplineSet
EndChar

StartChar: uni018F
Encoding: 399 399 154
Width: 758
Flags: W
LayerCount: 2
Fore
SplineSet
618 643 m 0
 685 578 718 486 718 365 c 0
 718 287 704 220 677 164 c 0
 650 107 610 64 559 34 c 0
 508 5 446 -10 375 -10 c 0
 305 -10 245 4 194 34 c 0
 143 62 105 105 78 160 c 0
 51 215 38 281 38 358 c 0
 38 385 39 403 41 413 c 1
 608 413 l 1
 605 489 581 546 537 584 c 0
 493 621 427 640 340 640 c 0
 257 640 177 624 101 593 c 1
 79 688 l 1
 114 704 153 717 198 726 c 0
 243 735 288 740 333 740 c 0
 457 740 552 708 618 643 c 0
540 146 m 0
 579 184 601 240 606 314 c 1
 150 314 l 1
 155 240 177 184 216 146 c 0
 255 109 309 90 378 90 c 0
 447 90 501 109 540 146 c 0
EndSplineSet
EndChar

StartChar: T
Encoding: 84 84 155
Width: 635
Flags: W
LayerCount: 2
Fore
SplineSet
261 630 m 1
 28 630 l 1
 28 730 l 1
 607 730 l 1
 607 630 l 1
 374 630 l 1
 374 0 l 1
 261 0 l 1
 261 630 l 1
EndSplineSet
EndChar

StartChar: Tbar
Encoding: 358 358 156
Width: 691
Flags: W
LayerCount: 2
Fore
SplineSet
635 630 m 1
 402 630 l 1
 402 360 l 1
 576 360 l 1
 576 270 l 1
 402 270 l 1
 402 0 l 1
 289 0 l 1
 289 270 l 1
 116 270 l 1
 116 360 l 1
 289 360 l 1
 289 630 l 1
 56 630 l 1
 56 730 l 1
 635 730 l 1
 635 630 l 1
EndSplineSet
EndChar

StartChar: Tcaron
Encoding: 356 356 157
Width: 635
Flags: W
LayerCount: 2
Fore
SplineSet
261 630 m 1
 28 630 l 1
 28 730 l 1
 607 730 l 1
 607 630 l 1
 374 630 l 1
 374 0 l 1
 261 0 l 1
 261 630 l 1
97 980 m 1
 227 980 l 1
 317 820 l 1
 319 820 l 1
 409 980 l 1
 539 980 l 1
 414 770 l 1
 221 770 l 1
 97 980 l 1
EndSplineSet
EndChar

StartChar: uni0162
Encoding: 354 354 158
Width: 635
Flags: W
LayerCount: 2
Fore
SplineSet
374 630 m 1
 374 13 l 1
 423 -26 448 -68 448 -112 c 0
 448 -145 434 -171 406 -190 c 0
 378 -208 338 -217 287 -217 c 0
 244 -217 206 -210 172 -196 c 1
 189 -111 l 1
 216 -124 246 -130 278 -130 c 0
 300 -130 317 -127 328 -120 c 0
 340 -114 346 -105 346 -93 c 0
 346 -80 338 -65 324 -48 c 0
 308 -32 288 -16 261 0 c 1
 261 630 l 1
 28 630 l 1
 28 730 l 1
 607 730 l 1
 607 630 l 1
 374 630 l 1
EndSplineSet
EndChar

StartChar: uni021A
Encoding: 538 538 159
Width: 635
Flags: W
LayerCount: 2
Fore
SplineSet
261 630 m 1
 28 630 l 1
 28 730 l 1
 607 730 l 1
 607 630 l 1
 374 630 l 1
 374 0 l 1
 261 0 l 1
 261 630 l 1
310 -250 m 1
 200 -250 l 1
 295 -40 l 1
 435 -40 l 1
 310 -250 l 1
EndSplineSet
EndChar

StartChar: U
Encoding: 85 85 160
Width: 704
Flags: W
LayerCount: 2
Fore
SplineSet
144 62 m 0
 96 109 72 179 72 270 c 2
 72 730 l 1
 182 730 l 1
 182 283 l 2
 182 216 196 168 222 136 c 0
 250 106 293 90 352 90 c 0
 411 90 454 106 482 136 c 0
 508 168 522 216 522 283 c 2
 522 730 l 1
 632 730 l 1
 632 270 l 2
 632 179 608 109 560 62 c 0
 513 14 443 -10 352 -10 c 0
 261 -10 191 14 144 62 c 0
EndSplineSet
EndChar

StartChar: Uacute
Encoding: 218 218 161
Width: 704
Flags: W
LayerCount: 2
Fore
SplineSet
144 62 m 0
 96 109 72 179 72 270 c 2
 72 730 l 1
 182 730 l 1
 182 283 l 2
 182 216 196 168 222 136 c 0
 250 106 293 90 352 90 c 0
 411 90 454 106 482 136 c 0
 508 168 522 216 522 283 c 2
 522 730 l 1
 632 730 l 1
 632 270 l 2
 632 179 608 109 560 62 c 0
 513 14 443 -10 352 -10 c 0
 261 -10 191 14 144 62 c 0
362 770 m 1
 252 770 l 1
 347 980 l 1
 487 980 l 1
 362 770 l 1
EndSplineSet
EndChar

StartChar: Ubreve
Encoding: 364 364 162
Width: 704
Flags: W
LayerCount: 2
Fore
SplineSet
144 62 m 0
 96 109 72 179 72 270 c 2
 72 730 l 1
 182 730 l 1
 182 283 l 2
 182 216 196 168 222 136 c 0
 250 106 293 90 352 90 c 0
 411 90 454 106 482 136 c 0
 508 168 522 216 522 283 c 2
 522 730 l 1
 632 730 l 1
 632 270 l 2
 632 179 608 109 560 62 c 0
 513 14 443 -10 352 -10 c 0
 261 -10 191 14 144 62 c 0
250 804 m 0
 219 819 195 839 177 865 c 0
 159 891 149 920 147 953 c 1
 264 953 l 1
 267 926 276 905 292 890 c 0
 306 876 327 869 352 869 c 0
 377 869 398 876 412 890 c 0
 428 905 437 926 440 953 c 1
 557 953 l 1
 555 920 545 891 527 865 c 0
 509 839 485 819 454 804 c 0
 424 790 390 783 352 783 c 0
 314 783 280 790 250 804 c 0
EndSplineSet
EndChar

StartChar: Ucircumflex
Encoding: 219 219 163
Width: 704
Flags: W
LayerCount: 2
Fore
SplineSet
144 62 m 0
 96 109 72 179 72 270 c 2
 72 730 l 1
 182 730 l 1
 182 283 l 2
 182 216 196 168 222 136 c 0
 250 106 293 90 352 90 c 0
 411 90 454 106 482 136 c 0
 508 168 522 216 522 283 c 2
 522 730 l 1
 632 730 l 1
 632 270 l 2
 632 179 608 109 560 62 c 0
 513 14 443 -10 352 -10 c 0
 261 -10 191 14 144 62 c 0
255 980 m 1
 448 980 l 1
 573 770 l 1
 443 770 l 1
 353 930 l 1
 351 930 l 1
 261 770 l 1
 131 770 l 1
 255 980 l 1
EndSplineSet
EndChar

StartChar: uni0214
Encoding: 532 532 164
Width: 704
Flags: W
LayerCount: 2
Fore
SplineSet
144 62 m 0
 96 109 72 179 72 270 c 2
 72 730 l 1
 182 730 l 1
 182 283 l 2
 182 216 196 168 222 136 c 0
 250 106 293 90 352 90 c 0
 411 90 454 106 482 136 c 0
 508 168 522 216 522 283 c 2
 522 730 l 1
 632 730 l 1
 632 270 l 2
 632 179 608 109 560 62 c 0
 513 14 443 -10 352 -10 c 0
 261 -10 191 14 144 62 c 0
106 980 m 1
 246 980 l 1
 341 770 l 1
 231 770 l 1
 106 980 l 1
331 980 m 1
 471 980 l 1
 566 770 l 1
 456 770 l 1
 331 980 l 1
EndSplineSet
EndChar

StartChar: Udieresis
Encoding: 220 220 165
Width: 704
Flags: W
LayerCount: 2
Fore
SplineSet
144 62 m 0
 96 109 72 179 72 270 c 2
 72 730 l 1
 182 730 l 1
 182 283 l 2
 182 216 196 168 222 136 c 0
 250 106 293 90 352 90 c 0
 411 90 454 106 482 136 c 0
 508 168 522 216 522 283 c 2
 522 730 l 1
 632 730 l 1
 632 270 l 2
 632 179 608 109 560 62 c 0
 513 14 443 -10 352 -10 c 0
 261 -10 191 14 144 62 c 0
162 938 m 1
 288 938 l 1
 288 812 l 1
 162 812 l 1
 162 938 l 1
416 938 m 1
 542 938 l 1
 542 812 l 1
 416 812 l 1
 416 938 l 1
EndSplineSet
EndChar

StartChar: uni1EE4
Encoding: 7908 7908 166
Width: 704
Flags: W
LayerCount: 2
Fore
SplineSet
144 62 m 0
 96 109 72 179 72 270 c 2
 72 730 l 1
 182 730 l 1
 182 283 l 2
 182 216 196 168 222 136 c 0
 250 106 293 90 352 90 c 0
 411 90 454 106 482 136 c 0
 508 168 522 216 522 283 c 2
 522 730 l 1
 632 730 l 1
 632 270 l 2
 632 179 608 109 560 62 c 0
 513 14 443 -10 352 -10 c 0
 261 -10 191 14 144 62 c 0
289 -82 m 1
 415 -82 l 1
 415 -208 l 1
 289 -208 l 1
 289 -82 l 1
EndSplineSet
EndChar

StartChar: Ugrave
Encoding: 217 217 167
Width: 704
Flags: W
LayerCount: 2
Fore
SplineSet
144 62 m 0
 96 109 72 179 72 270 c 2
 72 730 l 1
 182 730 l 1
 182 283 l 2
 182 216 196 168 222 136 c 0
 250 106 293 90 352 90 c 0
 411 90 454 106 482 136 c 0
 508 168 522 216 522 283 c 2
 522 730 l 1
 632 730 l 1
 632 270 l 2
 632 179 608 109 560 62 c 0
 513 14 443 -10 352 -10 c 0
 261 -10 191 14 144 62 c 0
217 980 m 1
 357 980 l 1
 452 770 l 1
 342 770 l 1
 217 980 l 1
EndSplineSet
EndChar

StartChar: uni1EE6
Encoding: 7910 7910 168
Width: 704
Flags: W
LayerCount: 2
Fore
SplineSet
144 62 m 0
 96 109 72 179 72 270 c 2
 72 730 l 1
 182 730 l 1
 182 283 l 2
 182 216 196 168 222 136 c 0
 250 106 293 90 352 90 c 0
 411 90 454 106 482 136 c 0
 508 168 522 216 522 283 c 2
 522 730 l 1
 632 730 l 1
 632 270 l 2
 632 179 608 109 560 62 c 0
 513 14 443 -10 352 -10 c 0
 261 -10 191 14 144 62 c 0
391 826 m 0
 394 840 395 850 395 859 c 0
 395 874 390 884 380 888 c 0
 371 894 353 896 327 896 c 0
 284 896 243 890 203 878 c 1
 193 965 l 1
 243 977 296 983 353 983 c 0
 394 983 426 980 449 976 c 0
 472 970 488 962 498 950 c 0
 507 939 512 922 512 900 c 0
 512 884 510 866 506 846 c 0
 503 826 498 808 492 793 c 1
 382 793 l 1
 385 802 388 814 391 826 c 0
EndSplineSet
EndChar

StartChar: Uhorn
Encoding: 431 431 169
Width: 804
Flags: W
LayerCount: 2
Fore
SplineSet
834 720 m 0
 834 675 823 639 800 614 c 0
 778 588 747 575 706 575 c 0
 683 575 658 580 632 589 c 1
 632 270 l 2
 632 179 608 109 560 62 c 0
 513 14 443 -10 352 -10 c 0
 261 -10 191 14 144 62 c 0
 96 109 72 179 72 270 c 2
 72 730 l 1
 182 730 l 1
 182 283 l 2
 182 216 196 168 222 136 c 0
 250 106 293 90 352 90 c 0
 411 90 454 106 482 136 c 0
 508 168 522 216 522 283 c 2
 522 730 l 1
 632 730 l 1
 632 677 l 1
 642 671 654 668 667 668 c 0
 684 668 698 674 708 686 c 0
 717 697 722 713 722 734 c 0
 722 749 720 768 716 789 c 0
 711 810 706 827 701 840 c 1
 814 840 l 1
 827 799 834 759 834 720 c 0
EndSplineSet
EndChar

StartChar: uni1EE8
Encoding: 7912 7912 170
Width: 804
Flags: W
LayerCount: 2
Fore
SplineSet
834 720 m 0
 834 675 823 639 800 614 c 0
 778 588 747 575 706 575 c 0
 683 575 658 580 632 589 c 1
 632 270 l 2
 632 179 608 109 560 62 c 0
 513 14 443 -10 352 -10 c 0
 261 -10 191 14 144 62 c 0
 96 109 72 179 72 270 c 2
 72 730 l 1
 182 730 l 1
 182 283 l 2
 182 216 196 168 222 136 c 0
 250 106 293 90 352 90 c 0
 411 90 454 106 482 136 c 0
 508 168 522 216 522 283 c 2
 522 730 l 1
 632 730 l 1
 632 677 l 1
 642 671 654 668 667 668 c 0
 684 668 698 674 708 686 c 0
 717 697 722 713 722 734 c 0
 722 749 720 768 716 789 c 0
 711 810 706 827 701 840 c 1
 814 840 l 1
 827 799 834 759 834 720 c 0
362 770 m 1
 252 770 l 1
 347 980 l 1
 487 980 l 1
 362 770 l 1
EndSplineSet
EndChar

StartChar: uni1EF0
Encoding: 7920 7920 171
Width: 804
Flags: W
LayerCount: 2
Fore
SplineSet
834 720 m 0
 834 675 823 639 800 614 c 0
 778 588 747 575 706 575 c 0
 683 575 658 580 632 589 c 1
 632 270 l 2
 632 179 608 109 560 62 c 0
 513 14 443 -10 352 -10 c 0
 261 -10 191 14 144 62 c 0
 96 109 72 179 72 270 c 2
 72 730 l 1
 182 730 l 1
 182 283 l 2
 182 216 196 168 222 136 c 0
 250 106 293 90 352 90 c 0
 411 90 454 106 482 136 c 0
 508 168 522 216 522 283 c 2
 522 730 l 1
 632 730 l 1
 632 677 l 1
 642 671 654 668 667 668 c 0
 684 668 698 674 708 686 c 0
 717 697 722 713 722 734 c 0
 722 749 720 768 716 789 c 0
 711 810 706 827 701 840 c 1
 814 840 l 1
 827 799 834 759 834 720 c 0
289 -82 m 1
 415 -82 l 1
 415 -208 l 1
 289 -208 l 1
 289 -82 l 1
EndSplineSet
EndChar

StartChar: uni1EEA
Encoding: 7914 7914 172
Width: 804
Flags: W
LayerCount: 2
Fore
SplineSet
834 720 m 0
 834 675 823 639 800 614 c 0
 778 588 747 575 706 575 c 0
 683 575 658 580 632 589 c 1
 632 270 l 2
 632 179 608 109 560 62 c 0
 513 14 443 -10 352 -10 c 0
 261 -10 191 14 144 62 c 0
 96 109 72 179 72 270 c 2
 72 730 l 1
 182 730 l 1
 182 283 l 2
 182 216 196 168 222 136 c 0
 250 106 293 90 352 90 c 0
 411 90 454 106 482 136 c 0
 508 168 522 216 522 283 c 2
 522 730 l 1
 632 730 l 1
 632 677 l 1
 642 671 654 668 667 668 c 0
 684 668 698 674 708 686 c 0
 717 697 722 713 722 734 c 0
 722 749 720 768 716 789 c 0
 711 810 706 827 701 840 c 1
 814 840 l 1
 827 799 834 759 834 720 c 0
217 980 m 1
 357 980 l 1
 452 770 l 1
 342 770 l 1
 217 980 l 1
EndSplineSet
EndChar

StartChar: uni1EEC
Encoding: 7916 7916 173
Width: 804
Flags: W
LayerCount: 2
Fore
SplineSet
834 720 m 0
 834 675 823 639 800 614 c 0
 778 588 747 575 706 575 c 0
 683 575 658 580 632 589 c 1
 632 270 l 2
 632 179 608 109 560 62 c 0
 513 14 443 -10 352 -10 c 0
 261 -10 191 14 144 62 c 0
 96 109 72 179 72 270 c 2
 72 730 l 1
 182 730 l 1
 182 283 l 2
 182 216 196 168 222 136 c 0
 250 106 293 90 352 90 c 0
 411 90 454 106 482 136 c 0
 508 168 522 216 522 283 c 2
 522 730 l 1
 632 730 l 1
 632 677 l 1
 642 671 654 668 667 668 c 0
 684 668 698 674 708 686 c 0
 717 697 722 713 722 734 c 0
 722 749 720 768 716 789 c 0
 711 810 706 827 701 840 c 1
 814 840 l 1
 827 799 834 759 834 720 c 0
391 826 m 0
 394 840 395 850 395 859 c 0
 395 874 390 884 380 888 c 0
 371 894 353 896 327 896 c 0
 284 896 243 890 203 878 c 1
 193 965 l 1
 243 977 296 983 353 983 c 0
 394 983 426 980 449 976 c 0
 472 970 488 962 498 950 c 0
 507 939 512 922 512 900 c 0
 512 884 510 866 506 846 c 0
 503 826 498 808 492 793 c 1
 382 793 l 1
 385 802 388 814 391 826 c 0
EndSplineSet
EndChar

StartChar: uni1EEE
Encoding: 7918 7918 174
Width: 804
Flags: W
LayerCount: 2
Fore
SplineSet
834 720 m 0
 834 675 823 639 800 614 c 0
 778 588 747 575 706 575 c 0
 683 575 658 580 632 589 c 1
 632 270 l 2
 632 179 608 109 560 62 c 0
 513 14 443 -10 352 -10 c 0
 261 -10 191 14 144 62 c 0
 96 109 72 179 72 270 c 2
 72 730 l 1
 182 730 l 1
 182 283 l 2
 182 216 196 168 222 136 c 0
 250 106 293 90 352 90 c 0
 411 90 454 106 482 136 c 0
 508 168 522 216 522 283 c 2
 522 730 l 1
 632 730 l 1
 632 677 l 1
 642 671 654 668 667 668 c 0
 684 668 698 674 708 686 c 0
 717 697 722 713 722 734 c 0
 722 749 720 768 716 789 c 0
 711 810 706 827 701 840 c 1
 814 840 l 1
 827 799 834 759 834 720 c 0
412 796 m 0
 394 803 371 814 344 829 c 0
 313 848 290 857 276 857 c 0
 266 857 259 852 254 844 c 0
 249 834 247 819 247 797 c 1
 147 797 l 1
 147 854 155 896 170 923 c 0
 186 950 210 963 243 963 c 0
 259 963 276 960 294 954 c 0
 312 947 334 936 360 921 c 0
 391 902 414 893 428 893 c 0
 438 893 445 898 450 907 c 0
 455 916 457 932 457 953 c 1
 557 953 l 1
 557 896 549 854 534 827 c 0
 518 800 494 787 461 787 c 0
 446 787 429 790 412 796 c 0
EndSplineSet
EndChar

StartChar: Uhungarumlaut
Encoding: 368 368 175
Width: 704
Flags: W
LayerCount: 2
Fore
SplineSet
144 62 m 0
 96 109 72 179 72 270 c 2
 72 730 l 1
 182 730 l 1
 182 283 l 2
 182 216 196 168 222 136 c 0
 250 106 293 90 352 90 c 0
 411 90 454 106 482 136 c 0
 508 168 522 216 522 283 c 2
 522 730 l 1
 632 730 l 1
 632 270 l 2
 632 179 608 109 560 62 c 0
 513 14 443 -10 352 -10 c 0
 261 -10 191 14 144 62 c 0
252 770 m 1
 142 770 l 1
 237 980 l 1
 377 980 l 1
 252 770 l 1
477 770 m 1
 367 770 l 1
 462 980 l 1
 602 980 l 1
 477 770 l 1
EndSplineSet
EndChar

StartChar: uni0216
Encoding: 534 534 176
Width: 704
Flags: W
LayerCount: 2
Fore
SplineSet
144 62 m 0
 96 109 72 179 72 270 c 2
 72 730 l 1
 182 730 l 1
 182 283 l 2
 182 216 196 168 222 136 c 0
 250 106 293 90 352 90 c 0
 411 90 454 106 482 136 c 0
 508 168 522 216 522 283 c 2
 522 730 l 1
 632 730 l 1
 632 270 l 2
 632 179 608 109 560 62 c 0
 513 14 443 -10 352 -10 c 0
 261 -10 191 14 144 62 c 0
454 946 m 0
 485 931 509 911 527 885 c 0
 545 859 555 830 557 797 c 1
 440 797 l 1
 437 824 428 845 412 860 c 0
 398 874 377 881 352 881 c 0
 327 881 306 874 292 860 c 0
 276 845 267 824 264 797 c 1
 147 797 l 1
 149 830 159 859 177 885 c 0
 195 911 219 931 250 946 c 0
 280 960 314 967 352 967 c 0
 390 967 424 960 454 946 c 0
EndSplineSet
EndChar

StartChar: Umacron
Encoding: 362 362 177
Width: 704
Flags: W
LayerCount: 2
Fore
SplineSet
144 62 m 0
 96 109 72 179 72 270 c 2
 72 730 l 1
 182 730 l 1
 182 283 l 2
 182 216 196 168 222 136 c 0
 250 106 293 90 352 90 c 0
 411 90 454 106 482 136 c 0
 508 168 522 216 522 283 c 2
 522 730 l 1
 632 730 l 1
 632 270 l 2
 632 179 608 109 560 62 c 0
 513 14 443 -10 352 -10 c 0
 261 -10 191 14 144 62 c 0
163 918 m 1
 541 918 l 1
 541 832 l 1
 163 832 l 1
 163 918 l 1
EndSplineSet
EndChar

StartChar: Uogonek
Encoding: 370 370 178
Width: 704
Flags: W
LayerCount: 2
Fore
SplineSet
415 -38 m 0
 400 -55 393 -70 393 -83 c 0
 393 -95 399 -104 410 -110 c 0
 422 -117 439 -120 461 -120 c 0
 493 -120 523 -114 550 -101 c 1
 567 -186 l 1
 533 -200 495 -207 452 -207 c 0
 401 -207 361 -198 333 -180 c 0
 305 -161 291 -135 291 -102 c 0
 291 -70 304 -39 330 -10 c 1
 245 -6 181 20 138 67 c 0
 94 114 72 182 72 270 c 2
 72 730 l 1
 182 730 l 1
 182 283 l 2
 182 216 196 168 222 136 c 0
 250 106 293 90 352 90 c 0
 411 90 454 106 482 136 c 0
 508 168 522 216 522 283 c 2
 522 730 l 1
 632 730 l 1
 632 270 l 2
 632 203 619 147 593 103 c 0
 567 59 528 28 477 9 c 1
 450 -6 430 -22 415 -38 c 0
EndSplineSet
EndChar

StartChar: Uring
Encoding: 366 366 179
Width: 704
Flags: W
LayerCount: 2
Fore
SplineSet
144 62 m 0
 96 109 72 179 72 270 c 2
 72 730 l 1
 182 730 l 1
 182 283 l 2
 182 216 196 168 222 136 c 0
 250 106 293 90 352 90 c 0
 411 90 454 106 482 136 c 0
 508 168 522 216 522 283 c 2
 522 730 l 1
 632 730 l 1
 632 270 l 2
 632 179 608 109 560 62 c 0
 513 14 443 -10 352 -10 c 0
 261 -10 191 14 144 62 c 0
278 745 m 0
 254 758 236 776 223 800 c 0
 210 822 203 848 203 875 c 0
 203 902 210 928 223 950 c 0
 236 974 254 992 278 1005 c 0
 300 1018 326 1025 353 1025 c 0
 380 1025 406 1018 428 1005 c 0
 452 992 470 974 483 950 c 0
 496 928 503 902 503 875 c 0
 503 848 496 822 483 800 c 0
 470 776 452 758 428 745 c 0
 406 732 380 725 353 725 c 0
 326 725 300 732 278 745 c 0
402 826 m 0
 416 839 423 856 423 875 c 0
 423 894 416 911 402 924 c 0
 389 938 372 945 353 945 c 0
 334 945 317 938 304 924 c 0
 290 911 283 894 283 875 c 0
 283 856 290 839 304 826 c 0
 317 812 334 805 353 805 c 0
 372 805 389 812 402 826 c 0
EndSplineSet
EndChar

StartChar: Utilde
Encoding: 360 360 180
Width: 704
Flags: W
LayerCount: 2
Fore
SplineSet
144 62 m 0
 96 109 72 179 72 270 c 2
 72 730 l 1
 182 730 l 1
 182 283 l 2
 182 216 196 168 222 136 c 0
 250 106 293 90 352 90 c 0
 411 90 454 106 482 136 c 0
 508 168 522 216 522 283 c 2
 522 730 l 1
 632 730 l 1
 632 270 l 2
 632 179 608 109 560 62 c 0
 513 14 443 -10 352 -10 c 0
 261 -10 191 14 144 62 c 0
412 796 m 0
 394 803 371 814 344 829 c 0
 313 848 290 857 276 857 c 0
 266 857 259 852 254 844 c 0
 249 834 247 819 247 797 c 1
 147 797 l 1
 147 854 155 896 170 923 c 0
 186 950 210 963 243 963 c 0
 259 963 276 960 294 954 c 0
 312 947 334 936 360 921 c 0
 391 902 414 893 428 893 c 0
 438 893 445 898 450 907 c 0
 455 916 457 932 457 953 c 1
 557 953 l 1
 557 896 549 854 534 827 c 0
 518 800 494 787 461 787 c 0
 446 787 429 790 412 796 c 0
EndSplineSet
EndChar

StartChar: V
Encoding: 86 86 181
Width: 674
Flags: W
LayerCount: 2
Fore
SplineSet
12 730 m 1
 133 730 l 1
 336 110 l 1
 338 110 l 1
 541 730 l 1
 662 730 l 1
 410 0 l 1
 265 0 l 1
 12 730 l 1
EndSplineSet
EndChar

StartChar: W
Encoding: 87 87 182
Width: 931
Flags: W
LayerCount: 2
Fore
SplineSet
139 730 m 1
 268 120 l 1
 270 120 l 1
 399 730 l 1
 539 730 l 1
 668 120 l 1
 670 120 l 1
 799 730 l 1
 907 730 l 1
 732 0 l 1
 597 0 l 1
 468 610 l 1
 466 610 l 1
 337 0 l 1
 202 0 l 1
 27 730 l 1
 139 730 l 1
EndSplineSet
EndChar

StartChar: Wacute
Encoding: 7810 7810 183
Width: 931
Flags: W
LayerCount: 2
Fore
SplineSet
139 730 m 1
 268 120 l 1
 270 120 l 1
 399 730 l 1
 539 730 l 1
 668 120 l 1
 670 120 l 1
 799 730 l 1
 907 730 l 1
 732 0 l 1
 597 0 l 1
 468 610 l 1
 466 610 l 1
 337 0 l 1
 202 0 l 1
 27 730 l 1
 139 730 l 1
475 770 m 1
 365 770 l 1
 460 980 l 1
 600 980 l 1
 475 770 l 1
EndSplineSet
EndChar

StartChar: Wcircumflex
Encoding: 372 372 184
Width: 931
Flags: W
LayerCount: 2
Fore
SplineSet
139 730 m 1
 268 120 l 1
 270 120 l 1
 399 730 l 1
 539 730 l 1
 668 120 l 1
 670 120 l 1
 799 730 l 1
 907 730 l 1
 732 0 l 1
 597 0 l 1
 468 610 l 1
 466 610 l 1
 337 0 l 1
 202 0 l 1
 27 730 l 1
 139 730 l 1
368 980 m 1
 561 980 l 1
 686 770 l 1
 556 770 l 1
 466 930 l 1
 464 930 l 1
 374 770 l 1
 244 770 l 1
 368 980 l 1
EndSplineSet
EndChar

StartChar: Wdieresis
Encoding: 7812 7812 185
Width: 931
Flags: W
LayerCount: 2
Fore
SplineSet
139 730 m 1
 268 120 l 1
 270 120 l 1
 399 730 l 1
 539 730 l 1
 668 120 l 1
 670 120 l 1
 799 730 l 1
 907 730 l 1
 732 0 l 1
 597 0 l 1
 468 610 l 1
 466 610 l 1
 337 0 l 1
 202 0 l 1
 27 730 l 1
 139 730 l 1
275 938 m 1
 401 938 l 1
 401 812 l 1
 275 812 l 1
 275 938 l 1
529 938 m 1
 655 938 l 1
 655 812 l 1
 529 812 l 1
 529 938 l 1
EndSplineSet
EndChar

StartChar: Wgrave
Encoding: 7808 7808 186
Width: 931
Flags: W
LayerCount: 2
Fore
SplineSet
139 730 m 1
 268 120 l 1
 270 120 l 1
 399 730 l 1
 539 730 l 1
 668 120 l 1
 670 120 l 1
 799 730 l 1
 907 730 l 1
 732 0 l 1
 597 0 l 1
 468 610 l 1
 466 610 l 1
 337 0 l 1
 202 0 l 1
 27 730 l 1
 139 730 l 1
330 980 m 1
 470 980 l 1
 565 770 l 1
 455 770 l 1
 330 980 l 1
EndSplineSet
EndChar

StartChar: X
Encoding: 88 88 187
Width: 688
Flags: W
LayerCount: 2
Fore
SplineSet
263 367 m 1
 47 730 l 1
 172 730 l 1
 343 431 l 1
 345 431 l 1
 516 730 l 1
 641 730 l 1
 425 367 l 1
 644 0 l 1
 519 0 l 1
 345 304 l 1
 343 304 l 1
 169 0 l 1
 44 0 l 1
 263 367 l 1
EndSplineSet
EndChar

StartChar: Y
Encoding: 89 89 188
Width: 654
Flags: W
LayerCount: 2
Fore
SplineSet
270 294 m 1
 7 730 l 1
 133 730 l 1
 326 396 l 1
 328 396 l 1
 521 730 l 1
 647 730 l 1
 384 294 l 1
 384 0 l 1
 270 0 l 1
 270 294 l 1
EndSplineSet
EndChar

StartChar: Yacute
Encoding: 221 221 189
Width: 654
Flags: W
LayerCount: 2
Fore
SplineSet
270 294 m 1
 7 730 l 1
 133 730 l 1
 326 396 l 1
 328 396 l 1
 521 730 l 1
 647 730 l 1
 384 294 l 1
 384 0 l 1
 270 0 l 1
 270 294 l 1
337 770 m 1
 227 770 l 1
 322 980 l 1
 462 980 l 1
 337 770 l 1
EndSplineSet
EndChar

StartChar: Ycircumflex
Encoding: 374 374 190
Width: 654
Flags: W
LayerCount: 2
Fore
SplineSet
270 294 m 1
 7 730 l 1
 133 730 l 1
 326 396 l 1
 328 396 l 1
 521 730 l 1
 647 730 l 1
 384 294 l 1
 384 0 l 1
 270 0 l 1
 270 294 l 1
230 980 m 1
 423 980 l 1
 548 770 l 1
 418 770 l 1
 328 930 l 1
 326 930 l 1
 236 770 l 1
 106 770 l 1
 230 980 l 1
EndSplineSet
EndChar

StartChar: Ydieresis
Encoding: 376 376 191
Width: 654
Flags: W
LayerCount: 2
Fore
SplineSet
270 294 m 1
 7 730 l 1
 133 730 l 1
 326 396 l 1
 328 396 l 1
 521 730 l 1
 647 730 l 1
 384 294 l 1
 384 0 l 1
 270 0 l 1
 270 294 l 1
137 938 m 1
 263 938 l 1
 263 812 l 1
 137 812 l 1
 137 938 l 1
391 938 m 1
 517 938 l 1
 517 812 l 1
 391 812 l 1
 391 938 l 1
EndSplineSet
EndChar

StartChar: uni1EF4
Encoding: 7924 7924 192
Width: 654
Flags: W
LayerCount: 2
Fore
SplineSet
270 294 m 1
 7 730 l 1
 133 730 l 1
 326 396 l 1
 328 396 l 1
 521 730 l 1
 647 730 l 1
 384 294 l 1
 384 0 l 1
 270 0 l 1
 270 294 l 1
264 -82 m 1
 390 -82 l 1
 390 -208 l 1
 264 -208 l 1
 264 -82 l 1
EndSplineSet
EndChar

StartChar: Ygrave
Encoding: 7922 7922 193
Width: 654
Flags: W
LayerCount: 2
Fore
SplineSet
270 294 m 1
 7 730 l 1
 133 730 l 1
 326 396 l 1
 328 396 l 1
 521 730 l 1
 647 730 l 1
 384 294 l 1
 384 0 l 1
 270 0 l 1
 270 294 l 1
192 980 m 1
 332 980 l 1
 427 770 l 1
 317 770 l 1
 192 980 l 1
EndSplineSet
EndChar

StartChar: uni1EF6
Encoding: 7926 7926 194
Width: 654
Flags: W
LayerCount: 2
Fore
SplineSet
270 294 m 1
 7 730 l 1
 133 730 l 1
 326 396 l 1
 328 396 l 1
 521 730 l 1
 647 730 l 1
 384 294 l 1
 384 0 l 1
 270 0 l 1
 270 294 l 1
366 826 m 0
 369 840 370 850 370 859 c 0
 370 874 365 884 356 888 c 0
 346 894 328 896 302 896 c 0
 259 896 218 890 178 878 c 1
 168 965 l 1
 218 977 271 983 328 983 c 0
 369 983 401 980 424 976 c 0
 447 970 463 962 472 950 c 0
 482 939 487 922 487 900 c 0
 487 884 485 866 482 846 c 0
 478 826 473 808 467 793 c 1
 357 793 l 1
 360 802 363 814 366 826 c 0
EndSplineSet
EndChar

StartChar: uni0232
Encoding: 562 562 195
Width: 654
Flags: W
LayerCount: 2
Fore
SplineSet
270 294 m 1
 7 730 l 1
 133 730 l 1
 326 396 l 1
 328 396 l 1
 521 730 l 1
 647 730 l 1
 384 294 l 1
 384 0 l 1
 270 0 l 1
 270 294 l 1
138 918 m 1
 516 918 l 1
 516 832 l 1
 138 832 l 1
 138 918 l 1
EndSplineSet
EndChar

StartChar: uni1EF8
Encoding: 7928 7928 196
Width: 654
Flags: W
LayerCount: 2
Fore
SplineSet
270 294 m 1
 7 730 l 1
 133 730 l 1
 326 396 l 1
 328 396 l 1
 521 730 l 1
 647 730 l 1
 384 294 l 1
 384 0 l 1
 270 0 l 1
 270 294 l 1
386 796 m 0
 369 803 346 814 319 829 c 0
 288 848 265 857 251 857 c 0
 241 857 234 852 229 844 c 0
 224 834 222 819 222 797 c 1
 122 797 l 1
 122 854 130 896 146 923 c 0
 161 950 185 963 218 963 c 0
 234 963 251 960 269 954 c 0
 287 947 309 936 335 921 c 0
 366 902 389 893 403 893 c 0
 413 893 420 898 425 907 c 0
 430 916 432 932 432 953 c 1
 532 953 l 1
 532 896 524 854 508 827 c 0
 493 800 469 787 436 787 c 0
 421 787 404 790 386 796 c 0
EndSplineSet
EndChar

StartChar: Z
Encoding: 90 90 197
Width: 638
Flags: W
LayerCount: 2
Fore
SplineSet
64 100 m 1
 439 628 l 1
 439 630 l 1
 64 630 l 1
 64 730 l 1
 574 730 l 1
 574 630 l 1
 199 102 l 1
 199 100 l 1
 574 100 l 1
 574 0 l 1
 64 0 l 1
 64 100 l 1
EndSplineSet
EndChar

StartChar: Zacute
Encoding: 377 377 198
Width: 638
Flags: W
LayerCount: 2
Fore
SplineSet
64 100 m 1
 439 628 l 1
 439 630 l 1
 64 630 l 1
 64 730 l 1
 574 730 l 1
 574 630 l 1
 199 102 l 1
 199 100 l 1
 574 100 l 1
 574 0 l 1
 64 0 l 1
 64 100 l 1
329 770 m 1
 219 770 l 1
 314 980 l 1
 454 980 l 1
 329 770 l 1
EndSplineSet
EndChar

StartChar: Zcaron
Encoding: 381 381 199
Width: 638
Flags: W
LayerCount: 2
Fore
SplineSet
64 100 m 1
 439 628 l 1
 439 630 l 1
 64 630 l 1
 64 730 l 1
 574 730 l 1
 574 630 l 1
 199 102 l 1
 199 100 l 1
 574 100 l 1
 574 0 l 1
 64 0 l 1
 64 100 l 1
98 980 m 1
 228 980 l 1
 318 820 l 1
 320 820 l 1
 410 980 l 1
 540 980 l 1
 415 770 l 1
 222 770 l 1
 98 980 l 1
EndSplineSet
EndChar

StartChar: Zdotaccent
Encoding: 379 379 200
Width: 638
Flags: W
LayerCount: 2
Fore
SplineSet
64 100 m 1
 439 628 l 1
 439 630 l 1
 64 630 l 1
 64 730 l 1
 574 730 l 1
 574 630 l 1
 199 102 l 1
 199 100 l 1
 574 100 l 1
 574 0 l 1
 64 0 l 1
 64 100 l 1
256 938 m 1
 382 938 l 1
 382 812 l 1
 256 812 l 1
 256 938 l 1
EndSplineSet
EndChar

StartChar: a
Encoding: 97 97 201
Width: 547
Flags: W
LayerCount: 2
Fore
SplineSet
396 510 m 0
 426 496 448 474 462 444 c 0
 475 415 482 375 482 325 c 2
 482 0 l 1
 379 0 l 1
 378 69 l 1
 376 69 l 1
 357 44 332 25 302 11 c 0
 270 -3 236 -10 199 -10 c 0
 146 -10 105 4 74 32 c 0
 44 60 29 98 29 145 c 0
 29 207 55 255 108 288 c 0
 161 321 236 338 333 338 c 2
 374 338 l 1
 373 377 365 404 350 418 c 0
 335 433 307 440 267 440 c 0
 200 440 136 426 75 397 c 1
 47 481 l 1
 114 514 190 530 275 530 c 0
 326 530 366 523 396 510 c 0
298 96 m 0
 321 107 339 123 353 142 c 0
 367 161 374 182 374 203 c 2
 374 253 l 1
 333 253 l 2
 269 253 220 244 187 228 c 0
 154 210 137 186 137 154 c 0
 137 131 145 113 162 99 c 0
 178 85 200 78 227 78 c 0
 252 78 275 84 298 96 c 0
EndSplineSet
EndChar

StartChar: aacute
Encoding: 225 225 202
Width: 547
Flags: W
LayerCount: 2
Fore
SplineSet
396 510 m 0
 426 496 448 474 462 444 c 0
 475 415 482 375 482 325 c 2
 482 0 l 1
 379 0 l 1
 378 69 l 1
 376 69 l 1
 357 44 332 25 302 11 c 0
 270 -3 236 -10 199 -10 c 0
 146 -10 105 4 74 32 c 0
 44 60 29 98 29 145 c 0
 29 207 55 255 108 288 c 0
 161 321 236 338 333 338 c 2
 374 338 l 1
 373 377 365 404 350 418 c 0
 335 433 307 440 267 440 c 0
 200 440 136 426 75 397 c 1
 47 481 l 1
 114 514 190 530 275 530 c 0
 326 530 366 523 396 510 c 0
298 96 m 0
 321 107 339 123 353 142 c 0
 367 161 374 182 374 203 c 2
 374 253 l 1
 333 253 l 2
 269 253 220 244 187 228 c 0
 154 210 137 186 137 154 c 0
 137 131 145 113 162 99 c 0
 178 85 200 78 227 78 c 0
 252 78 275 84 298 96 c 0
270 560 m 1
 160 560 l 1
 255 770 l 1
 395 770 l 1
 270 560 l 1
EndSplineSet
EndChar

StartChar: abreve
Encoding: 259 259 203
Width: 547
Flags: W
LayerCount: 2
Fore
SplineSet
396 510 m 0
 426 496 448 474 462 444 c 0
 475 415 482 375 482 325 c 2
 482 0 l 1
 379 0 l 1
 378 69 l 1
 376 69 l 1
 357 44 332 25 302 11 c 0
 270 -3 236 -10 199 -10 c 0
 146 -10 105 4 74 32 c 0
 44 60 29 98 29 145 c 0
 29 207 55 255 108 288 c 0
 161 321 236 338 333 338 c 2
 374 338 l 1
 373 377 365 404 350 418 c 0
 335 433 307 440 267 440 c 0
 200 440 136 426 75 397 c 1
 47 481 l 1
 114 514 190 530 275 530 c 0
 326 530 366 523 396 510 c 0
298 96 m 0
 321 107 339 123 353 142 c 0
 367 161 374 182 374 203 c 2
 374 253 l 1
 333 253 l 2
 269 253 220 244 187 228 c 0
 154 210 137 186 137 154 c 0
 137 131 145 113 162 99 c 0
 178 85 200 78 227 78 c 0
 252 78 275 84 298 96 c 0
158 594 m 0
 127 609 103 629 85 655 c 0
 67 681 57 710 55 743 c 1
 172 743 l 1
 175 716 184 695 200 680 c 0
 214 666 235 659 260 659 c 0
 285 659 306 666 320 680 c 0
 336 695 345 716 348 743 c 1
 465 743 l 1
 463 710 453 681 435 655 c 0
 417 629 393 609 362 594 c 0
 332 580 298 573 260 573 c 0
 222 573 188 580 158 594 c 0
EndSplineSet
EndChar

StartChar: uni1EAF
Encoding: 7855 7855 204
Width: 547
Flags: W
LayerCount: 2
Fore
SplineSet
158 594 m 0
 127 609 103 629 85 655 c 0
 67 681 57 710 55 743 c 1
 166 743 l 1
 255 940 l 1
 395 940 l 1
 270 730 l 1
 174 730 l 1
 184 683 213 659 260 659 c 0
 285 659 306 666 320 680 c 0
 336 695 345 716 348 743 c 1
 465 743 l 1
 463 710 453 681 435 655 c 0
 417 629 393 609 362 594 c 0
 332 580 298 573 260 573 c 0
 222 573 188 580 158 594 c 0
396 510 m 0
 426 496 448 474 462 444 c 0
 475 415 482 375 482 325 c 2
 482 0 l 1
 379 0 l 1
 378 69 l 1
 376 69 l 1
 357 44 332 25 302 11 c 0
 270 -3 236 -10 199 -10 c 0
 146 -10 105 4 74 32 c 0
 44 60 29 98 29 145 c 0
 29 207 55 255 108 288 c 0
 161 321 236 338 333 338 c 2
 374 338 l 1
 373 377 365 404 350 418 c 0
 335 433 307 440 267 440 c 0
 200 440 136 426 75 397 c 1
 47 481 l 1
 114 514 190 530 275 530 c 0
 326 530 366 523 396 510 c 0
298 96 m 0
 321 107 339 123 353 142 c 0
 367 161 374 182 374 203 c 2
 374 253 l 1
 333 253 l 2
 269 253 220 244 187 228 c 0
 154 210 137 186 137 154 c 0
 137 131 145 113 162 99 c 0
 178 85 200 78 227 78 c 0
 252 78 275 84 298 96 c 0
EndSplineSet
EndChar

StartChar: uni1EB7
Encoding: 7863 7863 205
Width: 547
Flags: W
LayerCount: 2
Fore
SplineSet
396 510 m 0
 426 496 448 474 462 444 c 0
 475 415 482 375 482 325 c 2
 482 0 l 1
 379 0 l 1
 378 69 l 1
 376 69 l 1
 357 44 332 25 302 11 c 0
 270 -3 236 -10 199 -10 c 0
 146 -10 105 4 74 32 c 0
 44 60 29 98 29 145 c 0
 29 207 55 255 108 288 c 0
 161 321 236 338 333 338 c 2
 374 338 l 1
 373 377 365 404 350 418 c 0
 335 433 307 440 267 440 c 0
 200 440 136 426 75 397 c 1
 47 481 l 1
 114 514 190 530 275 530 c 0
 326 530 366 523 396 510 c 0
298 96 m 0
 321 107 339 123 353 142 c 0
 367 161 374 182 374 203 c 2
 374 253 l 1
 333 253 l 2
 269 253 220 244 187 228 c 0
 154 210 137 186 137 154 c 0
 137 131 145 113 162 99 c 0
 178 85 200 78 227 78 c 0
 252 78 275 84 298 96 c 0
197 -82 m 1
 323 -82 l 1
 323 -208 l 1
 197 -208 l 1
 197 -82 l 1
158 594 m 0
 127 609 103 629 85 655 c 0
 67 681 57 710 55 743 c 1
 172 743 l 1
 175 716 184 695 200 680 c 0
 214 666 235 659 260 659 c 0
 285 659 306 666 320 680 c 0
 336 695 345 716 348 743 c 1
 465 743 l 1
 463 710 453 681 435 655 c 0
 417 629 393 609 362 594 c 0
 332 580 298 573 260 573 c 0
 222 573 188 580 158 594 c 0
EndSplineSet
EndChar

StartChar: uni1EB1
Encoding: 7857 7857 206
Width: 547
Flags: W
LayerCount: 2
Fore
SplineSet
346 730 m 1
 250 730 l 1
 125 940 l 1
 265 940 l 1
 354 743 l 1
 465 743 l 1
 463 710 453 681 435 655 c 0
 417 629 393 609 362 594 c 0
 332 580 298 573 260 573 c 0
 222 573 188 580 158 594 c 0
 127 609 103 629 85 655 c 0
 67 681 57 710 55 743 c 1
 172 743 l 1
 175 716 184 695 200 680 c 0
 214 666 235 659 260 659 c 0
 307 659 336 683 346 730 c 1
396 510 m 0
 426 496 448 474 462 444 c 0
 475 415 482 375 482 325 c 2
 482 0 l 1
 379 0 l 1
 378 69 l 1
 376 69 l 1
 357 44 332 25 302 11 c 0
 270 -3 236 -10 199 -10 c 0
 146 -10 105 4 74 32 c 0
 44 60 29 98 29 145 c 0
 29 207 55 255 108 288 c 0
 161 321 236 338 333 338 c 2
 374 338 l 1
 373 377 365 404 350 418 c 0
 335 433 307 440 267 440 c 0
 200 440 136 426 75 397 c 1
 47 481 l 1
 114 514 190 530 275 530 c 0
 326 530 366 523 396 510 c 0
298 96 m 0
 321 107 339 123 353 142 c 0
 367 161 374 182 374 203 c 2
 374 253 l 1
 333 253 l 2
 269 253 220 244 187 228 c 0
 154 210 137 186 137 154 c 0
 137 131 145 113 162 99 c 0
 178 85 200 78 227 78 c 0
 252 78 275 84 298 96 c 0
EndSplineSet
EndChar

StartChar: uni1EB3
Encoding: 7859 7859 207
Width: 547
Flags: W
LayerCount: 2
Fore
SplineSet
346 733 m 1
 290 733 l 1
 293 742 296 754 299 766 c 0
 302 780 303 790 303 799 c 0
 303 814 298 824 288 828 c 0
 279 834 261 836 235 836 c 0
 192 836 151 830 111 818 c 1
 101 905 l 1
 151 917 204 923 261 923 c 0
 302 923 334 920 357 916 c 0
 380 910 396 902 406 890 c 0
 415 879 420 862 420 840 c 0
 420 826 418 810 416 792 c 0
 412 774 409 758 404 743 c 1
 465 743 l 1
 463 710 453 681 435 655 c 0
 417 629 393 609 362 594 c 0
 332 580 298 573 260 573 c 0
 222 573 188 580 158 594 c 0
 127 609 103 629 85 655 c 0
 67 681 57 710 55 743 c 1
 172 743 l 1
 175 716 184 695 200 680 c 0
 214 666 235 659 260 659 c 0
 308 659 337 684 346 733 c 1
396 510 m 0
 426 496 448 474 462 444 c 0
 475 415 482 375 482 325 c 2
 482 0 l 1
 379 0 l 1
 378 69 l 1
 376 69 l 1
 357 44 332 25 302 11 c 0
 270 -3 236 -10 199 -10 c 0
 146 -10 105 4 74 32 c 0
 44 60 29 98 29 145 c 0
 29 207 55 255 108 288 c 0
 161 321 236 338 333 338 c 2
 374 338 l 1
 373 377 365 404 350 418 c 0
 335 433 307 440 267 440 c 0
 200 440 136 426 75 397 c 1
 47 481 l 1
 114 514 190 530 275 530 c 0
 326 530 366 523 396 510 c 0
298 96 m 0
 321 107 339 123 353 142 c 0
 367 161 374 182 374 203 c 2
 374 253 l 1
 333 253 l 2
 269 253 220 244 187 228 c 0
 154 210 137 186 137 154 c 0
 137 131 145 113 162 99 c 0
 178 85 200 78 227 78 c 0
 252 78 275 84 298 96 c 0
EndSplineSet
EndChar

StartChar: uni1EB5
Encoding: 7861 7861 208
Width: 547
Flags: W
LayerCount: 2
Fore
SplineSet
396 510 m 0
 426 496 448 474 462 444 c 0
 475 415 482 375 482 325 c 2
 482 0 l 1
 379 0 l 1
 378 69 l 1
 376 69 l 1
 357 44 332 25 302 11 c 0
 270 -3 236 -10 199 -10 c 0
 146 -10 105 4 74 32 c 0
 44 60 29 98 29 145 c 0
 29 207 55 255 108 288 c 0
 161 321 236 338 333 338 c 2
 374 338 l 1
 373 377 365 404 350 418 c 0
 335 433 307 440 267 440 c 0
 200 440 136 426 75 397 c 1
 47 481 l 1
 114 514 190 530 275 530 c 0
 326 530 366 523 396 510 c 0
298 96 m 0
 321 107 339 123 353 142 c 0
 367 161 374 182 374 203 c 2
 374 253 l 1
 333 253 l 2
 269 253 220 244 187 228 c 0
 154 210 137 186 137 154 c 0
 137 131 145 113 162 99 c 0
 178 85 200 78 227 78 c 0
 252 78 275 84 298 96 c 0
158 594 m 0
 127 609 103 629 85 655 c 0
 67 681 57 710 55 743 c 1
 172 743 l 1
 175 716 184 695 200 680 c 0
 214 666 235 659 260 659 c 0
 285 659 306 666 320 680 c 0
 336 695 345 716 348 743 c 1
 465 743 l 1
 463 710 453 681 435 655 c 0
 417 629 393 609 362 594 c 0
 332 580 298 573 260 573 c 0
 222 573 188 580 158 594 c 0
320 796 m 0
 302 803 279 814 252 829 c 0
 221 848 198 857 184 857 c 0
 174 857 167 852 162 844 c 0
 157 834 155 819 155 797 c 1
 55 797 l 1
 55 854 63 896 78 923 c 0
 94 950 118 963 151 963 c 0
 167 963 184 960 202 954 c 0
 220 947 242 936 268 921 c 0
 299 902 322 893 336 893 c 0
 346 893 353 898 358 907 c 0
 363 916 365 932 365 953 c 1
 465 953 l 1
 465 896 457 854 442 827 c 0
 426 800 402 787 369 787 c 0
 354 787 337 790 320 796 c 0
EndSplineSet
EndChar

StartChar: acircumflex
Encoding: 226 226 209
Width: 547
Flags: W
LayerCount: 2
Fore
SplineSet
396 510 m 0
 426 496 448 474 462 444 c 0
 475 415 482 375 482 325 c 2
 482 0 l 1
 379 0 l 1
 378 69 l 1
 376 69 l 1
 357 44 332 25 302 11 c 0
 270 -3 236 -10 199 -10 c 0
 146 -10 105 4 74 32 c 0
 44 60 29 98 29 145 c 0
 29 207 55 255 108 288 c 0
 161 321 236 338 333 338 c 2
 374 338 l 1
 373 377 365 404 350 418 c 0
 335 433 307 440 267 440 c 0
 200 440 136 426 75 397 c 1
 47 481 l 1
 114 514 190 530 275 530 c 0
 326 530 366 523 396 510 c 0
298 96 m 0
 321 107 339 123 353 142 c 0
 367 161 374 182 374 203 c 2
 374 253 l 1
 333 253 l 2
 269 253 220 244 187 228 c 0
 154 210 137 186 137 154 c 0
 137 131 145 113 162 99 c 0
 178 85 200 78 227 78 c 0
 252 78 275 84 298 96 c 0
163 770 m 1
 356 770 l 1
 481 560 l 1
 351 560 l 1
 261 720 l 1
 259 720 l 1
 169 560 l 1
 39 560 l 1
 163 770 l 1
EndSplineSet
EndChar

StartChar: uni1EA5
Encoding: 7845 7845 210
Width: 547
Flags: W
LayerCount: 2
Fore
SplineSet
259 720 m 1
 169 560 l 1
 39 560 l 1
 163 770 l 1
 353 770 l 1
 434 950 l 1
 574 950 l 1
 449 740 l 1
 374 740 l 1
 481 560 l 1
 351 560 l 1
 261 720 l 1
 259 720 l 1
396 510 m 0
 426 496 448 474 462 444 c 0
 475 415 482 375 482 325 c 2
 482 0 l 1
 379 0 l 1
 378 69 l 1
 376 69 l 1
 357 44 332 25 302 11 c 0
 270 -3 236 -10 199 -10 c 0
 146 -10 105 4 74 32 c 0
 44 60 29 98 29 145 c 0
 29 207 55 255 108 288 c 0
 161 321 236 338 333 338 c 2
 374 338 l 1
 373 377 365 404 350 418 c 0
 335 433 307 440 267 440 c 0
 200 440 136 426 75 397 c 1
 47 481 l 1
 114 514 190 530 275 530 c 0
 326 530 366 523 396 510 c 0
298 96 m 0
 321 107 339 123 353 142 c 0
 367 161 374 182 374 203 c 2
 374 253 l 1
 333 253 l 2
 269 253 220 244 187 228 c 0
 154 210 137 186 137 154 c 0
 137 131 145 113 162 99 c 0
 178 85 200 78 227 78 c 0
 252 78 275 84 298 96 c 0
EndSplineSet
EndChar

StartChar: uni1EAD
Encoding: 7853 7853 211
Width: 547
Flags: W
LayerCount: 2
Fore
SplineSet
396 510 m 0
 426 496 448 474 462 444 c 0
 475 415 482 375 482 325 c 2
 482 0 l 1
 379 0 l 1
 378 69 l 1
 376 69 l 1
 357 44 332 25 302 11 c 0
 270 -3 236 -10 199 -10 c 0
 146 -10 105 4 74 32 c 0
 44 60 29 98 29 145 c 0
 29 207 55 255 108 288 c 0
 161 321 236 338 333 338 c 2
 374 338 l 1
 373 377 365 404 350 418 c 0
 335 433 307 440 267 440 c 0
 200 440 136 426 75 397 c 1
 47 481 l 1
 114 514 190 530 275 530 c 0
 326 530 366 523 396 510 c 0
298 96 m 0
 321 107 339 123 353 142 c 0
 367 161 374 182 374 203 c 2
 374 253 l 1
 333 253 l 2
 269 253 220 244 187 228 c 0
 154 210 137 186 137 154 c 0
 137 131 145 113 162 99 c 0
 178 85 200 78 227 78 c 0
 252 78 275 84 298 96 c 0
197 -82 m 1
 323 -82 l 1
 323 -208 l 1
 197 -208 l 1
 197 -82 l 1
163 770 m 1
 356 770 l 1
 481 560 l 1
 351 560 l 1
 261 720 l 1
 259 720 l 1
 169 560 l 1
 39 560 l 1
 163 770 l 1
EndSplineSet
EndChar

StartChar: uni1EA7
Encoding: 7847 7847 212
Width: 547
Flags: W
LayerCount: 2
Fore
SplineSet
145 740 m 1
 71 740 l 1
 -54 950 l 1
 86 950 l 1
 167 770 l 1
 356 770 l 1
 481 560 l 1
 351 560 l 1
 261 720 l 1
 259 720 l 1
 169 560 l 1
 39 560 l 1
 145 740 l 1
396 510 m 0
 426 496 448 474 462 444 c 0
 475 415 482 375 482 325 c 2
 482 0 l 1
 379 0 l 1
 378 69 l 1
 376 69 l 1
 357 44 332 25 302 11 c 0
 270 -3 236 -10 199 -10 c 0
 146 -10 105 4 74 32 c 0
 44 60 29 98 29 145 c 0
 29 207 55 255 108 288 c 0
 161 321 236 338 333 338 c 2
 374 338 l 1
 373 377 365 404 350 418 c 0
 335 433 307 440 267 440 c 0
 200 440 136 426 75 397 c 1
 47 481 l 1
 114 514 190 530 275 530 c 0
 326 530 366 523 396 510 c 0
298 96 m 0
 321 107 339 123 353 142 c 0
 367 161 374 182 374 203 c 2
 374 253 l 1
 333 253 l 2
 269 253 220 244 187 228 c 0
 154 210 137 186 137 154 c 0
 137 131 145 113 162 99 c 0
 178 85 200 78 227 78 c 0
 252 78 275 84 298 96 c 0
EndSplineSet
EndChar

StartChar: uni1EA9
Encoding: 7849 7849 213
Width: 547
Flags: W
LayerCount: 2
Fore
SplineSet
348 770 m 1
 351 787 352 799 352 804 c 0
 352 819 347 828 338 834 c 0
 328 838 310 841 284 841 c 0
 241 841 200 835 160 823 c 1
 150 910 l 1
 200 922 253 928 310 928 c 0
 351 928 383 926 406 920 c 0
 429 916 445 907 454 896 c 0
 464 884 469 867 469 845 c 0
 469 829 467 811 464 791 c 0
 460 771 455 753 449 738 c 1
 375 738 l 1
 481 560 l 1
 351 560 l 1
 261 720 l 1
 259 720 l 1
 169 560 l 1
 39 560 l 1
 163 770 l 1
 348 770 l 1
396 510 m 0
 426 496 448 474 462 444 c 0
 475 415 482 375 482 325 c 2
 482 0 l 1
 379 0 l 1
 378 69 l 1
 376 69 l 1
 357 44 332 25 302 11 c 0
 270 -3 236 -10 199 -10 c 0
 146 -10 105 4 74 32 c 0
 44 60 29 98 29 145 c 0
 29 207 55 255 108 288 c 0
 161 321 236 338 333 338 c 2
 374 338 l 1
 373 377 365 404 350 418 c 0
 335 433 307 440 267 440 c 0
 200 440 136 426 75 397 c 1
 47 481 l 1
 114 514 190 530 275 530 c 0
 326 530 366 523 396 510 c 0
298 96 m 0
 321 107 339 123 353 142 c 0
 367 161 374 182 374 203 c 2
 374 253 l 1
 333 253 l 2
 269 253 220 244 187 228 c 0
 154 210 137 186 137 154 c 0
 137 131 145 113 162 99 c 0
 178 85 200 78 227 78 c 0
 252 78 275 84 298 96 c 0
EndSplineSet
EndChar

StartChar: uni1EAB
Encoding: 7851 7851 214
Width: 547
Flags: W
LayerCount: 2
Fore
SplineSet
396 510 m 0
 426 496 448 474 462 444 c 0
 475 415 482 375 482 325 c 2
 482 0 l 1
 379 0 l 1
 378 69 l 1
 376 69 l 1
 357 44 332 25 302 11 c 0
 270 -3 236 -10 199 -10 c 0
 146 -10 105 4 74 32 c 0
 44 60 29 98 29 145 c 0
 29 207 55 255 108 288 c 0
 161 321 236 338 333 338 c 2
 374 338 l 1
 373 377 365 404 350 418 c 0
 335 433 307 440 267 440 c 0
 200 440 136 426 75 397 c 1
 47 481 l 1
 114 514 190 530 275 530 c 0
 326 530 366 523 396 510 c 0
298 96 m 0
 321 107 339 123 353 142 c 0
 367 161 374 182 374 203 c 2
 374 253 l 1
 333 253 l 2
 269 253 220 244 187 228 c 0
 154 210 137 186 137 154 c 0
 137 131 145 113 162 99 c 0
 178 85 200 78 227 78 c 0
 252 78 275 84 298 96 c 0
163 770 m 1
 356 770 l 1
 481 560 l 1
 351 560 l 1
 261 720 l 1
 259 720 l 1
 169 560 l 1
 39 560 l 1
 163 770 l 1
320 796 m 0
 302 803 279 814 252 829 c 0
 221 848 198 857 184 857 c 0
 174 857 167 852 162 844 c 0
 157 834 155 819 155 797 c 1
 55 797 l 1
 55 854 63 896 78 923 c 0
 94 950 118 963 151 963 c 0
 167 963 184 960 202 954 c 0
 220 947 242 936 268 921 c 0
 299 902 322 893 336 893 c 0
 346 893 353 898 358 907 c 0
 363 916 365 932 365 953 c 1
 465 953 l 1
 465 896 457 854 442 827 c 0
 426 800 402 787 369 787 c 0
 354 787 337 790 320 796 c 0
EndSplineSet
EndChar

StartChar: uni0201
Encoding: 513 513 215
Width: 547
Flags: W
LayerCount: 2
Fore
SplineSet
396 510 m 0
 426 496 448 474 462 444 c 0
 475 415 482 375 482 325 c 2
 482 0 l 1
 379 0 l 1
 378 69 l 1
 376 69 l 1
 357 44 332 25 302 11 c 0
 270 -3 236 -10 199 -10 c 0
 146 -10 105 4 74 32 c 0
 44 60 29 98 29 145 c 0
 29 207 55 255 108 288 c 0
 161 321 236 338 333 338 c 2
 374 338 l 1
 373 377 365 404 350 418 c 0
 335 433 307 440 267 440 c 0
 200 440 136 426 75 397 c 1
 47 481 l 1
 114 514 190 530 275 530 c 0
 326 530 366 523 396 510 c 0
298 96 m 0
 321 107 339 123 353 142 c 0
 367 161 374 182 374 203 c 2
 374 253 l 1
 333 253 l 2
 269 253 220 244 187 228 c 0
 154 210 137 186 137 154 c 0
 137 131 145 113 162 99 c 0
 178 85 200 78 227 78 c 0
 252 78 275 84 298 96 c 0
14 770 m 1
 154 770 l 1
 249 560 l 1
 139 560 l 1
 14 770 l 1
239 770 m 1
 379 770 l 1
 474 560 l 1
 364 560 l 1
 239 770 l 1
EndSplineSet
EndChar

StartChar: adieresis
Encoding: 228 228 216
Width: 547
Flags: W
LayerCount: 2
Fore
SplineSet
396 510 m 0
 426 496 448 474 462 444 c 0
 475 415 482 375 482 325 c 2
 482 0 l 1
 379 0 l 1
 378 69 l 1
 376 69 l 1
 357 44 332 25 302 11 c 0
 270 -3 236 -10 199 -10 c 0
 146 -10 105 4 74 32 c 0
 44 60 29 98 29 145 c 0
 29 207 55 255 108 288 c 0
 161 321 236 338 333 338 c 2
 374 338 l 1
 373 377 365 404 350 418 c 0
 335 433 307 440 267 440 c 0
 200 440 136 426 75 397 c 1
 47 481 l 1
 114 514 190 530 275 530 c 0
 326 530 366 523 396 510 c 0
298 96 m 0
 321 107 339 123 353 142 c 0
 367 161 374 182 374 203 c 2
 374 253 l 1
 333 253 l 2
 269 253 220 244 187 228 c 0
 154 210 137 186 137 154 c 0
 137 131 145 113 162 99 c 0
 178 85 200 78 227 78 c 0
 252 78 275 84 298 96 c 0
70 728 m 1
 196 728 l 1
 196 602 l 1
 70 602 l 1
 70 728 l 1
324 728 m 1
 450 728 l 1
 450 602 l 1
 324 602 l 1
 324 728 l 1
EndSplineSet
EndChar

StartChar: uni1EA1
Encoding: 7841 7841 217
Width: 547
Flags: W
LayerCount: 2
Fore
SplineSet
396 510 m 0
 426 496 448 474 462 444 c 0
 475 415 482 375 482 325 c 2
 482 0 l 1
 379 0 l 1
 378 69 l 1
 376 69 l 1
 357 44 332 25 302 11 c 0
 270 -3 236 -10 199 -10 c 0
 146 -10 105 4 74 32 c 0
 44 60 29 98 29 145 c 0
 29 207 55 255 108 288 c 0
 161 321 236 338 333 338 c 2
 374 338 l 1
 373 377 365 404 350 418 c 0
 335 433 307 440 267 440 c 0
 200 440 136 426 75 397 c 1
 47 481 l 1
 114 514 190 530 275 530 c 0
 326 530 366 523 396 510 c 0
298 96 m 0
 321 107 339 123 353 142 c 0
 367 161 374 182 374 203 c 2
 374 253 l 1
 333 253 l 2
 269 253 220 244 187 228 c 0
 154 210 137 186 137 154 c 0
 137 131 145 113 162 99 c 0
 178 85 200 78 227 78 c 0
 252 78 275 84 298 96 c 0
197 -82 m 1
 323 -82 l 1
 323 -208 l 1
 197 -208 l 1
 197 -82 l 1
EndSplineSet
EndChar

StartChar: agrave
Encoding: 224 224 218
Width: 547
Flags: W
LayerCount: 2
Fore
SplineSet
396 510 m 0
 426 496 448 474 462 444 c 0
 475 415 482 375 482 325 c 2
 482 0 l 1
 379 0 l 1
 378 69 l 1
 376 69 l 1
 357 44 332 25 302 11 c 0
 270 -3 236 -10 199 -10 c 0
 146 -10 105 4 74 32 c 0
 44 60 29 98 29 145 c 0
 29 207 55 255 108 288 c 0
 161 321 236 338 333 338 c 2
 374 338 l 1
 373 377 365 404 350 418 c 0
 335 433 307 440 267 440 c 0
 200 440 136 426 75 397 c 1
 47 481 l 1
 114 514 190 530 275 530 c 0
 326 530 366 523 396 510 c 0
298 96 m 0
 321 107 339 123 353 142 c 0
 367 161 374 182 374 203 c 2
 374 253 l 1
 333 253 l 2
 269 253 220 244 187 228 c 0
 154 210 137 186 137 154 c 0
 137 131 145 113 162 99 c 0
 178 85 200 78 227 78 c 0
 252 78 275 84 298 96 c 0
125 770 m 1
 265 770 l 1
 360 560 l 1
 250 560 l 1
 125 770 l 1
EndSplineSet
EndChar

StartChar: uni1EA3
Encoding: 7843 7843 219
Width: 547
Flags: W
LayerCount: 2
Fore
SplineSet
396 510 m 0
 426 496 448 474 462 444 c 0
 475 415 482 375 482 325 c 2
 482 0 l 1
 379 0 l 1
 378 69 l 1
 376 69 l 1
 357 44 332 25 302 11 c 0
 270 -3 236 -10 199 -10 c 0
 146 -10 105 4 74 32 c 0
 44 60 29 98 29 145 c 0
 29 207 55 255 108 288 c 0
 161 321 236 338 333 338 c 2
 374 338 l 1
 373 377 365 404 350 418 c 0
 335 433 307 440 267 440 c 0
 200 440 136 426 75 397 c 1
 47 481 l 1
 114 514 190 530 275 530 c 0
 326 530 366 523 396 510 c 0
298 96 m 0
 321 107 339 123 353 142 c 0
 367 161 374 182 374 203 c 2
 374 253 l 1
 333 253 l 2
 269 253 220 244 187 228 c 0
 154 210 137 186 137 154 c 0
 137 131 145 113 162 99 c 0
 178 85 200 78 227 78 c 0
 252 78 275 84 298 96 c 0
299 616 m 0
 302 630 303 640 303 649 c 0
 303 664 298 674 288 678 c 0
 279 684 261 686 235 686 c 0
 192 686 151 680 111 668 c 1
 101 755 l 1
 151 767 204 773 261 773 c 0
 302 773 334 770 357 766 c 0
 380 760 396 752 406 740 c 0
 415 729 420 712 420 690 c 0
 420 674 418 656 414 636 c 0
 411 616 406 598 400 583 c 1
 290 583 l 1
 293 592 296 604 299 616 c 0
EndSplineSet
EndChar

StartChar: uni0203
Encoding: 515 515 220
Width: 547
Flags: W
LayerCount: 2
Fore
SplineSet
396 510 m 0
 426 496 448 474 462 444 c 0
 475 415 482 375 482 325 c 2
 482 0 l 1
 379 0 l 1
 378 69 l 1
 376 69 l 1
 357 44 332 25 302 11 c 0
 270 -3 236 -10 199 -10 c 0
 146 -10 105 4 74 32 c 0
 44 60 29 98 29 145 c 0
 29 207 55 255 108 288 c 0
 161 321 236 338 333 338 c 2
 374 338 l 1
 373 377 365 404 350 418 c 0
 335 433 307 440 267 440 c 0
 200 440 136 426 75 397 c 1
 47 481 l 1
 114 514 190 530 275 530 c 0
 326 530 366 523 396 510 c 0
298 96 m 0
 321 107 339 123 353 142 c 0
 367 161 374 182 374 203 c 2
 374 253 l 1
 333 253 l 2
 269 253 220 244 187 228 c 0
 154 210 137 186 137 154 c 0
 137 131 145 113 162 99 c 0
 178 85 200 78 227 78 c 0
 252 78 275 84 298 96 c 0
362 736 m 0
 393 721 417 701 435 675 c 0
 453 649 463 620 465 587 c 1
 348 587 l 1
 345 614 336 635 320 650 c 0
 306 664 285 671 260 671 c 0
 235 671 214 664 200 650 c 0
 184 635 175 614 172 587 c 1
 55 587 l 1
 57 620 67 649 85 675 c 0
 103 701 127 721 158 736 c 0
 188 750 222 757 260 757 c 0
 298 757 332 750 362 736 c 0
EndSplineSet
EndChar

StartChar: amacron
Encoding: 257 257 221
Width: 547
Flags: W
LayerCount: 2
Fore
SplineSet
396 510 m 0
 426 496 448 474 462 444 c 0
 475 415 482 375 482 325 c 2
 482 0 l 1
 379 0 l 1
 378 69 l 1
 376 69 l 1
 357 44 332 25 302 11 c 0
 270 -3 236 -10 199 -10 c 0
 146 -10 105 4 74 32 c 0
 44 60 29 98 29 145 c 0
 29 207 55 255 108 288 c 0
 161 321 236 338 333 338 c 2
 374 338 l 1
 373 377 365 404 350 418 c 0
 335 433 307 440 267 440 c 0
 200 440 136 426 75 397 c 1
 47 481 l 1
 114 514 190 530 275 530 c 0
 326 530 366 523 396 510 c 0
298 96 m 0
 321 107 339 123 353 142 c 0
 367 161 374 182 374 203 c 2
 374 253 l 1
 333 253 l 2
 269 253 220 244 187 228 c 0
 154 210 137 186 137 154 c 0
 137 131 145 113 162 99 c 0
 178 85 200 78 227 78 c 0
 252 78 275 84 298 96 c 0
71 708 m 1
 449 708 l 1
 449 622 l 1
 71 622 l 1
 71 708 l 1
EndSplineSet
EndChar

StartChar: aogonek
Encoding: 261 261 222
Width: 547
Flags: W
LayerCount: 2
Fore
SplineSet
571 -196 m 1
 537 -210 499 -217 456 -217 c 0
 405 -217 365 -208 337 -190 c 0
 309 -171 295 -145 295 -112 c 0
 295 -65 323 -21 379 20 c 1
 378 69 l 1
 376 69 l 1
 357 44 332 25 302 11 c 0
 270 -3 236 -10 199 -10 c 0
 146 -10 105 4 74 32 c 0
 44 60 29 98 29 145 c 0
 29 207 55 255 108 288 c 0
 161 321 236 338 333 338 c 2
 374 338 l 1
 373 377 365 404 350 418 c 0
 335 433 307 440 267 440 c 0
 200 440 136 426 75 397 c 1
 47 481 l 1
 114 514 190 530 275 530 c 0
 326 530 366 523 396 510 c 0
 426 496 448 474 462 444 c 0
 475 415 482 375 482 325 c 2
 482 0 l 1
 455 -16 434 -32 420 -48 c 0
 404 -65 397 -80 397 -93 c 0
 397 -105 403 -114 414 -120 c 0
 426 -127 443 -130 465 -130 c 0
 497 -130 527 -124 554 -111 c 1
 571 -196 l 1
298 96 m 0
 321 107 339 123 353 142 c 0
 367 161 374 182 374 203 c 2
 374 253 l 1
 333 253 l 2
 269 253 220 244 187 228 c 0
 154 210 137 186 137 154 c 0
 137 131 145 113 162 99 c 0
 178 85 200 78 227 78 c 0
 252 78 275 84 298 96 c 0
EndSplineSet
EndChar

StartChar: aring
Encoding: 229 229 223
Width: 547
Flags: W
LayerCount: 2
Fore
SplineSet
445 472 m 0
 470 440 482 391 482 325 c 2
 482 0 l 1
 379 0 l 1
 378 69 l 1
 376 69 l 1
 357 44 332 25 302 11 c 0
 270 -3 236 -10 199 -10 c 0
 146 -10 105 4 74 32 c 0
 44 60 29 98 29 145 c 0
 29 207 55 255 108 288 c 0
 161 321 236 338 333 338 c 2
 374 338 l 1
 373 377 365 404 350 418 c 0
 335 433 307 440 267 440 c 0
 200 440 136 426 75 397 c 1
 47 481 l 1
 94 504 146 519 205 526 c 1
 177 537 154 556 137 580 c 0
 120 606 111 634 111 665 c 0
 111 692 118 718 131 740 c 0
 144 764 162 782 186 795 c 0
 208 808 234 815 261 815 c 0
 288 815 314 808 336 795 c 0
 360 782 378 764 391 740 c 0
 404 718 411 692 411 665 c 0
 411 635 403 608 386 583 c 0
 370 558 349 540 322 528 c 1
 379 522 420 503 445 472 c 0
212 714 m 0
 198 701 191 684 191 665 c 0
 191 646 198 629 212 616 c 0
 225 602 242 595 261 595 c 0
 280 595 297 602 310 616 c 0
 324 629 331 646 331 665 c 0
 331 684 324 701 310 714 c 0
 297 728 280 735 261 735 c 0
 242 735 225 728 212 714 c 0
298 96 m 0
 321 107 339 123 353 142 c 0
 367 161 374 182 374 203 c 2
 374 253 l 1
 333 253 l 2
 269 253 220 244 187 228 c 0
 154 210 137 186 137 154 c 0
 137 131 145 113 162 99 c 0
 178 85 200 78 227 78 c 0
 252 78 275 84 298 96 c 0
EndSplineSet
EndChar

StartChar: aringacute
Encoding: 507 507 224
Width: 547
Flags: W
LayerCount: 2
Fore
SplineSet
445 472 m 0
 470 440 482 391 482 325 c 2
 482 0 l 1
 379 0 l 1
 378 69 l 1
 376 69 l 1
 357 44 332 25 302 11 c 0
 270 -3 236 -10 199 -10 c 0
 146 -10 105 4 74 32 c 0
 44 60 29 98 29 145 c 0
 29 207 55 255 108 288 c 0
 161 321 236 338 333 338 c 2
 374 338 l 1
 373 377 365 404 350 418 c 0
 335 433 307 440 267 440 c 0
 200 440 136 426 75 397 c 1
 47 481 l 1
 94 504 146 519 205 526 c 1
 177 537 154 556 137 580 c 0
 120 606 111 634 111 665 c 0
 111 688 116 709 126 729 c 0
 135 749 148 766 165 780 c 1
 255 980 l 1
 395 980 l 1
 295 811 l 1
 328 804 356 786 378 759 c 0
 400 732 411 700 411 665 c 0
 411 635 403 608 386 583 c 0
 370 558 349 540 322 528 c 1
 379 522 420 503 445 472 c 0
212 714 m 0
 198 701 191 684 191 665 c 0
 191 646 198 629 212 616 c 0
 225 602 242 595 261 595 c 0
 280 595 297 602 310 616 c 0
 324 629 331 646 331 665 c 0
 331 684 324 701 310 714 c 0
 297 728 280 735 261 735 c 0
 242 735 225 728 212 714 c 0
298 96 m 0
 321 107 339 123 353 142 c 0
 367 161 374 182 374 203 c 2
 374 253 l 1
 333 253 l 2
 269 253 220 244 187 228 c 0
 154 210 137 186 137 154 c 0
 137 131 145 113 162 99 c 0
 178 85 200 78 227 78 c 0
 252 78 275 84 298 96 c 0
EndSplineSet
EndChar

StartChar: atilde
Encoding: 227 227 225
Width: 547
Flags: W
LayerCount: 2
Fore
SplineSet
396 510 m 0
 426 496 448 474 462 444 c 0
 475 415 482 375 482 325 c 2
 482 0 l 1
 379 0 l 1
 378 69 l 1
 376 69 l 1
 357 44 332 25 302 11 c 0
 270 -3 236 -10 199 -10 c 0
 146 -10 105 4 74 32 c 0
 44 60 29 98 29 145 c 0
 29 207 55 255 108 288 c 0
 161 321 236 338 333 338 c 2
 374 338 l 1
 373 377 365 404 350 418 c 0
 335 433 307 440 267 440 c 0
 200 440 136 426 75 397 c 1
 47 481 l 1
 114 514 190 530 275 530 c 0
 326 530 366 523 396 510 c 0
298 96 m 0
 321 107 339 123 353 142 c 0
 367 161 374 182 374 203 c 2
 374 253 l 1
 333 253 l 2
 269 253 220 244 187 228 c 0
 154 210 137 186 137 154 c 0
 137 131 145 113 162 99 c 0
 178 85 200 78 227 78 c 0
 252 78 275 84 298 96 c 0
320 586 m 0
 302 593 279 604 252 619 c 0
 221 638 198 647 184 647 c 0
 174 647 167 642 162 634 c 0
 157 624 155 609 155 587 c 1
 55 587 l 1
 55 644 63 686 78 713 c 0
 94 740 118 753 151 753 c 0
 167 753 184 750 202 744 c 0
 220 737 242 726 268 711 c 0
 299 692 322 683 336 683 c 0
 346 683 353 688 358 697 c 0
 363 706 365 722 365 743 c 1
 465 743 l 1
 465 686 457 644 442 617 c 0
 426 590 402 577 369 577 c 0
 354 577 337 580 320 586 c 0
EndSplineSet
EndChar

StartChar: ae
Encoding: 230 230 226
Width: 893
Flags: W
LayerCount: 2
Fore
SplineSet
857 215 m 1
 480 215 l 1
 488 125 542 80 643 80 c 0
 670 80 698 83 726 90 c 0
 755 96 779 104 800 115 c 1
 824 32 l 1
 797 19 768 8 736 1 c 0
 703 -6 670 -10 637 -10 c 0
 543 -10 473 19 428 76 c 1
 383 19 314 -10 222 -10 c 0
 161 -10 113 4 80 31 c 0
 46 58 29 96 29 145 c 0
 29 207 55 255 108 288 c 0
 161 321 236 338 333 338 c 2
 374 338 l 1
 373 377 365 404 350 418 c 0
 335 433 307 440 267 440 c 0
 200 440 136 426 75 397 c 1
 47 481 l 1
 114 514 190 530 275 530 c 0
 318 530 354 525 382 515 c 0
 409 505 431 489 446 467 c 1
 489 509 548 530 621 530 c 0
 698 530 757 507 798 460 c 0
 839 414 859 347 859 260 c 0
 859 246 858 231 857 215 c 1
520 407 m 0
 497 384 483 348 480 300 c 1
 757 300 l 1
 754 349 741 385 719 408 c 0
 697 431 664 442 621 442 c 0
 577 442 543 430 520 407 c 0
298 96 m 0
 321 107 339 123 353 142 c 0
 367 161 374 182 374 203 c 2
 374 253 l 1
 333 253 l 2
 269 253 220 244 187 228 c 0
 154 210 137 186 137 154 c 0
 137 131 145 113 162 99 c 0
 178 85 200 78 227 78 c 0
 252 78 275 84 298 96 c 0
EndSplineSet
EndChar

StartChar: aeacute
Encoding: 509 509 227
Width: 893
Flags: W
LayerCount: 2
Fore
SplineSet
857 215 m 1
 480 215 l 1
 488 125 542 80 643 80 c 0
 670 80 698 83 726 90 c 0
 755 96 779 104 800 115 c 1
 824 32 l 1
 797 19 768 8 736 1 c 0
 703 -6 670 -10 637 -10 c 0
 543 -10 473 19 428 76 c 1
 383 19 314 -10 222 -10 c 0
 161 -10 113 4 80 31 c 0
 46 58 29 96 29 145 c 0
 29 207 55 255 108 288 c 0
 161 321 236 338 333 338 c 2
 374 338 l 1
 373 377 365 404 350 418 c 0
 335 433 307 440 267 440 c 0
 200 440 136 426 75 397 c 1
 47 481 l 1
 114 514 190 530 275 530 c 0
 318 530 354 525 382 515 c 0
 409 505 431 489 446 467 c 1
 489 509 548 530 621 530 c 0
 698 530 757 507 798 460 c 0
 839 414 859 347 859 260 c 0
 859 246 858 231 857 215 c 1
520 407 m 0
 497 384 483 348 480 300 c 1
 757 300 l 1
 754 349 741 385 719 408 c 0
 697 431 664 442 621 442 c 0
 577 442 543 430 520 407 c 0
298 96 m 0
 321 107 339 123 353 142 c 0
 367 161 374 182 374 203 c 2
 374 253 l 1
 333 253 l 2
 269 253 220 244 187 228 c 0
 154 210 137 186 137 154 c 0
 137 131 145 113 162 99 c 0
 178 85 200 78 227 78 c 0
 252 78 275 84 298 96 c 0
457 560 m 1
 347 560 l 1
 442 770 l 1
 582 770 l 1
 457 560 l 1
EndSplineSet
EndChar

StartChar: b
Encoding: 98 98 228
Width: 595
Flags: W
LayerCount: 2
Fore
SplineSet
503 460 m 0
 538 413 555 347 555 260 c 0
 555 173 538 107 503 60 c 0
 468 13 418 -10 353 -10 c 0
 317 -10 284 -3 253 12 c 0
 222 26 197 46 178 71 c 1
 176 71 l 1
 175 0 l 1
 72 0 l 1
 72 750 l 1
 180 750 l 1
 180 449 l 1
 182 449 l 1
 201 475 225 495 255 509 c 0
 285 523 318 530 353 530 c 0
 418 530 468 507 503 460 c 0
414 128 m 0
 436 161 447 205 447 260 c 0
 447 315 436 359 414 392 c 0
 391 424 361 440 322 440 c 0
 297 440 273 433 251 419 c 0
 229 405 212 386 199 362 c 0
 186 338 180 312 180 283 c 2
 180 237 l 2
 180 208 186 182 199 158 c 0
 212 134 229 115 251 101 c 0
 273 87 297 80 322 80 c 0
 361 80 391 96 414 128 c 0
EndSplineSet
EndChar

StartChar: c
Encoding: 99 99 229
Width: 530
Flags: W
LayerCount: 2
Fore
SplineSet
107 60 m 0
 60 108 36 174 36 260 c 0
 36 346 60 412 107 460 c 0
 154 506 221 530 307 530 c 0
 368 530 422 517 471 492 c 1
 440 410 l 1
 398 430 355 440 312 440 c 0
 258 440 216 424 188 394 c 0
 158 362 144 318 144 260 c 0
 144 202 158 158 188 126 c 0
 216 96 258 80 312 80 c 0
 355 80 398 90 440 110 c 1
 471 28 l 1
 422 3 368 -10 307 -10 c 0
 221 -10 154 14 107 60 c 0
EndSplineSet
EndChar

StartChar: cacute
Encoding: 263 263 230
Width: 530
Flags: W
LayerCount: 2
Fore
SplineSet
107 60 m 0
 60 108 36 174 36 260 c 0
 36 346 60 412 107 460 c 0
 154 506 221 530 307 530 c 0
 368 530 422 517 471 492 c 1
 440 410 l 1
 398 430 355 440 312 440 c 0
 258 440 216 424 188 394 c 0
 158 362 144 318 144 260 c 0
 144 202 158 158 188 126 c 0
 216 96 258 80 312 80 c 0
 355 80 398 90 440 110 c 1
 471 28 l 1
 422 3 368 -10 307 -10 c 0
 221 -10 154 14 107 60 c 0
290 560 m 1
 180 560 l 1
 275 770 l 1
 415 770 l 1
 290 560 l 1
EndSplineSet
EndChar

StartChar: ccaron
Encoding: 269 269 231
Width: 530
Flags: W
LayerCount: 2
Fore
SplineSet
107 60 m 0
 60 108 36 174 36 260 c 0
 36 346 60 412 107 460 c 0
 154 506 221 530 307 530 c 0
 368 530 422 517 471 492 c 1
 440 410 l 1
 398 430 355 440 312 440 c 0
 258 440 216 424 188 394 c 0
 158 362 144 318 144 260 c 0
 144 202 158 158 188 126 c 0
 216 96 258 80 312 80 c 0
 355 80 398 90 440 110 c 1
 471 28 l 1
 422 3 368 -10 307 -10 c 0
 221 -10 154 14 107 60 c 0
59 770 m 1
 189 770 l 1
 279 610 l 1
 281 610 l 1
 371 770 l 1
 501 770 l 1
 376 560 l 1
 183 560 l 1
 59 770 l 1
EndSplineSet
EndChar

StartChar: ccedilla
Encoding: 231 231 232
Width: 530
Flags: W
LayerCount: 2
Fore
SplineSet
471 28 m 1
 440 12 407 1 374 -5 c 1
 410 -39 428 -75 428 -112 c 0
 428 -145 414 -171 386 -190 c 0
 358 -208 318 -217 267 -217 c 0
 224 -217 186 -210 152 -196 c 1
 169 -111 l 1
 196 -124 226 -130 258 -130 c 0
 280 -130 297 -127 308 -120 c 0
 320 -114 326 -105 326 -93 c 0
 326 -80 320 -66 306 -51 c 0
 294 -36 275 -21 251 -6 c 1
 182 3 129 31 92 77 c 0
 55 123 36 184 36 260 c 0
 36 346 60 412 107 460 c 0
 154 506 221 530 307 530 c 0
 368 530 422 517 471 492 c 1
 440 410 l 1
 398 430 355 440 312 440 c 0
 258 440 216 424 188 394 c 0
 158 362 144 318 144 260 c 0
 144 202 158 158 188 126 c 0
 216 96 258 80 312 80 c 0
 355 80 398 90 440 110 c 1
 471 28 l 1
EndSplineSet
EndChar

StartChar: ccircumflex
Encoding: 265 265 233
Width: 530
Flags: W
LayerCount: 2
Fore
SplineSet
107 60 m 0
 60 108 36 174 36 260 c 0
 36 346 60 412 107 460 c 0
 154 506 221 530 307 530 c 0
 368 530 422 517 471 492 c 1
 440 410 l 1
 398 430 355 440 312 440 c 0
 258 440 216 424 188 394 c 0
 158 362 144 318 144 260 c 0
 144 202 158 158 188 126 c 0
 216 96 258 80 312 80 c 0
 355 80 398 90 440 110 c 1
 471 28 l 1
 422 3 368 -10 307 -10 c 0
 221 -10 154 14 107 60 c 0
183 770 m 1
 376 770 l 1
 501 560 l 1
 371 560 l 1
 281 720 l 1
 279 720 l 1
 189 560 l 1
 59 560 l 1
 183 770 l 1
EndSplineSet
EndChar

StartChar: cdotaccent
Encoding: 267 267 234
Width: 530
Flags: W
LayerCount: 2
Fore
SplineSet
107 60 m 0
 60 108 36 174 36 260 c 0
 36 346 60 412 107 460 c 0
 154 506 221 530 307 530 c 0
 368 530 422 517 471 492 c 1
 440 410 l 1
 398 430 355 440 312 440 c 0
 258 440 216 424 188 394 c 0
 158 362 144 318 144 260 c 0
 144 202 158 158 188 126 c 0
 216 96 258 80 312 80 c 0
 355 80 398 90 440 110 c 1
 471 28 l 1
 422 3 368 -10 307 -10 c 0
 221 -10 154 14 107 60 c 0
217 728 m 1
 343 728 l 1
 343 602 l 1
 217 602 l 1
 217 728 l 1
EndSplineSet
EndChar

StartChar: d
Encoding: 100 100 235
Width: 595
Flags: W
LayerCount: 2
Fore
SplineSet
523 750 m 1
 523 0 l 1
 420 0 l 1
 419 71 l 1
 417 71 l 1
 398 46 373 26 342 12 c 0
 311 -3 278 -10 242 -10 c 0
 177 -10 127 13 92 60 c 0
 57 107 40 173 40 260 c 0
 40 347 57 413 92 460 c 0
 127 507 177 530 242 530 c 0
 277 530 310 523 340 509 c 0
 370 495 394 475 413 449 c 1
 415 449 l 1
 415 750 l 1
 523 750 l 1
344 101 m 0
 366 115 383 134 396 158 c 0
 409 182 415 208 415 237 c 2
 415 283 l 2
 415 312 409 338 396 362 c 0
 383 386 366 405 344 419 c 0
 322 433 298 440 273 440 c 0
 234 440 204 424 182 392 c 0
 159 359 148 315 148 260 c 0
 148 205 159 161 182 128 c 0
 204 96 234 80 273 80 c 0
 298 80 322 87 344 101 c 0
EndSplineSet
EndChar

StartChar: eth
Encoding: 240 240 236
Width: 592
Flags: W
LayerCount: 2
Fore
SplineSet
436 617 m 1
 471 570 498 517 518 456 c 0
 536 396 546 332 546 263 c 0
 546 176 524 108 480 61 c 0
 436 14 373 -10 291 -10 c 0
 211 -10 148 12 104 57 c 0
 58 102 36 164 36 243 c 0
 36 317 57 375 100 417 c 0
 143 459 201 480 276 480 c 0
 335 480 380 465 413 434 c 1
 415 435 l 1
 400 488 374 536 338 578 c 1
 116 490 l 1
 80 574 l 1
 262 646 l 1
 219 675 172 693 121 700 c 1
 141 790 l 1
 228 778 303 744 368 689 c 1
 520 749 l 1
 556 665 l 1
 436 617 l 1
400 123 m 0
 425 152 438 192 438 243 c 0
 438 341 389 390 291 390 c 0
 193 390 144 341 144 243 c 0
 144 192 157 152 182 123 c 0
 208 94 244 80 291 80 c 0
 338 80 374 94 400 123 c 0
EndSplineSet
EndChar

StartChar: dcaron
Encoding: 271 271 237
Width: 795
Flags: W
LayerCount: 2
Fore
SplineSet
523 750 m 1
 523 0 l 1
 420 0 l 1
 419 71 l 1
 417 71 l 1
 398 46 373 26 342 12 c 0
 311 -3 278 -10 242 -10 c 0
 177 -10 127 13 92 60 c 0
 57 107 40 173 40 260 c 0
 40 347 57 413 92 460 c 0
 127 507 177 530 242 530 c 0
 277 530 310 523 340 509 c 0
 370 495 394 475 413 449 c 1
 415 449 l 1
 415 750 l 1
 523 750 l 1
344 101 m 0
 366 115 383 134 396 158 c 0
 409 182 415 208 415 237 c 2
 415 283 l 2
 415 312 409 338 396 362 c 0
 383 386 366 405 344 419 c 0
 322 433 298 440 273 440 c 0
 234 440 204 424 182 392 c 0
 159 359 148 315 148 260 c 0
 148 205 159 161 182 128 c 0
 204 96 234 80 273 80 c 0
 298 80 322 87 344 101 c 0
645 770 m 1
 775 770 l 1
 660 470 l 1
 560 470 l 1
 645 770 l 1
EndSplineSet
EndChar

StartChar: dcroat
Encoding: 273 273 238
Width: 661
Flags: W
LayerCount: 2
Fore
SplineSet
633 580 m 1
 523 580 l 1
 523 0 l 1
 420 0 l 1
 419 71 l 1
 417 71 l 1
 398 46 373 26 342 12 c 0
 311 -3 278 -10 242 -10 c 0
 177 -10 127 13 92 60 c 0
 57 107 40 173 40 260 c 0
 40 347 57 413 92 460 c 0
 127 507 177 530 242 530 c 0
 277 530 310 523 340 509 c 0
 370 495 394 475 413 449 c 1
 415 449 l 1
 415 580 l 1
 213 580 l 1
 213 670 l 1
 415 670 l 1
 415 750 l 1
 523 750 l 1
 523 670 l 1
 633 670 l 1
 633 580 l 1
344 101 m 0
 366 115 383 134 396 158 c 0
 409 182 415 208 415 237 c 2
 415 283 l 2
 415 312 409 338 396 362 c 0
 383 386 366 405 344 419 c 0
 322 433 298 440 273 440 c 0
 234 440 204 424 182 392 c 0
 159 359 148 315 148 260 c 0
 148 205 159 161 182 128 c 0
 204 96 234 80 273 80 c 0
 298 80 322 87 344 101 c 0
EndSplineSet
EndChar

StartChar: uni01C6
Encoding: 454 454 239
Width: 1123
Flags: W
LayerCount: 2
Fore
SplineSet
523 750 m 1
 523 0 l 1
 420 0 l 1
 419 71 l 1
 417 71 l 1
 398 46 373 26 342 12 c 0
 311 -3 278 -10 242 -10 c 0
 177 -10 127 13 92 60 c 0
 57 107 40 173 40 260 c 0
 40 347 57 413 92 460 c 0
 127 507 177 530 242 530 c 0
 277 530 310 523 340 509 c 0
 370 495 394 475 413 449 c 1
 415 449 l 1
 415 750 l 1
 523 750 l 1
344 101 m 0
 366 115 383 134 396 158 c 0
 409 182 415 208 415 237 c 2
 415 283 l 2
 415 312 409 338 396 362 c 0
 383 386 366 405 344 419 c 0
 322 433 298 440 273 440 c 0
 234 440 204 424 182 392 c 0
 159 359 148 315 148 260 c 0
 148 205 159 161 182 128 c 0
 204 96 234 80 273 80 c 0
 298 80 322 87 344 101 c 0
649 90 m 1
 933 428 l 1
 933 430 l 1
 649 430 l 1
 649 520 l 1
 1069 520 l 1
 1069 430 l 1
 785 92 l 1
 785 90 l 1
 1069 90 l 1
 1069 0 l 1
 649 0 l 1
 649 90 l 1
638 770 m 1
 768 770 l 1
 858 610 l 1
 860 610 l 1
 950 770 l 1
 1080 770 l 1
 955 560 l 1
 762 560 l 1
 638 770 l 1
EndSplineSet
EndChar

StartChar: e
Encoding: 101 101 240
Width: 556
Flags: W
LayerCount: 2
Fore
SplineSet
520 215 m 1
 143 215 l 1
 148 170 164 136 194 114 c 0
 222 91 264 80 319 80 c 0
 371 80 420 90 466 109 c 1
 491 24 l 1
 466 13 438 5 406 -1 c 0
 376 -7 344 -10 313 -10 c 0
 224 -10 156 13 108 60 c 0
 60 107 36 173 36 260 c 0
 36 345 58 412 101 459 c 0
 144 506 205 530 284 530 c 0
 361 530 420 507 461 460 c 0
 502 414 522 347 522 260 c 0
 522 246 521 231 520 215 c 1
183 407 m 0
 160 384 146 348 143 300 c 1
 420 300 l 1
 417 349 404 385 382 408 c 0
 360 431 327 442 284 442 c 0
 240 442 206 430 183 407 c 0
EndSplineSet
EndChar

StartChar: eacute
Encoding: 233 233 241
Width: 556
Flags: W
LayerCount: 2
Fore
SplineSet
520 215 m 1
 143 215 l 1
 148 170 164 136 194 114 c 0
 222 91 264 80 319 80 c 0
 371 80 420 90 466 109 c 1
 491 24 l 1
 466 13 438 5 406 -1 c 0
 376 -7 344 -10 313 -10 c 0
 224 -10 156 13 108 60 c 0
 60 107 36 173 36 260 c 0
 36 345 58 412 101 459 c 0
 144 506 205 530 284 530 c 0
 361 530 420 507 461 460 c 0
 502 414 522 347 522 260 c 0
 522 246 521 231 520 215 c 1
183 407 m 0
 160 384 146 348 143 300 c 1
 420 300 l 1
 417 349 404 385 382 408 c 0
 360 431 327 442 284 442 c 0
 240 442 206 430 183 407 c 0
292 560 m 1
 182 560 l 1
 277 770 l 1
 417 770 l 1
 292 560 l 1
EndSplineSet
EndChar

StartChar: ebreve
Encoding: 277 277 242
Width: 556
Flags: W
LayerCount: 2
Fore
SplineSet
520 215 m 1
 143 215 l 1
 148 170 164 136 194 114 c 0
 222 91 264 80 319 80 c 0
 371 80 420 90 466 109 c 1
 491 24 l 1
 466 13 438 5 406 -1 c 0
 376 -7 344 -10 313 -10 c 0
 224 -10 156 13 108 60 c 0
 60 107 36 173 36 260 c 0
 36 345 58 412 101 459 c 0
 144 506 205 530 284 530 c 0
 361 530 420 507 461 460 c 0
 502 414 522 347 522 260 c 0
 522 246 521 231 520 215 c 1
183 407 m 0
 160 384 146 348 143 300 c 1
 420 300 l 1
 417 349 404 385 382 408 c 0
 360 431 327 442 284 442 c 0
 240 442 206 430 183 407 c 0
180 594 m 0
 149 609 125 629 107 655 c 0
 89 681 79 710 77 743 c 1
 194 743 l 1
 197 716 206 695 222 680 c 0
 236 666 257 659 282 659 c 0
 307 659 328 666 342 680 c 0
 358 695 367 716 370 743 c 1
 487 743 l 1
 485 710 475 681 457 655 c 0
 439 629 415 609 384 594 c 0
 354 580 320 573 282 573 c 0
 244 573 210 580 180 594 c 0
EndSplineSet
EndChar

StartChar: ecaron
Encoding: 283 283 243
Width: 556
Flags: W
LayerCount: 2
Fore
SplineSet
520 215 m 1
 143 215 l 1
 148 170 164 136 194 114 c 0
 222 91 264 80 319 80 c 0
 371 80 420 90 466 109 c 1
 491 24 l 1
 466 13 438 5 406 -1 c 0
 376 -7 344 -10 313 -10 c 0
 224 -10 156 13 108 60 c 0
 60 107 36 173 36 260 c 0
 36 345 58 412 101 459 c 0
 144 506 205 530 284 530 c 0
 361 530 420 507 461 460 c 0
 502 414 522 347 522 260 c 0
 522 246 521 231 520 215 c 1
183 407 m 0
 160 384 146 348 143 300 c 1
 420 300 l 1
 417 349 404 385 382 408 c 0
 360 431 327 442 284 442 c 0
 240 442 206 430 183 407 c 0
61 770 m 1
 191 770 l 1
 281 610 l 1
 283 610 l 1
 373 770 l 1
 503 770 l 1
 378 560 l 1
 185 560 l 1
 61 770 l 1
EndSplineSet
EndChar

StartChar: ecircumflex
Encoding: 234 234 244
Width: 556
Flags: W
LayerCount: 2
Fore
SplineSet
520 215 m 1
 143 215 l 1
 148 170 164 136 194 114 c 0
 222 91 264 80 319 80 c 0
 371 80 420 90 466 109 c 1
 491 24 l 1
 466 13 438 5 406 -1 c 0
 376 -7 344 -10 313 -10 c 0
 224 -10 156 13 108 60 c 0
 60 107 36 173 36 260 c 0
 36 345 58 412 101 459 c 0
 144 506 205 530 284 530 c 0
 361 530 420 507 461 460 c 0
 502 414 522 347 522 260 c 0
 522 246 521 231 520 215 c 1
183 407 m 0
 160 384 146 348 143 300 c 1
 420 300 l 1
 417 349 404 385 382 408 c 0
 360 431 327 442 284 442 c 0
 240 442 206 430 183 407 c 0
185 770 m 1
 378 770 l 1
 503 560 l 1
 373 560 l 1
 283 720 l 1
 281 720 l 1
 191 560 l 1
 61 560 l 1
 185 770 l 1
EndSplineSet
EndChar

StartChar: uni1EBF
Encoding: 7871 7871 245
Width: 556
Flags: W
LayerCount: 2
Fore
SplineSet
281 720 m 1
 191 560 l 1
 61 560 l 1
 185 770 l 1
 375 770 l 1
 456 950 l 1
 596 950 l 1
 471 740 l 1
 396 740 l 1
 503 560 l 1
 373 560 l 1
 283 720 l 1
 281 720 l 1
461 460 m 0
 502 414 522 347 522 260 c 0
 522 246 521 231 520 215 c 1
 143 215 l 1
 148 170 164 136 194 114 c 0
 222 91 264 80 319 80 c 0
 371 80 420 90 466 109 c 1
 491 24 l 1
 466 13 438 5 406 -1 c 0
 376 -7 344 -10 313 -10 c 0
 224 -10 156 13 108 60 c 0
 60 107 36 173 36 260 c 0
 36 345 58 412 101 459 c 0
 144 506 205 530 284 530 c 0
 361 530 420 507 461 460 c 0
183 407 m 0
 160 384 146 348 143 300 c 1
 420 300 l 1
 417 349 404 385 382 408 c 0
 360 431 327 442 284 442 c 0
 240 442 206 430 183 407 c 0
EndSplineSet
EndChar

StartChar: uni1EC7
Encoding: 7879 7879 246
Width: 556
Flags: W
LayerCount: 2
Fore
SplineSet
520 215 m 1
 143 215 l 1
 148 170 164 136 194 114 c 0
 222 91 264 80 319 80 c 0
 371 80 420 90 466 109 c 1
 491 24 l 1
 466 13 438 5 406 -1 c 0
 376 -7 344 -10 313 -10 c 0
 224 -10 156 13 108 60 c 0
 60 107 36 173 36 260 c 0
 36 345 58 412 101 459 c 0
 144 506 205 530 284 530 c 0
 361 530 420 507 461 460 c 0
 502 414 522 347 522 260 c 0
 522 246 521 231 520 215 c 1
183 407 m 0
 160 384 146 348 143 300 c 1
 420 300 l 1
 417 349 404 385 382 408 c 0
 360 431 327 442 284 442 c 0
 240 442 206 430 183 407 c 0
219 -82 m 1
 345 -82 l 1
 345 -208 l 1
 219 -208 l 1
 219 -82 l 1
185 770 m 1
 378 770 l 1
 503 560 l 1
 373 560 l 1
 283 720 l 1
 281 720 l 1
 191 560 l 1
 61 560 l 1
 185 770 l 1
EndSplineSet
EndChar

StartChar: uni1EC1
Encoding: 7873 7873 247
Width: 556
Flags: W
LayerCount: 2
Fore
SplineSet
167 740 m 1
 93 740 l 1
 -32 950 l 1
 108 950 l 1
 189 770 l 1
 378 770 l 1
 503 560 l 1
 373 560 l 1
 283 720 l 1
 281 720 l 1
 191 560 l 1
 61 560 l 1
 167 740 l 1
520 215 m 1
 143 215 l 1
 148 170 164 136 194 114 c 0
 222 91 264 80 319 80 c 0
 371 80 420 90 466 109 c 1
 491 24 l 1
 466 13 438 5 406 -1 c 0
 376 -7 344 -10 313 -10 c 0
 224 -10 156 13 108 60 c 0
 60 107 36 173 36 260 c 0
 36 345 58 412 101 459 c 0
 144 506 205 530 284 530 c 0
 361 530 420 507 461 460 c 0
 502 414 522 347 522 260 c 0
 522 246 521 231 520 215 c 1
183 407 m 0
 160 384 146 348 143 300 c 1
 420 300 l 1
 417 349 404 385 382 408 c 0
 360 431 327 442 284 442 c 0
 240 442 206 430 183 407 c 0
EndSplineSet
EndChar

StartChar: uni1EC3
Encoding: 7875 7875 248
Width: 556
Flags: W
LayerCount: 2
Fore
SplineSet
370 770 m 1
 373 787 374 799 374 804 c 0
 374 819 369 828 360 834 c 0
 350 838 332 841 306 841 c 0
 263 841 222 835 182 823 c 1
 172 910 l 1
 222 922 275 928 332 928 c 0
 373 928 405 926 428 920 c 0
 451 916 467 907 476 896 c 0
 486 884 491 867 491 845 c 0
 491 829 489 811 486 791 c 0
 482 771 477 753 471 738 c 1
 397 738 l 1
 503 560 l 1
 373 560 l 1
 283 720 l 1
 281 720 l 1
 191 560 l 1
 61 560 l 1
 185 770 l 1
 370 770 l 1
520 215 m 1
 143 215 l 1
 148 170 164 136 194 114 c 0
 222 91 264 80 319 80 c 0
 371 80 420 90 466 109 c 1
 491 24 l 1
 466 13 438 5 406 -1 c 0
 376 -7 344 -10 313 -10 c 0
 224 -10 156 13 108 60 c 0
 60 107 36 173 36 260 c 0
 36 345 58 412 101 459 c 0
 144 506 205 530 284 530 c 0
 361 530 420 507 461 460 c 0
 502 414 522 347 522 260 c 0
 522 246 521 231 520 215 c 1
183 407 m 0
 160 384 146 348 143 300 c 1
 420 300 l 1
 417 349 404 385 382 408 c 0
 360 431 327 442 284 442 c 0
 240 442 206 430 183 407 c 0
EndSplineSet
EndChar

StartChar: uni1EC5
Encoding: 7877 7877 249
Width: 556
Flags: W
LayerCount: 2
Fore
SplineSet
520 215 m 1
 143 215 l 1
 148 170 164 136 194 114 c 0
 222 91 264 80 319 80 c 0
 371 80 420 90 466 109 c 1
 491 24 l 1
 466 13 438 5 406 -1 c 0
 376 -7 344 -10 313 -10 c 0
 224 -10 156 13 108 60 c 0
 60 107 36 173 36 260 c 0
 36 345 58 412 101 459 c 0
 144 506 205 530 284 530 c 0
 361 530 420 507 461 460 c 0
 502 414 522 347 522 260 c 0
 522 246 521 231 520 215 c 1
183 407 m 0
 160 384 146 348 143 300 c 1
 420 300 l 1
 417 349 404 385 382 408 c 0
 360 431 327 442 284 442 c 0
 240 442 206 430 183 407 c 0
185 770 m 1
 378 770 l 1
 503 560 l 1
 373 560 l 1
 283 720 l 1
 281 720 l 1
 191 560 l 1
 61 560 l 1
 185 770 l 1
342 796 m 0
 324 803 301 814 274 829 c 0
 243 848 220 857 206 857 c 0
 196 857 189 852 184 844 c 0
 179 834 177 819 177 797 c 1
 77 797 l 1
 77 854 85 896 100 923 c 0
 116 950 140 963 173 963 c 0
 189 963 206 960 224 954 c 0
 242 947 264 936 290 921 c 0
 321 902 344 893 358 893 c 0
 368 893 375 898 380 907 c 0
 385 916 387 932 387 953 c 1
 487 953 l 1
 487 896 479 854 464 827 c 0
 448 800 424 787 391 787 c 0
 376 787 359 790 342 796 c 0
EndSplineSet
EndChar

StartChar: uni0205
Encoding: 517 517 250
Width: 556
Flags: W
LayerCount: 2
Fore
SplineSet
520 215 m 1
 143 215 l 1
 148 170 164 136 194 114 c 0
 222 91 264 80 319 80 c 0
 371 80 420 90 466 109 c 1
 491 24 l 1
 466 13 438 5 406 -1 c 0
 376 -7 344 -10 313 -10 c 0
 224 -10 156 13 108 60 c 0
 60 107 36 173 36 260 c 0
 36 345 58 412 101 459 c 0
 144 506 205 530 284 530 c 0
 361 530 420 507 461 460 c 0
 502 414 522 347 522 260 c 0
 522 246 521 231 520 215 c 1
183 407 m 0
 160 384 146 348 143 300 c 1
 420 300 l 1
 417 349 404 385 382 408 c 0
 360 431 327 442 284 442 c 0
 240 442 206 430 183 407 c 0
36 770 m 1
 176 770 l 1
 271 560 l 1
 161 560 l 1
 36 770 l 1
261 770 m 1
 401 770 l 1
 496 560 l 1
 386 560 l 1
 261 770 l 1
EndSplineSet
EndChar

StartChar: edieresis
Encoding: 235 235 251
Width: 556
Flags: W
LayerCount: 2
Fore
SplineSet
520 215 m 1
 143 215 l 1
 148 170 164 136 194 114 c 0
 222 91 264 80 319 80 c 0
 371 80 420 90 466 109 c 1
 491 24 l 1
 466 13 438 5 406 -1 c 0
 376 -7 344 -10 313 -10 c 0
 224 -10 156 13 108 60 c 0
 60 107 36 173 36 260 c 0
 36 345 58 412 101 459 c 0
 144 506 205 530 284 530 c 0
 361 530 420 507 461 460 c 0
 502 414 522 347 522 260 c 0
 522 246 521 231 520 215 c 1
183 407 m 0
 160 384 146 348 143 300 c 1
 420 300 l 1
 417 349 404 385 382 408 c 0
 360 431 327 442 284 442 c 0
 240 442 206 430 183 407 c 0
92 728 m 1
 218 728 l 1
 218 602 l 1
 92 602 l 1
 92 728 l 1
346 728 m 1
 472 728 l 1
 472 602 l 1
 346 602 l 1
 346 728 l 1
EndSplineSet
EndChar

StartChar: edotaccent
Encoding: 279 279 252
Width: 556
Flags: W
LayerCount: 2
Fore
SplineSet
520 215 m 1
 143 215 l 1
 148 170 164 136 194 114 c 0
 222 91 264 80 319 80 c 0
 371 80 420 90 466 109 c 1
 491 24 l 1
 466 13 438 5 406 -1 c 0
 376 -7 344 -10 313 -10 c 0
 224 -10 156 13 108 60 c 0
 60 107 36 173 36 260 c 0
 36 345 58 412 101 459 c 0
 144 506 205 530 284 530 c 0
 361 530 420 507 461 460 c 0
 502 414 522 347 522 260 c 0
 522 246 521 231 520 215 c 1
183 407 m 0
 160 384 146 348 143 300 c 1
 420 300 l 1
 417 349 404 385 382 408 c 0
 360 431 327 442 284 442 c 0
 240 442 206 430 183 407 c 0
219 728 m 1
 345 728 l 1
 345 602 l 1
 219 602 l 1
 219 728 l 1
EndSplineSet
EndChar

StartChar: uni1EB9
Encoding: 7865 7865 253
Width: 556
Flags: W
LayerCount: 2
Fore
SplineSet
520 215 m 1
 143 215 l 1
 148 170 164 136 194 114 c 0
 222 91 264 80 319 80 c 0
 371 80 420 90 466 109 c 1
 491 24 l 1
 466 13 438 5 406 -1 c 0
 376 -7 344 -10 313 -10 c 0
 224 -10 156 13 108 60 c 0
 60 107 36 173 36 260 c 0
 36 345 58 412 101 459 c 0
 144 506 205 530 284 530 c 0
 361 530 420 507 461 460 c 0
 502 414 522 347 522 260 c 0
 522 246 521 231 520 215 c 1
183 407 m 0
 160 384 146 348 143 300 c 1
 420 300 l 1
 417 349 404 385 382 408 c 0
 360 431 327 442 284 442 c 0
 240 442 206 430 183 407 c 0
219 -82 m 1
 345 -82 l 1
 345 -208 l 1
 219 -208 l 1
 219 -82 l 1
EndSplineSet
EndChar

StartChar: egrave
Encoding: 232 232 254
Width: 556
Flags: W
LayerCount: 2
Fore
SplineSet
520 215 m 1
 143 215 l 1
 148 170 164 136 194 114 c 0
 222 91 264 80 319 80 c 0
 371 80 420 90 466 109 c 1
 491 24 l 1
 466 13 438 5 406 -1 c 0
 376 -7 344 -10 313 -10 c 0
 224 -10 156 13 108 60 c 0
 60 107 36 173 36 260 c 0
 36 345 58 412 101 459 c 0
 144 506 205 530 284 530 c 0
 361 530 420 507 461 460 c 0
 502 414 522 347 522 260 c 0
 522 246 521 231 520 215 c 1
183 407 m 0
 160 384 146 348 143 300 c 1
 420 300 l 1
 417 349 404 385 382 408 c 0
 360 431 327 442 284 442 c 0
 240 442 206 430 183 407 c 0
147 770 m 1
 287 770 l 1
 382 560 l 1
 272 560 l 1
 147 770 l 1
EndSplineSet
EndChar

StartChar: uni1EBB
Encoding: 7867 7867 255
Width: 556
Flags: W
LayerCount: 2
Fore
SplineSet
520 215 m 1
 143 215 l 1
 148 170 164 136 194 114 c 0
 222 91 264 80 319 80 c 0
 371 80 420 90 466 109 c 1
 491 24 l 1
 466 13 438 5 406 -1 c 0
 376 -7 344 -10 313 -10 c 0
 224 -10 156 13 108 60 c 0
 60 107 36 173 36 260 c 0
 36 345 58 412 101 459 c 0
 144 506 205 530 284 530 c 0
 361 530 420 507 461 460 c 0
 502 414 522 347 522 260 c 0
 522 246 521 231 520 215 c 1
183 407 m 0
 160 384 146 348 143 300 c 1
 420 300 l 1
 417 349 404 385 382 408 c 0
 360 431 327 442 284 442 c 0
 240 442 206 430 183 407 c 0
321 616 m 0
 324 630 325 640 325 649 c 0
 325 664 320 674 310 678 c 0
 301 684 283 686 257 686 c 0
 214 686 173 680 133 668 c 1
 123 755 l 1
 173 767 226 773 283 773 c 0
 324 773 356 770 379 766 c 0
 402 760 418 752 428 740 c 0
 437 729 442 712 442 690 c 0
 442 674 440 656 436 636 c 0
 433 616 428 598 422 583 c 1
 312 583 l 1
 315 592 318 604 321 616 c 0
EndSplineSet
EndChar

StartChar: uni0207
Encoding: 519 519 256
Width: 556
Flags: W
LayerCount: 2
Fore
SplineSet
520 215 m 1
 143 215 l 1
 148 170 164 136 194 114 c 0
 222 91 264 80 319 80 c 0
 371 80 420 90 466 109 c 1
 491 24 l 1
 466 13 438 5 406 -1 c 0
 376 -7 344 -10 313 -10 c 0
 224 -10 156 13 108 60 c 0
 60 107 36 173 36 260 c 0
 36 345 58 412 101 459 c 0
 144 506 205 530 284 530 c 0
 361 530 420 507 461 460 c 0
 502 414 522 347 522 260 c 0
 522 246 521 231 520 215 c 1
183 407 m 0
 160 384 146 348 143 300 c 1
 420 300 l 1
 417 349 404 385 382 408 c 0
 360 431 327 442 284 442 c 0
 240 442 206 430 183 407 c 0
384 736 m 0
 415 721 439 701 457 675 c 0
 475 649 485 620 487 587 c 1
 370 587 l 1
 367 614 358 635 342 650 c 0
 328 664 307 671 282 671 c 0
 257 671 236 664 222 650 c 0
 206 635 197 614 194 587 c 1
 77 587 l 1
 79 620 89 649 107 675 c 0
 125 701 149 721 180 736 c 0
 210 750 244 757 282 757 c 0
 320 757 354 750 384 736 c 0
EndSplineSet
EndChar

StartChar: emacron
Encoding: 275 275 257
Width: 556
Flags: W
LayerCount: 2
Fore
SplineSet
520 215 m 1
 143 215 l 1
 148 170 164 136 194 114 c 0
 222 91 264 80 319 80 c 0
 371 80 420 90 466 109 c 1
 491 24 l 1
 466 13 438 5 406 -1 c 0
 376 -7 344 -10 313 -10 c 0
 224 -10 156 13 108 60 c 0
 60 107 36 173 36 260 c 0
 36 345 58 412 101 459 c 0
 144 506 205 530 284 530 c 0
 361 530 420 507 461 460 c 0
 502 414 522 347 522 260 c 0
 522 246 521 231 520 215 c 1
183 407 m 0
 160 384 146 348 143 300 c 1
 420 300 l 1
 417 349 404 385 382 408 c 0
 360 431 327 442 284 442 c 0
 240 442 206 430 183 407 c 0
93 708 m 1
 471 708 l 1
 471 622 l 1
 93 622 l 1
 93 708 l 1
EndSplineSet
EndChar

StartChar: eogonek
Encoding: 281 281 258
Width: 556
Flags: W
LayerCount: 2
Fore
SplineSet
581 -169 m 1
 547 -183 509 -190 466 -190 c 0
 415 -190 375 -181 347 -162 c 0
 319 -144 305 -118 305 -85 c 0
 305 -60 314 -35 331 -10 c 1
 313 -10 l 2
 224 -10 156 13 108 60 c 0
 60 107 36 173 36 260 c 0
 36 345 58 412 101 459 c 0
 144 506 205 530 284 530 c 0
 361 530 420 507 461 460 c 0
 502 414 522 347 522 260 c 0
 522 246 521 231 520 215 c 1
 143 215 l 1
 148 170 164 136 194 114 c 0
 222 91 264 80 319 80 c 0
 371 80 420 90 466 109 c 1
 490 27 l 1
 490 27 492 27 492 27 c 1
 492 27 490 26 490 26 c 1
 491 24 l 1
 488 23 484 21 480 20 c 0
 457 5 439 -10 426 -24 c 0
 413 -40 407 -53 407 -66 c 0
 407 -78 413 -87 424 -94 c 0
 436 -100 453 -103 475 -103 c 0
 507 -103 537 -97 564 -84 c 1
 581 -169 l 1
183 407 m 0
 160 384 146 348 143 300 c 1
 420 300 l 1
 417 349 404 385 382 408 c 0
 360 431 327 442 284 442 c 0
 240 442 206 430 183 407 c 0
EndSplineSet
EndChar

StartChar: uni1EBD
Encoding: 7869 7869 259
Width: 556
Flags: W
LayerCount: 2
Fore
SplineSet
520 215 m 1
 143 215 l 1
 148 170 164 136 194 114 c 0
 222 91 264 80 319 80 c 0
 371 80 420 90 466 109 c 1
 491 24 l 1
 466 13 438 5 406 -1 c 0
 376 -7 344 -10 313 -10 c 0
 224 -10 156 13 108 60 c 0
 60 107 36 173 36 260 c 0
 36 345 58 412 101 459 c 0
 144 506 205 530 284 530 c 0
 361 530 420 507 461 460 c 0
 502 414 522 347 522 260 c 0
 522 246 521 231 520 215 c 1
183 407 m 0
 160 384 146 348 143 300 c 1
 420 300 l 1
 417 349 404 385 382 408 c 0
 360 431 327 442 284 442 c 0
 240 442 206 430 183 407 c 0
342 586 m 0
 324 593 301 604 274 619 c 0
 243 638 220 647 206 647 c 0
 196 647 189 642 184 634 c 0
 179 624 177 609 177 587 c 1
 77 587 l 1
 77 644 85 686 100 713 c 0
 116 740 140 753 173 753 c 0
 189 753 206 750 224 744 c 0
 242 737 264 726 290 711 c 0
 321 692 344 683 358 683 c 0
 368 683 375 688 380 697 c 0
 385 706 387 722 387 743 c 1
 487 743 l 1
 487 686 479 644 464 617 c 0
 448 590 424 577 391 577 c 0
 376 577 359 580 342 586 c 0
EndSplineSet
EndChar

StartChar: uni0259
Encoding: 601 601 260
Width: 556
Flags: W
LayerCount: 2
Fore
SplineSet
448 460 m 0
 496 413 520 347 520 260 c 0
 520 175 498 108 455 61 c 0
 412 14 351 -10 272 -10 c 0
 195 -10 136 13 95 60 c 0
 54 106 34 173 34 260 c 0
 34 274 35 289 36 305 c 1
 413 305 l 1
 408 350 392 384 362 406 c 0
 334 429 292 440 237 440 c 0
 185 440 136 430 90 411 c 1
 65 496 l 1
 90 507 118 515 150 521 c 0
 180 527 212 530 243 530 c 0
 332 530 400 507 448 460 c 0
373 113 m 0
 396 136 410 172 413 220 c 1
 136 220 l 1
 139 171 152 135 174 112 c 0
 196 89 229 78 272 78 c 0
 316 78 350 90 373 113 c 0
EndSplineSet
EndChar

StartChar: f
Encoding: 102 102 261
Width: 460
Flags: W
LayerCount: 2
Fore
SplineSet
22 430 m 1
 22 520 l 1
 159 520 l 1
 159 575 l 2
 159 698 215 760 326 760 c 0
 361 760 398 755 438 745 c 1
 422 657 l 1
 394 666 368 670 343 670 c 0
 315 670 296 663 285 650 c 0
 274 636 269 611 269 575 c 2
 269 520 l 1
 431 520 l 1
 431 430 l 1
 269 430 l 1
 269 0 l 1
 159 0 l 1
 159 430 l 1
 22 430 l 1
EndSplineSet
EndChar

StartChar: g
Encoding: 103 103 262
Width: 595
Flags: W
LayerCount: 2
Fore
SplineSet
523 520 m 1
 523 45 l 2
 523 -46 501 -114 456 -160 c 0
 411 -207 345 -230 258 -230 c 0
 191 -230 123 -216 55 -189 c 1
 80 -106 l 1
 139 -129 194 -140 243 -140 c 0
 302 -140 345 -125 373 -94 c 0
 401 -64 415 -18 415 45 c 2
 415 71 l 1
 413 71 l 1
 394 45 370 25 341 11 c 0
 312 -3 279 -10 243 -10 c 0
 178 -10 128 13 92 60 c 0
 58 106 40 173 40 260 c 0
 40 347 58 414 92 460 c 0
 128 507 178 530 243 530 c 0
 279 530 312 523 342 509 c 0
 372 495 397 475 417 449 c 1
 419 449 l 1
 420 520 l 1
 523 520 l 1
344 101 m 0
 366 115 383 134 396 158 c 0
 409 182 415 208 415 237 c 2
 415 283 l 2
 415 312 409 338 396 362 c 0
 383 386 366 405 344 419 c 0
 322 433 298 440 273 440 c 0
 234 440 204 424 182 392 c 0
 159 359 148 315 148 260 c 0
 148 205 159 161 182 128 c 0
 204 96 234 80 273 80 c 0
 298 80 322 87 344 101 c 0
EndSplineSet
EndChar

StartChar: gbreve
Encoding: 287 287 263
Width: 595
Flags: W
LayerCount: 2
Fore
SplineSet
523 520 m 1
 523 45 l 2
 523 -46 501 -114 456 -160 c 0
 411 -207 345 -230 258 -230 c 0
 191 -230 123 -216 55 -189 c 1
 80 -106 l 1
 139 -129 194 -140 243 -140 c 0
 302 -140 345 -125 373 -94 c 0
 401 -64 415 -18 415 45 c 2
 415 71 l 1
 413 71 l 1
 394 45 370 25 341 11 c 0
 312 -3 279 -10 243 -10 c 0
 178 -10 128 13 92 60 c 0
 58 106 40 173 40 260 c 0
 40 347 58 414 92 460 c 0
 128 507 178 530 243 530 c 0
 279 530 312 523 342 509 c 0
 372 495 397 475 417 449 c 1
 419 449 l 1
 420 520 l 1
 523 520 l 1
344 101 m 0
 366 115 383 134 396 158 c 0
 409 182 415 208 415 237 c 2
 415 283 l 2
 415 312 409 338 396 362 c 0
 383 386 366 405 344 419 c 0
 322 433 298 440 273 440 c 0
 234 440 204 424 182 392 c 0
 159 359 148 315 148 260 c 0
 148 205 159 161 182 128 c 0
 204 96 234 80 273 80 c 0
 298 80 322 87 344 101 c 0
192 594 m 0
 162 609 138 629 120 655 c 0
 102 681 92 710 90 743 c 1
 207 743 l 1
 210 716 220 695 234 680 c 0
 250 666 270 659 295 659 c 0
 320 659 340 666 356 680 c 0
 370 695 380 716 383 743 c 1
 500 743 l 1
 498 710 488 681 470 655 c 0
 452 629 428 609 398 594 c 0
 367 580 333 573 295 573 c 0
 257 573 223 580 192 594 c 0
EndSplineSet
EndChar

StartChar: gcaron
Encoding: 487 487 264
Width: 595
Flags: W
LayerCount: 2
Fore
SplineSet
523 520 m 1
 523 45 l 2
 523 -46 501 -114 456 -160 c 0
 411 -207 345 -230 258 -230 c 0
 191 -230 123 -216 55 -189 c 1
 80 -106 l 1
 139 -129 194 -140 243 -140 c 0
 302 -140 345 -125 373 -94 c 0
 401 -64 415 -18 415 45 c 2
 415 71 l 1
 413 71 l 1
 394 45 370 25 341 11 c 0
 312 -3 279 -10 243 -10 c 0
 178 -10 128 13 92 60 c 0
 58 106 40 173 40 260 c 0
 40 347 58 414 92 460 c 0
 128 507 178 530 243 530 c 0
 279 530 312 523 342 509 c 0
 372 495 397 475 417 449 c 1
 419 449 l 1
 420 520 l 1
 523 520 l 1
344 101 m 0
 366 115 383 134 396 158 c 0
 409 182 415 208 415 237 c 2
 415 283 l 2
 415 312 409 338 396 362 c 0
 383 386 366 405 344 419 c 0
 322 433 298 440 273 440 c 0
 234 440 204 424 182 392 c 0
 159 359 148 315 148 260 c 0
 148 205 159 161 182 128 c 0
 204 96 234 80 273 80 c 0
 298 80 322 87 344 101 c 0
74 770 m 1
 204 770 l 1
 294 610 l 1
 296 610 l 1
 386 770 l 1
 516 770 l 1
 391 560 l 1
 198 560 l 1
 74 770 l 1
EndSplineSet
EndChar

StartChar: gcircumflex
Encoding: 285 285 265
Width: 595
Flags: W
LayerCount: 2
Fore
SplineSet
523 520 m 1
 523 45 l 2
 523 -46 501 -114 456 -160 c 0
 411 -207 345 -230 258 -230 c 0
 191 -230 123 -216 55 -189 c 1
 80 -106 l 1
 139 -129 194 -140 243 -140 c 0
 302 -140 345 -125 373 -94 c 0
 401 -64 415 -18 415 45 c 2
 415 71 l 1
 413 71 l 1
 394 45 370 25 341 11 c 0
 312 -3 279 -10 243 -10 c 0
 178 -10 128 13 92 60 c 0
 58 106 40 173 40 260 c 0
 40 347 58 414 92 460 c 0
 128 507 178 530 243 530 c 0
 279 530 312 523 342 509 c 0
 372 495 397 475 417 449 c 1
 419 449 l 1
 420 520 l 1
 523 520 l 1
344 101 m 0
 366 115 383 134 396 158 c 0
 409 182 415 208 415 237 c 2
 415 283 l 2
 415 312 409 338 396 362 c 0
 383 386 366 405 344 419 c 0
 322 433 298 440 273 440 c 0
 234 440 204 424 182 392 c 0
 159 359 148 315 148 260 c 0
 148 205 159 161 182 128 c 0
 204 96 234 80 273 80 c 0
 298 80 322 87 344 101 c 0
198 770 m 1
 391 770 l 1
 516 560 l 1
 386 560 l 1
 296 720 l 1
 294 720 l 1
 204 560 l 1
 74 560 l 1
 198 770 l 1
EndSplineSet
EndChar

StartChar: uni0123
Encoding: 291 291 266
Width: 595
Flags: W
LayerCount: 2
Fore
SplineSet
523 520 m 1
 523 45 l 2
 523 -46 501 -114 456 -160 c 0
 411 -207 345 -230 258 -230 c 0
 191 -230 123 -216 55 -189 c 1
 80 -106 l 1
 139 -129 194 -140 243 -140 c 0
 302 -140 345 -125 373 -94 c 0
 401 -64 415 -18 415 45 c 2
 415 71 l 1
 413 71 l 1
 394 45 370 25 341 11 c 0
 312 -3 279 -10 243 -10 c 0
 178 -10 128 13 92 60 c 0
 58 106 40 173 40 260 c 0
 40 347 58 414 92 460 c 0
 128 507 178 530 243 530 c 0
 279 530 312 523 342 509 c 0
 372 495 397 475 417 449 c 1
 419 449 l 1
 420 520 l 1
 523 520 l 1
344 101 m 0
 366 115 383 134 396 158 c 0
 409 182 415 208 415 237 c 2
 415 283 l 2
 415 312 409 338 396 362 c 0
 383 386 366 405 344 419 c 0
 322 433 298 440 273 440 c 0
 234 440 204 424 182 392 c 0
 159 359 148 315 148 260 c 0
 148 205 159 161 182 128 c 0
 204 96 234 80 273 80 c 0
 298 80 322 87 344 101 c 0
303 770 m 1
 413 770 l 1
 318 560 l 1
 178 560 l 1
 303 770 l 1
EndSplineSet
EndChar

StartChar: gdotaccent
Encoding: 289 289 267
Width: 595
Flags: W
LayerCount: 2
Fore
SplineSet
523 520 m 1
 523 45 l 2
 523 -46 501 -114 456 -160 c 0
 411 -207 345 -230 258 -230 c 0
 191 -230 123 -216 55 -189 c 1
 80 -106 l 1
 139 -129 194 -140 243 -140 c 0
 302 -140 345 -125 373 -94 c 0
 401 -64 415 -18 415 45 c 2
 415 71 l 1
 413 71 l 1
 394 45 370 25 341 11 c 0
 312 -3 279 -10 243 -10 c 0
 178 -10 128 13 92 60 c 0
 58 106 40 173 40 260 c 0
 40 347 58 414 92 460 c 0
 128 507 178 530 243 530 c 0
 279 530 312 523 342 509 c 0
 372 495 397 475 417 449 c 1
 419 449 l 1
 420 520 l 1
 523 520 l 1
344 101 m 0
 366 115 383 134 396 158 c 0
 409 182 415 208 415 237 c 2
 415 283 l 2
 415 312 409 338 396 362 c 0
 383 386 366 405 344 419 c 0
 322 433 298 440 273 440 c 0
 234 440 204 424 182 392 c 0
 159 359 148 315 148 260 c 0
 148 205 159 161 182 128 c 0
 204 96 234 80 273 80 c 0
 298 80 322 87 344 101 c 0
232 728 m 1
 358 728 l 1
 358 602 l 1
 232 602 l 1
 232 728 l 1
EndSplineSet
EndChar

StartChar: h
Encoding: 104 104 268
Width: 597
Flags: W
LayerCount: 2
Fore
SplineSet
492 479 m 0
 519 445 532 392 532 320 c 2
 532 0 l 1
 424 0 l 1
 424 300 l 2
 424 347 417 382 402 406 c 0
 388 428 366 440 337 440 c 0
 310 440 285 432 261 415 c 0
 237 398 218 376 202 350 c 0
 188 322 180 294 180 265 c 2
 180 0 l 1
 72 0 l 1
 72 750 l 1
 180 750 l 1
 180 444 l 1
 182 444 l 1
 203 471 229 492 261 508 c 0
 293 522 328 530 367 530 c 0
 424 530 465 513 492 479 c 0
EndSplineSet
EndChar

StartChar: hbar
Encoding: 295 295 269
Width: 663
Flags: W
LayerCount: 2
Fore
SplineSet
558 479 m 0
 585 445 598 392 598 320 c 2
 598 0 l 1
 490 0 l 1
 490 300 l 2
 490 347 483 382 468 406 c 0
 454 428 432 440 403 440 c 0
 376 440 351 432 327 415 c 0
 303 398 284 376 268 350 c 0
 254 322 246 294 246 265 c 2
 246 0 l 1
 138 0 l 1
 138 580 l 1
 28 580 l 1
 28 670 l 1
 138 670 l 1
 138 750 l 1
 246 750 l 1
 246 670 l 1
 448 670 l 1
 448 580 l 1
 246 580 l 1
 246 444 l 1
 248 444 l 1
 269 471 295 492 327 508 c 0
 359 522 394 530 433 530 c 0
 490 530 531 513 558 479 c 0
EndSplineSet
EndChar

StartChar: hcircumflex
Encoding: 293 293 270
Width: 597
Flags: W
LayerCount: 2
Fore
SplineSet
492 479 m 0
 519 445 532 392 532 320 c 2
 532 0 l 1
 424 0 l 1
 424 300 l 2
 424 347 417 382 402 406 c 0
 388 428 366 440 337 440 c 0
 310 440 285 432 261 415 c 0
 237 398 218 376 202 350 c 0
 188 322 180 294 180 265 c 2
 180 0 l 1
 72 0 l 1
 72 750 l 1
 180 750 l 1
 180 444 l 1
 182 444 l 1
 203 471 229 492 261 508 c 0
 293 522 328 530 367 530 c 0
 424 530 465 513 492 479 c 0
193 1000 m 1
 386 1000 l 1
 511 790 l 1
 381 790 l 1
 291 950 l 1
 289 950 l 1
 199 790 l 1
 69 790 l 1
 193 1000 l 1
EndSplineSet
EndChar

StartChar: i
Encoding: 105 105 271
Width: 268
Flags: W
LayerCount: 2
Fore
SplineSet
79 740 m 1
 189 740 l 1
 189 630 l 1
 79 630 l 1
 79 740 l 1
79 520 m 1
 189 520 l 1
 189 0 l 1
 79 0 l 1
 79 520 l 1
EndSplineSet
EndChar

StartChar: dotlessi
Encoding: 305 305 272
Width: 268
Flags: W
LayerCount: 2
Fore
SplineSet
79 520 m 1
 189 520 l 1
 189 0 l 1
 79 0 l 1
 79 520 l 1
EndSplineSet
EndChar

StartChar: iacute
Encoding: 237 237 273
Width: 268
Flags: W
LayerCount: 2
Fore
SplineSet
79 520 m 1
 189 520 l 1
 189 0 l 1
 79 0 l 1
 79 520 l 1
144 560 m 1
 34 560 l 1
 129 770 l 1
 269 770 l 1
 144 560 l 1
EndSplineSet
EndChar

StartChar: ibreve
Encoding: 301 301 274
Width: 268
Flags: W
LayerCount: 2
Fore
SplineSet
79 520 m 1
 189 520 l 1
 189 0 l 1
 79 0 l 1
 79 520 l 1
32 594 m 0
 1 609 -23 629 -41 655 c 0
 -59 681 -69 710 -71 743 c 1
 46 743 l 1
 49 716 58 695 74 680 c 0
 88 666 109 659 134 659 c 0
 159 659 180 666 194 680 c 0
 210 695 219 716 222 743 c 1
 339 743 l 1
 337 710 327 681 309 655 c 0
 291 629 267 609 236 594 c 0
 206 580 172 573 134 573 c 0
 96 573 62 580 32 594 c 0
EndSplineSet
EndChar

StartChar: icircumflex
Encoding: 238 238 275
Width: 268
Flags: W
LayerCount: 2
Fore
SplineSet
79 520 m 1
 189 520 l 1
 189 0 l 1
 79 0 l 1
 79 520 l 1
37 770 m 1
 230 770 l 1
 355 560 l 1
 225 560 l 1
 135 720 l 1
 133 720 l 1
 43 560 l 1
 -87 560 l 1
 37 770 l 1
EndSplineSet
EndChar

StartChar: uni0209
Encoding: 521 521 276
Width: 268
Flags: W
LayerCount: 2
Fore
SplineSet
79 520 m 1
 189 520 l 1
 189 0 l 1
 79 0 l 1
 79 520 l 1
-112 770 m 1
 28 770 l 1
 123 560 l 1
 13 560 l 1
 -112 770 l 1
113 770 m 1
 253 770 l 1
 348 560 l 1
 238 560 l 1
 113 770 l 1
EndSplineSet
EndChar

StartChar: idieresis
Encoding: 239 239 277
Width: 268
Flags: W
LayerCount: 2
Fore
SplineSet
79 520 m 1
 189 520 l 1
 189 0 l 1
 79 0 l 1
 79 520 l 1
-56 728 m 1
 70 728 l 1
 70 602 l 1
 -56 602 l 1
 -56 728 l 1
198 728 m 1
 324 728 l 1
 324 602 l 1
 198 602 l 1
 198 728 l 1
EndSplineSet
EndChar

StartChar: i.loclTRK
Encoding: 1114113 -1 278
Width: 268
Flags: W
LayerCount: 2
Fore
SplineSet
79 520 m 1
 189 520 l 1
 189 0 l 1
 79 0 l 1
 79 520 l 1
71 728 m 1
 197 728 l 1
 197 602 l 1
 71 602 l 1
 71 728 l 1
EndSplineSet
EndChar

StartChar: uni1ECB
Encoding: 7883 7883 279
Width: 268
Flags: W
LayerCount: 2
Fore
SplineSet
79 740 m 1
 189 740 l 1
 189 630 l 1
 79 630 l 1
 79 740 l 1
79 520 m 1
 189 520 l 1
 189 0 l 1
 79 0 l 1
 79 520 l 1
71 -82 m 1
 197 -82 l 1
 197 -208 l 1
 71 -208 l 1
 71 -82 l 1
EndSplineSet
EndChar

StartChar: igrave
Encoding: 236 236 280
Width: 268
Flags: W
LayerCount: 2
Fore
SplineSet
79 520 m 1
 189 520 l 1
 189 0 l 1
 79 0 l 1
 79 520 l 1
-1 770 m 1
 139 770 l 1
 234 560 l 1
 124 560 l 1
 -1 770 l 1
EndSplineSet
EndChar

StartChar: uni1EC9
Encoding: 7881 7881 281
Width: 268
Flags: W
LayerCount: 2
Fore
SplineSet
79 520 m 1
 189 520 l 1
 189 0 l 1
 79 0 l 1
 79 520 l 1
172 616 m 0
 175 630 176 640 176 649 c 0
 176 664 171 674 162 678 c 0
 152 684 134 686 108 686 c 0
 65 686 24 680 -16 668 c 1
 -26 755 l 1
 24 767 77 773 134 773 c 0
 175 773 207 770 230 766 c 0
 253 760 269 752 278 740 c 0
 288 729 293 712 293 690 c 0
 293 674 291 656 288 636 c 0
 284 616 279 598 273 583 c 1
 163 583 l 1
 166 592 169 604 172 616 c 0
EndSplineSet
EndChar

StartChar: uni020B
Encoding: 523 523 282
Width: 268
Flags: W
LayerCount: 2
Fore
SplineSet
79 520 m 1
 189 520 l 1
 189 0 l 1
 79 0 l 1
 79 520 l 1
236 736 m 0
 267 721 291 701 309 675 c 0
 327 649 337 620 339 587 c 1
 222 587 l 1
 219 614 210 635 194 650 c 0
 180 664 159 671 134 671 c 0
 109 671 88 664 74 650 c 0
 58 635 49 614 46 587 c 1
 -71 587 l 1
 -69 620 -59 649 -41 675 c 0
 -23 701 1 721 32 736 c 0
 62 750 96 757 134 757 c 0
 172 757 206 750 236 736 c 0
EndSplineSet
EndChar

StartChar: imacron
Encoding: 299 299 283
Width: 268
Flags: W
LayerCount: 2
Fore
SplineSet
79 520 m 1
 189 520 l 1
 189 0 l 1
 79 0 l 1
 79 520 l 1
-55 708 m 1
 323 708 l 1
 323 622 l 1
 -55 622 l 1
 -55 708 l 1
EndSplineSet
EndChar

StartChar: iogonek
Encoding: 303 303 284
Width: 268
Flags: W
LayerCount: 2
Fore
SplineSet
197 728 m 1
 197 602 l 1
 71 602 l 1
 71 728 l 1
 197 728 l 1
278 -196 m 1
 244 -210 206 -217 163 -217 c 0
 112 -217 72 -208 44 -190 c 0
 16 -171 2 -145 2 -112 c 0
 2 -67 28 -24 79 15 c 1
 79 520 l 1
 189 520 l 1
 189 0 l 1
 162 -16 142 -32 126 -48 c 0
 112 -65 104 -80 104 -93 c 0
 104 -105 110 -114 122 -120 c 0
 133 -127 150 -130 172 -130 c 0
 204 -130 234 -124 261 -111 c 1
 278 -196 l 1
EndSplineSet
EndChar

StartChar: itilde
Encoding: 297 297 285
Width: 268
Flags: W
LayerCount: 2
Fore
SplineSet
79 520 m 1
 189 520 l 1
 189 0 l 1
 79 0 l 1
 79 520 l 1
194 586 m 0
 176 593 153 604 126 619 c 0
 95 638 72 647 58 647 c 0
 48 647 41 642 36 634 c 0
 31 624 29 609 29 587 c 1
 -71 587 l 1
 -71 644 -63 686 -48 713 c 0
 -32 740 -8 753 25 753 c 0
 41 753 58 750 76 744 c 0
 94 737 116 726 142 711 c 0
 173 692 196 683 210 683 c 0
 220 683 227 688 232 697 c 0
 237 706 239 722 239 743 c 1
 339 743 l 1
 339 686 331 644 316 617 c 0
 300 590 276 577 243 577 c 0
 228 577 211 580 194 586 c 0
EndSplineSet
EndChar

StartChar: j
Encoding: 106 106 286
Width: 326
Flags: W
LayerCount: 2
Fore
SplineSet
137 740 m 1
 247 740 l 1
 247 630 l 1
 137 630 l 1
 137 740 l 1
66 -128 m 0
 93 -120 112 -105 122 -84 c 0
 132 -62 137 -27 137 20 c 2
 137 520 l 1
 247 520 l 1
 247 20 l 2
 247 -47 238 -98 220 -133 c 0
 202 -168 171 -193 128 -208 c 0
 84 -223 21 -230 -61 -230 c 1
 -66 -140 l 1
 -6 -140 38 -136 66 -128 c 0
EndSplineSet
EndChar

StartChar: uni0237
Encoding: 567 567 287
Width: 326
Flags: W
LayerCount: 2
Fore
SplineSet
66 -128 m 0
 93 -120 112 -105 122 -84 c 0
 132 -62 137 -27 137 20 c 2
 137 520 l 1
 247 520 l 1
 247 20 l 2
 247 -47 238 -98 220 -133 c 0
 202 -168 171 -193 128 -208 c 0
 84 -223 21 -230 -61 -230 c 1
 -66 -140 l 1
 -6 -140 38 -136 66 -128 c 0
EndSplineSet
EndChar

StartChar: jcircumflex
Encoding: 309 309 288
Width: 326
Flags: W
LayerCount: 2
Fore
SplineSet
66 -128 m 0
 93 -120 112 -105 122 -84 c 0
 132 -62 137 -27 137 20 c 2
 137 520 l 1
 247 520 l 1
 247 20 l 2
 247 -47 238 -98 220 -133 c 0
 202 -168 171 -193 128 -208 c 0
 84 -223 21 -230 -61 -230 c 1
 -66 -140 l 1
 -6 -140 38 -136 66 -128 c 0
66 770 m 1
 259 770 l 1
 384 560 l 1
 254 560 l 1
 164 720 l 1
 162 720 l 1
 72 560 l 1
 -58 560 l 1
 66 770 l 1
EndSplineSet
EndChar

StartChar: k
Encoding: 107 107 289
Width: 572
Flags: W
LayerCount: 2
Fore
SplineSet
72 750 m 1
 180 750 l 1
 180 305 l 1
 182 305 l 1
 398 520 l 1
 537 520 l 1
 274 270 l 1
 547 0 l 1
 408 0 l 1
 182 234 l 1
 180 234 l 1
 180 0 l 1
 72 0 l 1
 72 750 l 1
EndSplineSet
EndChar

StartChar: uni0137
Encoding: 311 311 290
Width: 572
Flags: W
LayerCount: 2
Fore
SplineSet
72 750 m 1
 180 750 l 1
 180 305 l 1
 182 305 l 1
 398 520 l 1
 537 520 l 1
 274 270 l 1
 547 0 l 1
 408 0 l 1
 182 234 l 1
 180 234 l 1
 180 0 l 1
 72 0 l 1
 72 750 l 1
252 -250 m 1
 142 -250 l 1
 237 -40 l 1
 377 -40 l 1
 252 -250 l 1
EndSplineSet
EndChar

StartChar: kgreenlandic
Encoding: 312 312 291
Width: 572
Flags: W
LayerCount: 2
Fore
SplineSet
72 520 m 1
 180 520 l 1
 180 305 l 1
 182 305 l 1
 398 520 l 1
 537 520 l 1
 274 270 l 1
 547 0 l 1
 408 0 l 1
 182 234 l 1
 180 234 l 1
 180 0 l 1
 72 0 l 1
 72 520 l 1
EndSplineSet
EndChar

StartChar: l
Encoding: 108 108 292
Width: 394
Flags: W
LayerCount: 2
Fore
SplineSet
79 750 m 1
 185 750 l 1
 185 180 l 2
 185 136 190 107 200 92 c 0
 211 77 230 70 259 70 c 0
 292 70 322 76 349 88 c 1
 364 10 l 1
 326 -3 286 -10 244 -10 c 0
 185 -10 143 3 118 29 c 0
 92 55 79 99 79 160 c 2
 79 750 l 1
EndSplineSet
EndChar

StartChar: lacute
Encoding: 314 314 293
Width: 394
Flags: W
LayerCount: 2
Fore
SplineSet
79 750 m 1
 185 750 l 1
 185 180 l 2
 185 136 190 107 200 92 c 0
 211 77 230 70 259 70 c 0
 292 70 322 76 349 88 c 1
 364 10 l 1
 326 -3 286 -10 244 -10 c 0
 185 -10 143 3 118 29 c 0
 92 55 79 99 79 160 c 2
 79 750 l 1
144 790 m 1
 34 790 l 1
 129 1000 l 1
 269 1000 l 1
 144 790 l 1
EndSplineSet
EndChar

StartChar: lcaron
Encoding: 318 318 294
Width: 465
Flags: W
LayerCount: 2
Fore
SplineSet
79 750 m 1
 185 750 l 1
 185 180 l 2
 185 136 190 107 200 92 c 0
 211 77 230 70 259 70 c 0
 292 70 322 76 349 88 c 1
 364 10 l 1
 326 -3 286 -10 244 -10 c 0
 185 -10 143 3 118 29 c 0
 92 55 79 99 79 160 c 2
 79 750 l 1
315 770 m 1
 445 770 l 1
 330 470 l 1
 230 470 l 1
 315 770 l 1
EndSplineSet
EndChar

StartChar: uni013C
Encoding: 316 316 295
Width: 394
Flags: W
LayerCount: 2
Fore
SplineSet
79 750 m 1
 185 750 l 1
 185 180 l 2
 185 136 190 107 200 92 c 0
 211 77 230 70 259 70 c 0
 292 70 322 76 349 88 c 1
 364 10 l 1
 326 -3 286 -10 244 -10 c 0
 185 -10 143 3 118 29 c 0
 92 55 79 99 79 160 c 2
 79 750 l 1
186 -250 m 1
 76 -250 l 1
 171 -40 l 1
 311 -40 l 1
 186 -250 l 1
EndSplineSet
EndChar

StartChar: ldot
Encoding: 320 320 296
Width: 448
Flags: W
LayerCount: 2
Fore
SplineSet
79 750 m 1
 185 750 l 1
 185 180 l 2
 185 136 190 107 200 92 c 0
 211 77 230 70 259 70 c 0
 292 70 322 76 349 88 c 1
 364 10 l 1
 326 -3 286 -10 244 -10 c 0
 185 -10 143 3 118 29 c 0
 92 55 79 99 79 160 c 2
 79 750 l 1
280 440 m 1
 410 440 l 1
 410 310 l 1
 280 310 l 1
 280 440 l 1
EndSplineSet
EndChar

StartChar: uni01C9
Encoding: 457 457 297
Width: 591
Flags: W
LayerCount: 2
Fore
SplineSet
79 750 m 1
 185 750 l 1
 185 180 l 2
 185 136 190 107 200 92 c 0
 211 77 230 70 259 70 c 0
 292 70 322 76 349 88 c 1
 364 10 l 1
 326 -3 286 -10 244 -10 c 0
 185 -10 143 3 118 29 c 0
 92 55 79 99 79 160 c 2
 79 750 l 1
402 740 m 1
 512 740 l 1
 512 630 l 1
 402 630 l 1
 402 740 l 1
330 -128 m 0
 358 -120 377 -105 387 -84 c 0
 397 -62 402 -27 402 20 c 2
 402 520 l 1
 512 520 l 1
 512 20 l 2
 512 -47 503 -98 485 -133 c 0
 467 -168 436 -193 392 -208 c 0
 349 -223 286 -230 204 -230 c 1
 199 -140 l 1
 259 -140 303 -136 330 -128 c 0
EndSplineSet
EndChar

StartChar: lslash
Encoding: 322 322 298
Width: 454
Flags: W
LayerCount: 2
Fore
SplineSet
445 407 m 1
 45 239 l 1
 9 323 l 1
 409 491 l 1
 445 407 l 1
172 750 m 1
 278 750 l 1
 278 180 l 2
 278 136 283 107 294 92 c 0
 304 77 323 70 352 70 c 0
 385 70 415 76 442 88 c 1
 457 10 l 1
 419 -3 379 -10 337 -10 c 0
 278 -10 236 3 210 29 c 0
 185 55 172 99 172 160 c 2
 172 750 l 1
EndSplineSet
EndChar

StartChar: m
Encoding: 109 109 299
Width: 831
Flags: W
LayerCount: 2
Fore
SplineSet
732 480 m 0
 754 446 766 393 766 320 c 2
 766 0 l 1
 660 0 l 1
 660 300 l 2
 660 346 654 381 642 404 c 0
 629 428 611 440 586 440 c 0
 566 440 547 432 530 416 c 0
 512 401 498 380 488 354 c 0
 477 328 472 300 472 269 c 2
 472 0 l 1
 366 0 l 1
 366 300 l 2
 366 346 360 381 348 404 c 0
 335 428 317 440 292 440 c 0
 271 440 252 432 235 416 c 0
 218 399 204 377 194 348 c 0
 183 320 178 289 178 255 c 2
 178 0 l 1
 72 0 l 1
 72 520 l 1
 173 520 l 1
 174 449 l 1
 176 449 l 1
 213 503 263 530 328 530 c 0
 389 530 431 503 452 449 c 1
 454 449 l 1
 475 475 500 495 528 509 c 0
 558 523 589 530 622 530 c 0
 672 530 708 513 732 480 c 0
EndSplineSet
EndChar

StartChar: n
Encoding: 110 110 300
Width: 597
Flags: W
LayerCount: 2
Fore
SplineSet
490 478 m 0
 518 443 532 391 532 320 c 2
 532 0 l 1
 424 0 l 1
 424 300 l 2
 424 346 416 381 401 404 c 0
 386 428 363 440 332 440 c 0
 306 440 281 432 258 416 c 0
 235 399 216 378 202 350 c 0
 187 324 180 295 180 265 c 2
 180 0 l 1
 72 0 l 1
 72 520 l 1
 175 520 l 1
 176 444 l 1
 178 444 l 1
 199 471 226 492 258 508 c 0
 289 522 324 530 362 530 c 0
 419 530 462 513 490 478 c 0
EndSplineSet
EndChar

StartChar: nacute
Encoding: 324 324 301
Width: 597
Flags: W
LayerCount: 2
Fore
SplineSet
490 478 m 0
 518 443 532 391 532 320 c 2
 532 0 l 1
 424 0 l 1
 424 300 l 2
 424 346 416 381 401 404 c 0
 386 428 363 440 332 440 c 0
 306 440 281 432 258 416 c 0
 235 399 216 378 202 350 c 0
 187 324 180 295 180 265 c 2
 180 0 l 1
 72 0 l 1
 72 520 l 1
 175 520 l 1
 176 444 l 1
 178 444 l 1
 199 471 226 492 258 508 c 0
 289 522 324 530 362 530 c 0
 419 530 462 513 490 478 c 0
309 560 m 1
 199 560 l 1
 294 770 l 1
 434 770 l 1
 309 560 l 1
EndSplineSet
EndChar

StartChar: ncaron
Encoding: 328 328 302
Width: 597
Flags: W
LayerCount: 2
Fore
SplineSet
490 478 m 0
 518 443 532 391 532 320 c 2
 532 0 l 1
 424 0 l 1
 424 300 l 2
 424 346 416 381 401 404 c 0
 386 428 363 440 332 440 c 0
 306 440 281 432 258 416 c 0
 235 399 216 378 202 350 c 0
 187 324 180 295 180 265 c 2
 180 0 l 1
 72 0 l 1
 72 520 l 1
 175 520 l 1
 176 444 l 1
 178 444 l 1
 199 471 226 492 258 508 c 0
 289 522 324 530 362 530 c 0
 419 530 462 513 490 478 c 0
78 770 m 1
 208 770 l 1
 298 610 l 1
 300 610 l 1
 390 770 l 1
 520 770 l 1
 395 560 l 1
 202 560 l 1
 78 770 l 1
EndSplineSet
EndChar

StartChar: uni0146
Encoding: 326 326 303
Width: 597
Flags: W
LayerCount: 2
Fore
SplineSet
490 478 m 0
 518 443 532 391 532 320 c 2
 532 0 l 1
 424 0 l 1
 424 300 l 2
 424 346 416 381 401 404 c 0
 386 428 363 440 332 440 c 0
 306 440 281 432 258 416 c 0
 235 399 216 378 202 350 c 0
 187 324 180 295 180 265 c 2
 180 0 l 1
 72 0 l 1
 72 520 l 1
 175 520 l 1
 176 444 l 1
 178 444 l 1
 199 471 226 492 258 508 c 0
 289 522 324 530 362 530 c 0
 419 530 462 513 490 478 c 0
291 -250 m 1
 181 -250 l 1
 276 -40 l 1
 416 -40 l 1
 291 -250 l 1
EndSplineSet
EndChar

StartChar: eng
Encoding: 331 331 304
Width: 597
Flags: W
LayerCount: 2
Fore
SplineSet
490 478 m 0
 518 443 532 391 532 320 c 2
 532 -26 l 2
 532 -95 518 -144 490 -175 c 0
 463 -206 418 -221 356 -221 c 0
 317 -221 279 -216 242 -205 c 1
 259 -114 l 1
 283 -122 308 -126 334 -126 c 0
 366 -126 389 -118 403 -102 c 0
 417 -87 424 -61 424 -26 c 2
 424 300 l 2
 424 346 416 381 401 404 c 0
 386 428 363 440 332 440 c 0
 306 440 281 432 258 416 c 0
 235 399 216 378 202 350 c 0
 187 324 180 295 180 265 c 2
 180 0 l 1
 72 0 l 1
 72 520 l 1
 175 520 l 1
 176 444 l 1
 178 444 l 1
 199 471 226 492 258 508 c 0
 289 522 324 530 362 530 c 0
 419 530 462 513 490 478 c 0
EndSplineSet
EndChar

StartChar: uni01CC
Encoding: 460 460 305
Width: 923
Flags: W
LayerCount: 2
Fore
SplineSet
490 478 m 0
 518 443 532 391 532 320 c 2
 532 0 l 1
 424 0 l 1
 424 300 l 2
 424 346 416 381 401 404 c 0
 386 428 363 440 332 440 c 0
 306 440 281 432 258 416 c 0
 235 399 216 378 202 350 c 0
 187 324 180 295 180 265 c 2
 180 0 l 1
 72 0 l 1
 72 520 l 1
 175 520 l 1
 176 444 l 1
 178 444 l 1
 199 471 226 492 258 508 c 0
 289 522 324 530 362 530 c 0
 419 530 462 513 490 478 c 0
734 740 m 1
 844 740 l 1
 844 630 l 1
 734 630 l 1
 734 740 l 1
662 -128 m 0
 690 -120 709 -105 719 -84 c 0
 729 -62 734 -27 734 20 c 2
 734 520 l 1
 844 520 l 1
 844 20 l 2
 844 -47 835 -98 817 -133 c 0
 799 -168 768 -193 724 -208 c 0
 681 -223 618 -230 536 -230 c 1
 531 -140 l 1
 591 -140 635 -136 662 -128 c 0
EndSplineSet
EndChar

StartChar: ntilde
Encoding: 241 241 306
Width: 597
Flags: W
LayerCount: 2
Fore
SplineSet
490 478 m 0
 518 443 532 391 532 320 c 2
 532 0 l 1
 424 0 l 1
 424 300 l 2
 424 346 416 381 401 404 c 0
 386 428 363 440 332 440 c 0
 306 440 281 432 258 416 c 0
 235 399 216 378 202 350 c 0
 187 324 180 295 180 265 c 2
 180 0 l 1
 72 0 l 1
 72 520 l 1
 175 520 l 1
 176 444 l 1
 178 444 l 1
 199 471 226 492 258 508 c 0
 289 522 324 530 362 530 c 0
 419 530 462 513 490 478 c 0
358 586 m 0
 341 593 318 604 291 619 c 0
 260 638 237 647 223 647 c 0
 213 647 206 642 201 634 c 0
 196 624 194 609 194 587 c 1
 94 587 l 1
 94 644 102 686 118 713 c 0
 133 740 157 753 190 753 c 0
 206 753 223 750 241 744 c 0
 259 737 281 726 307 711 c 0
 338 692 361 683 375 683 c 0
 385 683 392 688 397 697 c 0
 402 706 404 722 404 743 c 1
 504 743 l 1
 504 686 496 644 480 617 c 0
 465 590 441 577 408 577 c 0
 393 577 376 580 358 586 c 0
EndSplineSet
EndChar

StartChar: o
Encoding: 111 111 307
Width: 578
Flags: W
LayerCount: 2
Fore
SplineSet
102 61 m 0
 58 108 36 175 36 260 c 0
 36 345 58 412 102 459 c 0
 147 506 209 530 289 530 c 0
 369 530 431 506 476 459 c 0
 520 412 542 345 542 260 c 0
 542 175 520 108 476 61 c 0
 431 14 369 -10 289 -10 c 0
 209 -10 147 14 102 61 c 0
397 126 m 0
 422 157 434 201 434 260 c 0
 434 319 422 363 397 394 c 0
 372 425 336 440 289 440 c 0
 242 440 206 425 181 394 c 0
 156 363 144 319 144 260 c 0
 144 201 156 157 181 126 c 0
 206 95 242 80 289 80 c 0
 336 80 372 95 397 126 c 0
EndSplineSet
EndChar

StartChar: oacute
Encoding: 243 243 308
Width: 578
Flags: W
LayerCount: 2
Fore
SplineSet
102 61 m 0
 58 108 36 175 36 260 c 0
 36 345 58 412 102 459 c 0
 147 506 209 530 289 530 c 0
 369 530 431 506 476 459 c 0
 520 412 542 345 542 260 c 0
 542 175 520 108 476 61 c 0
 431 14 369 -10 289 -10 c 0
 209 -10 147 14 102 61 c 0
397 126 m 0
 422 157 434 201 434 260 c 0
 434 319 422 363 397 394 c 0
 372 425 336 440 289 440 c 0
 242 440 206 425 181 394 c 0
 156 363 144 319 144 260 c 0
 144 201 156 157 181 126 c 0
 206 95 242 80 289 80 c 0
 336 80 372 95 397 126 c 0
299 560 m 1
 189 560 l 1
 284 770 l 1
 424 770 l 1
 299 560 l 1
EndSplineSet
EndChar

